<?xml version="1.0" encoding="UTF-8"?>
<!DOCTYPE svg PUBLIC "-//W3C//DTD SVG 1.1//EN" "http://www.w3.org/Graphics/SVG/1.1/DTD/svg11.dtd">
<!-- Creator: CorelDRAW -->
<svg xmlns="http://www.w3.org/2000/svg" xml:space="preserve" width="3.93701in" height="3.93701in" version="1.1" style="shape-rendering:geometricPrecision; text-rendering:geometricPrecision; image-rendering:optimizeQuality; fill-rule:evenodd; clip-rule:evenodd"
viewBox="0 0 96.34 96.34"
 xmlns:xlink="http://www.w3.org/1999/xlink"
 xmlns:xodm="http://www.corel.com/coreldraw/odm/2003">
 <defs>
  <style type="text/css">
   <![CDATA[
    .fil0 {fill:#004BA6}
   ]]>
  </style>
 </defs>
 <g id="Layer_x0020_1">
  <metadata id="CorelCorpID_0Corel-Layer"/>
  <path class="fil0" d="M48.17 96.34c-26.6,0 -48.17,-21.57 -48.17,-48.17 0,-26.6 21.57,-48.17 48.17,-48.17 26.6,0 48.17,21.57 48.17,48.17 0,26.6 -21.57,48.17 -48.17,48.17zm-24.49 -70.35c16.28,0 32.88,-0.32 49.12,0 1.8,0.04 3.43,0.79 4.61,1.97 1.22,1.22 1.97,2.9 1.97,4.76l0 30.83c0,1.85 -0.76,3.54 -1.97,4.76 -1.22,1.22 -2.9,1.97 -4.76,1.97l-48.98 0c-1.85,0 -3.54,-0.76 -4.76,-1.97 -1.22,-1.22 -1.97,-2.9 -1.97,-4.76l0 -30.83c0,-1.85 0.76,-3.54 1.97,-4.76 1.19,-1.19 2.81,-1.93 4.61,-1.97l0.15 -0zm45.36 5.21l-41.74 0 20.87 16.67 20.87 -16.67zm5.14 32.34l0 -29.79 -24.4 19.49c-0.98,0.78 -2.35,0.74 -3.28,-0.03l-24.35 -19.45 0 29.79c0,0.41 0.17,0.79 0.45,1.07 0.28,0.28 0.66,0.45 1.07,0.45l48.98 0c0.41,0 0.79,-0.17 1.07,-0.45 0.28,-0.28 0.45,-0.66 0.45,-1.07z"/>
 </g>
</svg>
