<?xml version="1.0" encoding="UTF-8"?>
<!DOCTYPE svg PUBLIC "-//W3C//DTD SVG 1.1//EN" "http://www.w3.org/Graphics/SVG/1.1/DTD/svg11.dtd">
<!-- Creator: CorelDRAW -->
<svg xmlns="http://www.w3.org/2000/svg" xml:space="preserve" width="26.4053in" height="2.11675in" version="1.1" style="shape-rendering:geometricPrecision; text-rendering:geometricPrecision; image-rendering:optimizeQuality; fill-rule:evenodd; clip-rule:evenodd"
viewBox="0 0 18961.42 1520.02"
 xmlns:xlink="http://www.w3.org/1999/xlink"
 xmlns:xodm="http://www.corel.com/coreldraw/odm/2003">
 <defs>
  <style type="text/css">
   <![CDATA[
    .fil0 {fill:white}
   ]]>
  </style>
 </defs>
 <g id="Layer_x0020_1">
  <metadata id="CorelCorpID_0Corel-Layer"/>
  <path class="fil0" d="M-0 0l0 1507.33 39.41 -20 0 -168.14 62.53 0 0 81.92 63.27 0 0 32.13 18.77 0 0 14.84 18.08 0 0 42.13 62.08 -31.53 62.08 31.53 104.43 0 0 -334.37 84.94 -85.26 84.94 85.79 0 363.66 109.36 0 0 -20.83 119.73 0 22.63 20.68 16.3 0.15 6.34 0 0 -131.85 0 -36.44 19 0 0 -19.86 19.08 0 14.41 -80.13 14.57 80.13 19.07 0 0 19.86 19 0 0 36.44 0 131.85 86.08 0 0 -252.32 335.54 0 0 107.85 98.21 0 0 83.13 237.95 61.34 0 -130.54 29.62 -113.96 10.91 0 10.76 -77.68 8.08 0 6.37 -115.7 10.06 115.41 6.56 0 12.3 77.58 9.85 0 28.07 112.81 0 29.21 90.59 0 0 -107.04 73.17 0 0 209.91 186.24 0 0 -50.24 6.2 0 104.25 0 52.1 50.24 51.28 0 0 -289.85 164.02 0 0 143.3 120.86 0 0 -142.61 164.02 0 0 289.15 81.87 0 0 -122.77 104.92 0 0 122.77 29.37 0 0 -57.71 78.72 0 0 57.71 49.29 0 0 -175.88 69.56 0 0 175.88 25.28 0 0 -47.47 18.88 0 0 -241.88 33.69 0 0 -60.13 30.86 0 0 -39.66 25.6 0 8.58 -107.11 6.78 106.56 22.11 0 0 39.35 33.2 0 0 61.19 33.99 0 0 35.31c73.01,-12.21 138.7,8.44 138.7,48.67l0 205.18 54.79 0 0 -42.3 44.95 0 0 -41 95.14 0 0 -46 109.04 0 0 84.13c29.84,-4.87 57.44,2.77 58.7,16.9l8.5 0 0 -176.69 127.07 0 0 148.75 95.33 0 0 56.21 75 0 0 -357.09c0,-26.57 21.54,-48.11 48.11,-48.11 26.57,0 48.11,21.54 48.11,48.11l0 240.46 125.92 0 0 40.47 48.91 0 0 34.25 42.28 0 0 41.92c72.14,0 76.77,0 148.91,0l0 -352.74 148.53 0 0 72.84 45.68 0 0 36.96 64.81 0 0 55.84 42.78 0 118.08 0 0 187.1 66.05 0 0 -59.94 100.6 -47.97 90.61 49.68 0 58.23 110.69 0 0 -209.39 240.16 0 0 47.64 58.34 0 0 47.88 75.84 0 0 113.87 86.79 0 0 -352.74 133.03 0 0 243.47 52.43 0 0 76.8 63.77 0 0 -320.27 159.98 0 0 313.99 58.09 0 0 -293.05 29.98 -58.12 -4.97 0 20.15 -92.79 20.16 92.79 -4.97 0 29.98 58.12 0 331.8 233.19 0 66.44 -240.25 149.96 0.65 58.89 239.59 9.05 0 0 -375.22 17.79 47.76 59.91 -0.24 17.79 -47.52 0 276.13 111.19 0 0 -92.76 10.23 20.29 38.65 0 10.22 -20.29 0 116.68 113.63 0 0 75.17 193.55 0 0 -163.15 402.66 0 0 97.03 75.14 0 0 66.12 55.64 0 0 -352.74 82.12 -43.07 0 218.84 59.17 0 0 176.97 107.43 0 0 -294.28 476.25 0 0 129.45 140.24 0 0 113.38 98.23 0 69.32 -29.44 72.49 32.22 64.43 0 0 48.67 75.21 0 0 -12.69 39.41 -20 0 -168.14 62.53 0 0 81.92 63.27 0 0 32.13 18.77 0 0 14.84 18.08 0 0 42.13 62.08 -31.53 62.08 31.53 104.43 0 0 -334.37 84.94 -85.26 84.94 85.79 0 363.66 109.36 0 0 -20.83 119.73 0 22.63 20.68 16.3 0.15 6.34 0 0 -131.85 0 -36.44 19 0 0 -19.86 19.08 0 14.41 -80.13 14.57 80.13 19.07 0 0 19.86 19 0 0 36.44 0 131.85 86.08 0 0 -252.32 335.54 0 0 107.85 98.21 0 0 83.13 237.95 61.34 0 -130.54 29.62 -113.96 10.91 0 10.76 -77.68 8.08 0 6.37 -115.7 10.06 115.41 6.56 0 12.3 77.58 9.85 0 28.07 112.81 0 29.21 90.59 0 0 -107.04 73.17 0 0 209.91 186.24 0 0 -50.24 6.2 0 104.25 0 52.1 50.24 51.28 0 0 -289.85 164.02 0 0 143.3 120.86 0 0 -142.61 164.02 0 0 289.15 81.87 0 0 -122.77 104.92 0 0 122.77 29.37 0 0 -57.71 78.72 0 0 57.71 49.29 0 0 -175.88 69.56 0 0 175.88 25.28 0 0 -47.47 18.88 0 0 -241.88 33.69 0 0 -60.13 30.86 0 0 -39.66 25.6 0 8.58 -107.11 6.78 106.56 22.11 0 0 39.35 33.2 0 0 61.19 33.99 0 0 35.31c73.01,-12.21 138.7,8.44 138.7,48.67l0 205.18 54.79 0 0 -42.3 44.95 0 0 -41 95.14 0 0 -46 109.04 0 0 84.13c29.84,-4.87 57.44,2.77 58.7,16.9l8.5 0 0 -176.69 127.07 0 0 148.75 95.33 0 0 56.21 75 0 0 -357.09c0,-26.57 21.54,-48.11 48.11,-48.11 26.57,0 48.11,21.54 48.11,48.11l0 240.46 125.92 0 0 40.47 48.91 0 0 34.25 42.28 0 0 41.92c72.14,0 76.77,0 148.91,0l0 -352.74 148.53 0 0 72.84 45.68 0 0 36.96 64.81 0 0 55.84 42.78 0 118.08 0 0 187.1 66.05 0 0 -59.94 100.6 -47.97 90.61 49.68 0 58.23 110.69 0 0 -209.39 240.16 0 0 47.64 58.34 0 0 47.88 75.84 0 0 113.87 86.79 0 0 -352.74 133.03 0 0 243.47 52.43 0 0 76.8 63.77 0 0 -320.27 159.98 0 0 313.99 58.09 0 0 -293.05 29.98 -58.12 -4.97 0 20.15 -92.79 20.16 92.79 -4.97 0 29.98 58.12 0 331.8 233.19 0 66.44 -240.25 149.96 0.65 58.89 239.59 9.05 0 0 -375.22 17.79 47.76 59.91 -0.24 17.79 -47.52 0 276.13 111.19 0 0 -92.76 10.23 20.29 38.65 0 10.22 -20.29 0 116.68 113.63 0 0 75.17 193.55 0 0 -163.15 402.66 0 0 97.03 75.14 0 0 66.12 55.64 0 0 -352.74 82.12 -43.07 0 218.84 59.17 0 0 176.97 107.43 0 0 -294.28 476.25 0 0 129.45 140.24 0 0 113.38 98.23 0 69.32 -29.44 72.49 32.22 64.43 0 0 48.67 75.21 0 0 -1520.02 -18961.42 0z"/>
 </g>
</svg>
