<?xml version="1.0" encoding="UTF-8"?>
<!DOCTYPE svg PUBLIC "-//W3C//DTD SVG 1.1//EN" "http://www.w3.org/Graphics/SVG/1.1/DTD/svg11.dtd">
<!-- Creator: CorelDRAW -->
<svg xmlns="http://www.w3.org/2000/svg" xml:space="preserve" width="10.3207in" height="1.40551in" version="1.1" style="shape-rendering:geometricPrecision; text-rendering:geometricPrecision; image-rendering:optimizeQuality; fill-rule:evenodd; clip-rule:evenodd"
viewBox="0 0 25559.43 3480.78"
 xmlns:xlink="http://www.w3.org/1999/xlink"
 xmlns:xodm="http://www.corel.com/coreldraw/odm/2003">
 <defs>
  <style type="text/css">
   <![CDATA[
    .fil2 {fill:#131C2F}
    .fil1 {fill:gray}
    .fil0 {fill:white}
   ]]>
  </style>
 </defs>
 <g id="Layer_x0020_1">
  <metadata id="CorelCorpID_0Corel-Layer"/>
  <polygon class="fil0" points="-0,3480.78 25559.43,3480.78 25559.43,0 -0,0 "/>
  <path class="fil1" d="M437.78 1625.38l-55.86 0 0 -227.95 -244.51 0 0 173.21 85.28 0 0 85.28 25.3 0 0 39.36 24.38 0 0 111.84 83.68 -83.68 72.04 72.04 152.4 -13.95 0 -362.61 -33.67 0 0 -645.21 -29.78 -101.92 -29.78 101.92 0 939.51 -49.49 0 0 -87.86zm627.5 -431.47l-255.79 0 0 693.07 147.41 0 0 -56.01 161.39 0 30.5 54.9 30.51 0.56 0 -410.63 -114.02 0 0 -281.88zm211.72 78.37l111.3 0 48.75 449.36 0 164.64 -48.75 0 -67.29 0 0 -446.7 -25.61 0 0 -49.1 -25.38 0 -2.69 -29.08 9.67 -89.12zm305 -55.73l76.03 0 0 -165.17c-25.34,-21.57 -50.69,-21.29 -76.03,0l0 165.17zm653.51 497.65l0 -443.12c-21.84,-78.17 -123.87,-84.41 -146.95,0l0 443.12 -66.83 0 0 9.25 320.76 153 0 -150.1 0 -183.37 -7.65 0 -9.16 78.48 -26.59 0 -17.77 92.74 -45.81 0zm300.87 -400.94l97.01 0 0 299.96 -97.01 0 0 -299.96zm744.84 378l-141.9 0 0 25.59 -17.36 0 0 -589.04 1.08 0 -24.82 -114.2 6.03 0 -17.23 -162.03 -17.22 162.03 6.03 0 -24.82 114.2 0 528.76 -47.88 0 0 -585.8 -128.55 0 0 594.99 -47.72 0 0 -143.64 -38.82 0 0 -805.93 -76.23 0 0 612.92 30.14 0 0 526.11 251.04 0 8.36 -102.3 160.7 23.44 50.05 78.13 69.13 0 0 -163.23zm235 -2.76l41.94 0 0 -97.67 154.04 0 0 392.93 -195.99 0 0 -295.26zm41.94 -191.19l0 -280.2 154.04 0 0 280.2 -154.04 0zm335.02 -72.19l-67.95 0 0 489.4 171.46 0 0 -269.33 -48.03 0 0 -153.61 -44.29 0 0 217.73 -11.18 0 0 -284.19zm470.69 282.64l-15.1 0 0 -386.26 -100.34 0 0 -316.4 -36.54 -198.91 -51.61 0 -36.55 198.91 0 587.41 14.39 1.8 0 388.79 39.6 0 0 -250.04 106.11 13.05 0 237.11 93.04 0 -13 -275.47zm77.25 -165.43l62.45 76.12 0 141.82 -25.45 0 11.38 222.96 -20.97 0 -27.41 -440.91 0 0zm589.61 -805.29l-115.79 0 0 502.99c23.73,23.84 38.2,58.49 38.2,101.63l0 558.68 59.28 56.61 35.77 -173.43 39.4 -9.52 25.23 -122.71 6.18 0.83 0 -714.46 -53.89 0 0 -64.19 -34.39 0 0 -136.42zm-135.35 289.04l0 198.06c-20.15,-13.12 -44.41,-20.38 -70.86,-20.87l0 -177.19 10.18 68.16 50.52 0 10.17 -68.16zm547.74 424.06l-22.8 -215.76 -9.04 0 -8.83 -147.45 -3.74 0 -5.09 -201.24 -5.1 201.24 -3.74 0 -8.83 147.45 -9.04 0 -22.8 215.76 0 93.94 18.71 -1.01 0 223.32c40.23,-12.94 77.44,7.31 79.12,44.82l11.47 0 0 -152.31 -10.29 0 0 -208.76zm181.58 262.7l37.53 0 0 -240.35 77.64 12.96 0 227.39 30.2 0 0 -128.2 57.52 0 0 128.2 26.72 0 0 259.13 -101.09 0 0 -234.9 -128.51 0 0 -24.23zm503.99 62.17l40.01 0 16.97 0 0 89.49 172.81 0 0 69.98 69.23 0 0 47.02 49.69 0 0 -401.75 -14.54 0 0 99.25 -182 -96.31 0 129.19 -14.01 0 0 -157.13 0 -57.55 0 -198.85 -49.37 0 0 198.85 -88.78 0 0 186.94 0 90.89zm752.3 -828.73l30.22 -87.97 30.21 87.97 0 443.37 -60.42 0 0 -443.37zm162.41 765.19l41.9 0 0 -341.35 374.29 0 0 283.18 79.79 0 0 332.44 -149.21 0 0 -254.02 -122.14 -131.84 -135.6 127.33 0 255.13 -89.03 0 0 -270.87zm1167.48 3.93l-118.2 0 0 -33.2 -39.23 0 0 -446.66c-24.1,-22.43 -48.2,-23.09 -72.31,0l0 348.5 62.84 0 0 398.14 166.9 0 0 -266.78zm200.08 -2.63l70.61 0 0 -263.35 15.36 -34.27 0 384.95 -85.97 0 0 -87.33zm301.62 0.58l78.3 0 0 70.11 -78.3 0 0 -70.11zm200.07 4.23l17.73 0 0 -220.01 94.66 0 0 220.01 81.47 0 0 -823.61 70.8 0 0 813.01 38.83 0 0 10.6 34.53 0 -37.18 264.74 -300.84 0 0 -264.74zm401.02 -448.58l-40.73 0 0 290 40.73 -290 0 0zm142.83 -18.99l21.37 -214.79 21.38 214.79 -42.75 0zm153.77 463.89l-33.73 0 33.73 270.16 0 -270.16zm128.72 0.26l61.8 0 0 -32.62 71.75 0 0 32.62 16.33 0 0 269.94 -149.88 0 0 -269.94zm547.3 2.15l9.87 0 0 -41.24 45.06 0 0 41.24 41.39 0 0 203.26 -62.37 -0.61 -16.35 -55.71 -182.18 0 0 -176.48 -153.17 0 0 -288.84 240.86 0 0 204.71 76.91 0 0 113.67zm-334.63 -285.38l0 -32.99 11.53 0 -8.44 32.99 -3.09 0zm559.42 -243.89l30.46 -166 69.7 0 30.46 166 0 266.22 -130.62 0 0 -266.22zm414.3 309.48l176.29 0 0 367.14 -75.01 0 0 -152.87 -101.28 0 0 -214.27zm359.97 -79.94l-62.96 0 0 -140.25 62.96 0 0 140.25zm6.77 296.26l19.87 0 0 -797.64 105.93 0 0 137.34 39.54 0 0 52.68 -20.53 0 0 823.85 -35.52 0 0 -59.48 -109.29 0 0 -156.75zm975.83 -166.19l49.82 44.13 0 124.09 124.26 0 -41.68 34.86 -132.41 0 0 -203.07zm511.78 167.92l-119.96 0 0 -35.19 0 -199.01 -50.1 0 0 199.01 -84.53 0 0 19.67 66.37 58.06 86.85 0 0 89.76 101.37 0 0 -132.3zm437.77 -89.16l-55.86 0 0 -227.95 -244.51 0 0 173.21 85.29 0 0 85.28 25.3 0 0 39.36 24.37 0 0 111.84 83.68 -83.68 72.04 72.04 152.41 -13.95 0 -362.61 -33.68 0 0 -645.21 -29.78 -101.92 -29.77 101.92 0 939.51 -49.5 0 0 -87.86zm627.51 -431.47l-255.79 0 0 693.07 147.41 0 0 -56.01 161.38 0 30.51 54.9 30.5 0.56 0 -410.63 -114.01 0 0 -281.88zm211.72 78.37l111.29 0 48.76 449.36 0 164.64 -48.76 0 -67.29 0 0 -446.7 -25.6 0 0 -49.1 -25.39 0 -2.68 -29.08 9.67 -89.12zm305 -55.73l76.03 0 0 -165.17c-25.34,-21.57 -50.69,-21.29 -76.03,0l0 165.17zm653.51 497.65l0 -443.12c-21.84,-78.17 -123.88,-84.41 -146.96,0l0 443.12 -66.83 0 0 9.25 320.76 153 0 -150.1 0 -183.37 -7.64 0 -9.16 78.48 -26.6 0 -17.76 92.74 -45.81 0zm300.86 -400.94l97.01 0 0 299.96 -97.01 0 0 -299.96zm744.84 378l-141.9 0 0 25.59 -17.36 0 0 -589.04 1.08 0 -24.82 -114.2 6.03 0 -17.22 -162.03 -17.23 162.03 6.03 0 -24.81 114.2 0 528.76 -47.88 0 0 -585.8 -128.55 0 0 594.99 -47.72 0 0 -143.64 -38.82 0 0 -805.93 -76.23 0 0 612.92 30.15 0 0 526.11 251.04 0 8.35 -102.3 160.71 23.44 50.04 78.13 69.13 0 0 -163.23zm235 -2.76l41.95 0 0 -97.67 154.03 0 0 392.93 -195.99 0 0 -295.26zm41.95 -191.19l0 -280.2 154.03 0 0 280.2 -154.03 0zm335.01 -72.19l-67.94 0 0 489.4 171.46 0 0 -269.33 -48.03 0 0 -153.61 -44.3 0 0 217.73 -11.18 0 0 -284.19zm470.7 282.64l-15.11 0 0 -386.26 -100.34 0 0 -316.4 -36.53 -198.91 -51.62 0 -36.54 198.91 0 587.41 14.39 1.8 0 388.79 39.59 0 0 -250.04 106.12 13.05 0 237.11 93.04 0 -13 -275.47zm77.24 -165.43l62.45 76.12 0 141.82 -25.44 0 11.37 222.96 -20.97 0 -27.41 -440.91 0 0zm589.62 -805.29l-115.79 0 0 502.99c23.73,23.84 38.19,58.49 38.19,101.63l0 558.68 59.29 56.61 35.76 -173.43 39.4 -9.52 25.23 -122.71 6.18 0.83 0 -714.46 -53.88 0 0 -64.19 -34.39 0 0 -136.42zm-135.35 289.04l0 198.06c-20.15,-13.12 -44.42,-20.38 -70.86,-20.87l0 -177.19 10.17 68.16 50.52 0 10.17 -68.16zm547.74 424.06l-22.8 -215.76 -9.05 0 -8.83 -147.45 -3.73 0 -5.1 -201.24 -5.1 201.24 -3.73 0 -8.83 147.45 -9.05 0 -22.8 215.76 0 93.94 18.72 -1.01 0 223.32c40.22,-12.94 77.43,7.31 79.12,44.82l11.47 0 0 -152.31 -10.29 0 0 -208.76zm181.58 262.7l37.53 0 0 -240.35 77.64 12.96 0 227.39 30.2 0 0 -128.2 57.51 0 0 128.2 26.72 0 0 259.13 -101.09 0 0 -234.9 -128.51 0 0 -24.23zm503.98 62.17l40.02 0 16.97 0 0 89.49 172.81 0 0 69.98 69.24 0 0 47.02 49.69 0 0 -401.75 -14.54 0 0 99.25 -182.01 -96.31 0 129.19 -14.01 0 0 -157.13 0 -57.55 0 -198.85 -49.37 0 0 198.85 -88.78 0 0 186.94 0 90.89zm752.3 -828.73l30.22 -87.97 30.21 87.97 0 443.37 -60.42 0 0 -443.37zm162.41 765.19l41.9 0 0 -341.35 374.29 0 0 283.18 79.79 0 0 332.44 -149.21 0 0 -254.02 -122.14 -131.84 -135.6 127.33 0 255.13 -89.03 0 0 -270.87zm1167.48 3.93l-118.2 0 0 -33.2 -39.22 0 0 -446.66c-24.1,-22.43 -48.2,-23.09 -72.31,0l0 348.5 62.84 0 0 398.14 166.89 0 0 -266.78zm200.08 -2.63l70.61 0 0 -263.35 15.37 -34.27 0 384.95 -85.98 0 0 -87.33zm301.63 0.58l78.29 0 0 70.11 -78.29 0 0 -70.11zm200.07 4.23l17.72 0 0 -220.01 94.66 0 0 220.01 81.48 0 0 -823.61 70.79 0 0 813.01 38.84 0 0 10.6 34.53 0 -37.18 264.74 -300.84 0 0 -264.74zm401.02 -448.58l-40.74 0 0 290 40.74 -290 0 0zm142.83 -18.99l21.37 -214.79 21.38 214.79 -42.75 0zm153.76 463.89l-33.72 0 33.72 270.16 0 -270.16zm128.73 0.26l61.8 0 0 -32.62 71.74 0 0 32.62 16.34 0 0 269.94 -149.88 0 0 -269.94zm547.29 2.15l9.88 0 0 -41.24 45.05 0 0 41.24 41.4 0 0 203.26 -62.38 -0.61 -16.34 -55.71 -182.19 0 0 -176.48 -153.17 0 0 -288.84 240.87 0 0 204.71 76.9 0 0 113.67zm-334.63 -285.38l0 -32.99 11.53 0 -8.44 32.99 -3.09 0zm559.42 -243.89l30.47 -166 69.69 0 30.46 166 0 266.22 -130.62 0 0 -266.22zm414.3 309.48l176.3 0 0 367.14 -75.01 0 0 -152.87 -101.29 0 0 -214.27zm359.97 -79.94l-62.96 0 0 -140.25 62.96 0 0 140.25zm6.77 296.26l19.87 0 0 -797.64 105.93 0 0 137.34 39.55 0 0 52.68 -20.53 0 0 823.85 -35.52 0 0 -59.48 -109.3 0 0 -156.75zm975.84 -166.19l49.81 44.13 0 124.09 124.27 0 -41.68 34.86 -132.41 0 0 -203.07zm511.77 167.92l-119.96 0 0 -35.19 0 -199.01 -50.11 0 0 199.01 -84.52 0 0 19.67 66.36 58.06 86.86 0 0 89.76 101.36 0 0 -132.3z"/>
  <path class="fil2" d="M12779.72 1852.6l53.12 -53.11 0 -446.29 84.28 0 0 217.44 85.29 0 0 85.28 25.3 0 0 39.36 24.37 0 0 111.84 83.68 -83.68 72.04 72.04 152.41 -13.95 0 -861.92 114.49 -226.27 114.5 227.68 0 965.94 147.42 0 0 -56.01 161.37 0 30.51 54.9 30.5 0.56 0 -443.25 22.89 0 7.45 -7.46 0 -41.85 27.02 0 13.41 -219.69 19.96 216.3 25.39 0 0 49.1 25.6 0 0 446.7 116.05 0 0 -669.73 452.3 0 0 286.26 132.38 0 0 220.64 320.76 153 0 -336.65 39.93 -302.47 14.71 0 14.51 -206.18 10.88 0 8.59 -307.1 13.55 306.34 8.84 0 16.58 205.9 13.29 0 37.83 299.4 0 77.52 122.11 0 0 -284.11 98.64 0 0 526.11 251.04 0 8.35 -102.3 160.7 23.44 50.05 78.13 69.13 0 0 -737.53 235 0 0 380.36 195.99 0 0 -378.52 113.04 0 0 795.72 171.46 0 0 -337.87 141.43 17.68 0 388.79 39.59 0 0 -250.04 106.12 13.05 0 237.11 93.04 0 -26.61 -563.79 87.44 68.06 30.82 495.74 20.97 0 -11.37 -222.96 25.44 0 0 -778.65 45.43 0 0 -159.61 41.58 0 0 -105.26 34.52 0 11.56 -284.29 9.14 282.85 29.81 0 0 104.43 44.74 0 0 162.41 45.83 0 0 230.37c98.42,-32.42 186.97,22.4 186.97,129.15l0 558.68 59.29 56.61 35.76 -173.43 39.4 -9.52 25.23 -122.71 103.01 13.88 18.53 -115.16 128.47 -6.94 0 223.32c40.22,-12.94 77.43,7.31 79.12,44.82l11.47 0 0 -468.99 171.29 0 0 394.85 128.51 0 0 234.91 101.09 0 0 -1033.51c45.75,-40.72 88.83,-38.28 129.72,0l0 638.21 78.75 0 0 107.44 65.92 0 0 90.89 56.99 0 0 89.49 172.81 0 0 69.98 69.24 0 0 47.02 49.68 0 0 -1436.3 200.22 0 0 193.34 61.58 0 0 98.1 87.36 0 0 553.01 57.67 0 159.16 0 0 592.69 89.03 0 0 -255.13 135.6 -127.33 122.14 131.84 0 254.02 149.21 0 0 -655.21 323.74 0 0 126.45 78.63 0 0 127.06 102.24 0 0 398.14 166.89 0 0 -1436.99 129.42 0 0 1051.07 70.67 0 0 203.84 85.97 0 0 -850.05 215.65 0 0 833.41 78.29 0 0 -777.84 40.42 -154.29 -6.71 0 27.17 -246.28 27.17 246.3 -6.71 0 40.42 154.28 0 976.7 300.84 0 103.04 -733.71 202.15 1.75 91.58 733.7 0 -1093.69 23.99 126.76 80.75 -0.63 23.99 -126.13 0 732.92 149.88 0 0 -246.24 13.78 53.86 52.09 0 13.78 -53.86 0 309.7 153.17 0 0 176.48 182.19 0 16.34 55.71 62.38 0.61 0 -466.32 542.77 0 0 257.53 101.28 0 0 152.87 75.02 0 0 -1161.32 110.68 -114.29 0 828.53 79.76 0 0 453.01 109.3 0 0 59.48 35.52 0 0 -823.85 641.96 0 0 343.56 189.05 0 0 300.94 132.41 0 93.43 -78.11 97.72 85.5 86.86 0 0 89.76 101.37 0 0 1633.94 -25559.43 0 0 -1628.17 53.12 -53.12 0 -446.28 84.29 0 0 217.44 85.28 0 0 85.28 25.3 0 0 39.36 24.38 0 0 111.84 83.68 -83.68 72.04 72.04 152.4 -13.95 0 -861.92 114.5 -226.27 114.5 227.68 0 965.94 147.41 0 0 -56.01 161.39 0 30.5 54.9 30.51 0.56 0 -443.25 22.88 0 7.45 -7.46 0 -41.85 27.02 0 13.41 -219.69 19.97 216.3 25.38 0 0 49.1 25.61 0 0 446.7 116.04 0 0 -669.73 452.3 0 0 286.26 132.39 0 0 220.64 320.76 153 0 -336.65 39.93 -302.47 14.7 0 14.51 -206.18 10.89 0 8.58 -307.1 13.56 306.34 8.84 0 16.58 205.9 13.28 0 37.84 299.4 0 77.53 122.11 0 0 -284.12 98.63 0 0 526.11 251.04 0 8.36 -102.3 160.7 23.44 50.05 78.13 69.13 0 0 -737.53 235 0 0 380.36 195.99 0 0 -378.52 113.03 0 0 795.72 171.46 0 0 -337.87 141.43 17.68 0 388.79 39.6 0 0 -250.04 106.11 13.05 0 237.11 93.04 0 -26.6 -563.79 87.44 68.06 30.82 495.74 20.97 0 -11.38 -222.96 25.45 0 0 -778.65 45.42 0 0 -159.61 41.59 0 0 -105.26 34.51 0 11.56 -284.29 9.15 282.85 29.8 0 0 104.43 44.75 0 0 162.41 45.83 0 0 230.37c98.41,-32.42 186.97,22.4 186.97,129.15l0 558.68 59.28 56.61 35.77 -173.43 39.4 -9.52 25.23 -122.71 103.01 13.88 18.52 -115.16 128.47 -6.94 0 223.32c40.23,-12.94 77.44,7.31 79.12,44.82l11.47 0 0 -468.99 171.29 0 0 394.85 128.51 0 0 234.9 101.09 0 0 -1033.5c45.75,-40.72 88.84,-38.28 129.72,0l0 638.21 78.75 0 0 107.44 65.93 0 0 90.89 56.99 0 0 89.49 172.81 0 0 69.98 69.23 0 0 47.02 49.69 0 0 -1436.3 200.22 0 0 193.34 61.58 0 0 98.11 87.36 0 0 553 57.66 0 159.17 0 0 592.69 89.03 0 0 -255.13 135.6 -127.33 122.14 131.84 0 254.02 149.21 0 0 -655.21 323.73 0 0 126.45 78.64 0 0 127.06 102.23 0 0 398.14 166.9 0 0 -1436.99 129.41 0 0 1051.07 70.67 0 0 203.84 85.97 0 0 -850.05 215.65 0 0 833.41 78.3 0 0 -777.84 40.41 -154.29 -6.7 0 27.16 -246.28 27.17 246.3 -6.7 0 40.41 154.28 0 976.7 300.84 0 103.05 -733.71 202.15 1.75 91.58 733.7 0 -1093.69 23.99 126.76 80.76 -0.64 23.98 -126.12 0 732.92 149.88 0 0 -246.25 13.79 53.87 52.09 0 13.78 -53.87 0 309.71 153.17 0 0 176.48 182.18 0 16.35 55.71 62.37 0.61 0 -466.32 542.78 0 0 257.53 101.28 0 0 152.87 75.01 0 0 -1161.32 110.69 -114.29 0 828.53 79.76 0 0 453.01 109.29 0 0 59.48 35.52 0 0 -823.85 641.97 0 0 343.57 189.04 0 0 300.94 132.41 0 93.43 -78.12 97.72 85.5 86.85 0 0 89.76 101.37 0 0 5.76zm-12036.41 -114.67l33.85 0 0 39.55 -33.85 0 0 -39.55zm-65.49 0l33.85 0 0 39.55 -33.85 0 0 -39.55zm-65.49 0l33.85 0 0 39.55 -33.85 0 0 -39.55zm65.49 -79.71l33.85 0 0 39.55 -33.85 0 0 -39.55zm-65.49 0l33.85 0 0 39.55 -33.85 0 0 -39.55zm130.98 -79.71l33.85 0 0 39.56 -33.85 0 0 -39.56zm-65.49 0l33.85 0 0 39.56 -33.85 0 0 -39.56zm-65.49 0l33.85 0 0 39.56 -33.85 0 0 -39.56zm130.98 -79.7l33.85 0 0 39.55 -33.85 0 0 -39.55zm-65.49 0l33.85 0 0 39.55 -33.85 0 0 -39.55zm-65.49 0l33.85 0 0 39.55 -33.85 0 0 -39.55zm130.98 -79.7l33.85 0 0 39.55 -33.85 0 0 -39.55zm-65.49 0l33.85 0 0 39.55 -33.85 0 0 -39.55zm-65.49 0l33.85 0 0 39.55 -33.85 0 0 -39.55zm130.98 -79.71l33.85 0 0 39.55 -33.85 0 0 -39.55zm-65.49 0l33.85 0 0 39.55 -33.85 0 0 -39.55zm-65.49 0l33.85 0 0 39.55 -33.85 0 0 -39.55zm130.98 -79.7l33.85 0 0 39.55 -33.85 0 0 -39.55zm-65.49 0l33.85 0 0 39.55 -33.85 0 0 -39.55zm-65.49 0l33.85 0 0 39.55 -33.85 0 0 -39.55zm130.98 -79.71l33.85 0 0 39.56 -33.85 0 0 -39.56zm-65.49 0l33.85 0 0 39.56 -33.85 0 0 -39.56zm-65.49 0l33.85 0 0 39.56 -33.85 0 0 -39.56zm130.98 -79.71l33.85 0 0 39.56 -33.85 0 0 -39.56zm-65.49 0l33.85 0 0 39.56 -33.85 0 0 -39.56zm65.49 -79.7l33.85 0 0 39.56 -33.85 0 0 -39.56zm-65.49 0l33.85 0 0 39.56 -33.85 0 0 -39.56zm-65.49 0l33.85 0 0 39.56 -33.85 0 0 -39.56zm130.98 -79.71l33.85 0 0 39.56 -33.85 0 0 -39.56zm-65.49 0l33.85 0 0 39.56 -33.85 0 0 -39.56zm-65.49 0l33.85 0 0 39.56 -33.85 0 0 -39.56zm840.58 324.33l420.57 0 0 18.06 -420.57 0 0 -18.06zm0 558.95l420.57 0 0 18.06 -420.57 0 0 -18.06zm0 -62.1l420.57 0 0 18.05 -420.57 0 0 -18.05zm0 -62.12l420.57 0 0 18.06 -420.57 0 0 -18.06zm0 -62.11l420.57 0 0 18.06 -420.57 0 0 -18.06zm0 -62.1l420.57 0 0 18.05 -420.57 0 0 -18.05zm0 -62.11l420.57 0 0 18.05 -420.57 0 0 -18.05zm0 -62.11l420.57 0 0 18.06 -420.57 0 0 -18.06zm0 -62.11l420.57 0 0 18.06 -420.57 0 0 -18.06zm0 -62.11l420.57 0 0 18.06 -420.57 0 0 -18.06zm1999 -175.28l20.28 0 0 738.18 -20.28 0 0 -738.18zm-42.23 0l20.29 0 0 738.18 -20.29 0 0 -738.18zm-42.23 0l20.29 0 0 738.18 -20.29 0 0 -738.18zm-42.23 0l20.28 0 0 738.18 -20.28 0 0 -738.18zm190.98 438.78l195.99 0 0 392.93 -195.99 0 0 -392.93zm1051.57 296.53l31.89 0 0 35.31 -31.89 0 0 -35.31zm105.9 0l31.9 0 0 35.31 -31.9 0 0 -35.31zm-105.9 -106.06l31.89 0 0 35.31 -31.89 0 0 -35.31zm105.9 0l31.9 0 0 35.31 -31.9 0 0 -35.31zm-105.9 -106.06l31.89 0 0 35.31 -31.89 0 0 -35.31zm105.9 0l31.9 0 0 35.31 -31.9 0 0 -35.31zm-105.9 -106.06l31.89 0 0 35.31 -31.89 0 0 -35.31zm0 -106.05l31.89 0 0 35.3 -31.89 0 0 -35.3zm105.9 0l31.9 0 0 35.3 -31.9 0 0 -35.3zm-105.9 -106.06l31.89 0 0 35.3 -31.89 0 0 -35.3zm105.9 0l31.9 0 0 35.3 -31.9 0 0 -35.3zm-105.9 -106.05l31.89 0 0 35.3 -31.89 0 0 -35.3zm105.9 0l31.9 0 0 35.3 -31.9 0 0 -35.3zm-105.9 -106.06l31.89 0 0 35.3 -31.89 -35.3zm105.9 0l31.9 0 0 35.3 -31.9 0 0 -35.3zm-105.9 -106.06l31.89 0 0 35.31 -31.89 0 0 -35.31zm105.9 0l31.9 0 0 35.31 -31.9 0 0 -35.31zm1875.23 852.18c-10.19,0 -18.45,-8.26 -18.45,-18.45 0,-10.18 8.26,-18.44 18.45,-18.44 10.18,0 18.44,8.26 18.44,18.44 0,10.19 -8.26,18.45 -18.44,18.45zm77.04 0c-10.18,0 -18.44,-8.26 -18.44,-18.45 0,-10.18 8.26,-18.44 18.44,-18.44 10.19,0 18.45,8.26 18.45,18.44 0,10.19 -8.26,18.45 -18.45,18.45zm77.05 0c-10.19,0 -18.45,-8.26 -18.45,-18.45 0,-10.18 8.26,-18.44 18.45,-18.44 10.18,0 18.44,8.26 18.44,18.44 0,10.19 -8.26,18.45 -18.44,18.45zm77.04 0c-10.19,0 -18.45,-8.26 -18.45,-18.45 0,-10.18 8.26,-18.44 18.45,-18.44 10.18,0 18.45,8.26 18.45,18.44 0,10.19 -8.27,18.45 -18.45,18.45zm-231.12 -92.55c-10.19,0 -18.45,-8.26 -18.45,-18.45 0,-10.18 8.26,-18.44 18.45,-18.44 10.18,0 18.44,8.26 18.44,18.44 0,10.19 -8.26,18.45 -18.44,18.45zm77.04 0c-10.18,0 -18.44,-8.26 -18.44,-18.45 0,-10.18 8.26,-18.44 18.44,-18.44 10.19,0 18.45,8.26 18.45,18.44 0,10.19 -8.26,18.45 -18.45,18.45zm77.05 0c-10.19,0 -18.45,-8.26 -18.45,-18.45 0,-10.18 8.26,-18.44 18.45,-18.44 10.18,0 18.44,8.26 18.44,18.44 0,10.19 -8.26,18.45 -18.44,18.45zm77.04 0c-10.19,0 -18.45,-8.26 -18.45,-18.45 0,-10.18 8.26,-18.44 18.45,-18.44 10.18,0 18.45,8.26 18.45,18.44 0,10.19 -8.27,18.45 -18.45,18.45zm-154.08 -92.54c-10.18,0 -18.44,-8.26 -18.44,-18.45 0,-10.19 8.26,-18.45 18.44,-18.45 10.19,0 18.45,8.26 18.45,18.45 0,10.19 -8.26,18.45 -18.45,18.45zm77.05 0c-10.19,0 -18.45,-8.26 -18.45,-18.45 0,-10.19 8.26,-18.45 18.45,-18.45 10.18,0 18.44,8.26 18.44,18.45 0,10.19 -8.26,18.45 -18.44,18.45zm77.04 0c-10.19,0 -18.45,-8.26 -18.45,-18.45 0,-10.19 8.26,-18.45 18.45,-18.45 10.18,0 18.45,8.26 18.45,18.45 0,10.19 -8.27,18.45 -18.45,18.45zm-231.12 -92.55c-10.19,0 -18.45,-8.26 -18.45,-18.45 0,-10.18 8.26,-18.44 18.45,-18.44 10.18,0 18.44,8.26 18.44,18.44 0,10.19 -8.26,18.45 -18.44,18.45zm77.04 0c-10.18,0 -18.44,-8.26 -18.44,-18.45 0,-10.18 8.26,-18.44 18.44,-18.44 10.19,0 18.45,8.26 18.45,18.44 0,10.19 -8.26,18.45 -18.45,18.45zm77.05 0c-10.19,0 -18.45,-8.26 -18.45,-18.45 0,-10.18 8.26,-18.44 18.45,-18.44 10.18,0 18.44,8.26 18.44,18.44 0,10.19 -8.26,18.45 -18.44,18.45zm77.04 0c-10.19,0 -18.45,-8.26 -18.45,-18.45 0,-10.18 8.26,-18.44 18.45,-18.44 10.18,0 18.45,8.26 18.45,18.44 0,10.19 -8.27,18.45 -18.45,18.45zm-231.12 -92.55c-10.19,0 -18.45,-8.25 -18.45,-18.44 0,-10.19 8.26,-18.45 18.45,-18.45 10.18,0 18.44,8.26 18.44,18.45 0,10.19 -8.26,18.44 -18.44,18.44zm77.04 0c-10.18,0 -18.44,-8.25 -18.44,-18.44 0,-10.19 8.26,-18.45 18.44,-18.45 10.19,0 18.45,8.26 18.45,18.45 0,10.19 -8.26,18.44 -18.45,18.44zm77.05 0c-10.19,0 -18.45,-8.25 -18.45,-18.44 0,-10.19 8.26,-18.45 18.45,-18.45 10.18,0 18.44,8.26 18.44,18.45 0,10.19 -8.26,18.44 -18.44,18.44zm77.04 0c-10.19,0 -18.45,-8.25 -18.45,-18.44 0,-10.19 8.26,-18.45 18.45,-18.45 10.18,0 18.45,8.26 18.45,18.45 0,10.19 -8.27,18.44 -18.45,18.44zm-231.12 -92.55c-10.19,0 -18.45,-8.25 -18.45,-18.44 0,-10.19 8.26,-18.44 18.45,-18.44 10.18,0 18.44,8.25 18.44,18.44 0,10.19 -8.26,18.44 -18.44,18.44zm77.04 0c-10.18,0 -18.44,-8.25 -18.44,-18.44 0,-10.19 8.26,-18.44 18.44,-18.44 10.19,0 18.45,8.25 18.45,18.44 0,10.19 -8.26,18.44 -18.45,18.44zm77.05 0c-10.19,0 -18.45,-8.25 -18.45,-18.44 0,-10.19 8.26,-18.44 18.45,-18.44 10.18,0 18.44,8.25 18.44,18.44 0,10.19 -8.26,18.44 -18.44,18.44zm77.04 0c-10.19,0 -18.45,-8.25 -18.45,-18.44 0,-10.19 8.26,-18.44 18.45,-18.44 10.18,0 18.45,8.25 18.45,18.44 0,10.19 -8.27,18.44 -18.45,18.44zm-231.12 -92.54c-10.19,0 -18.45,-8.26 -18.45,-18.45 0,-10.18 8.26,-18.44 18.45,-18.44 10.18,0 18.44,8.26 18.44,18.44 0,10.19 -8.26,18.45 -18.44,18.45zm154.08 0c-10.19,0 -18.45,-8.26 -18.45,-18.45 0,-10.18 8.26,-18.44 18.45,-18.44 10.18,0 18.44,8.26 18.44,18.44 0,10.19 -8.26,18.45 -18.44,18.45zm77.04 0c-10.19,0 -18.45,-8.26 -18.45,-18.45 0,-10.18 8.26,-18.44 18.45,-18.44 10.18,0 18.45,8.26 18.45,18.44 0,10.19 -8.27,18.45 -18.45,18.45zm-231.12 -92.55c-10.19,0 -18.45,-8.26 -18.45,-18.45 0,-10.18 8.26,-18.44 18.45,-18.44 10.18,0 18.44,8.26 18.44,18.44 0,10.19 -8.26,18.45 -18.44,18.45zm77.04 0c-10.18,0 -18.44,-8.26 -18.44,-18.45 0,-10.18 8.26,-18.44 18.44,-18.44 10.19,0 18.45,8.26 18.45,18.44 0,10.19 -8.26,18.45 -18.45,18.45zm77.05 0c-10.19,0 -18.45,-8.26 -18.45,-18.45 0,-10.18 8.26,-18.44 18.45,-18.44 10.18,0 18.44,8.26 18.44,18.44 0,10.19 -8.26,18.45 -18.44,18.45zm77.04 0c-10.19,0 -18.45,-8.26 -18.45,-18.45 0,-10.18 8.26,-18.44 18.45,-18.44 10.18,0 18.45,8.26 18.45,18.44 0,10.19 -8.27,18.45 -18.45,18.45zm-231.12 -92.55c-10.19,0 -18.45,-8.26 -18.45,-18.44 0,-10.19 8.26,-18.45 18.45,-18.45 10.18,0 18.44,8.26 18.44,18.45 0,10.18 -8.26,18.44 -18.44,18.44zm77.04 0c-10.18,0 -18.44,-8.26 -18.44,-18.44 0,-10.19 8.26,-18.45 18.44,-18.45 10.19,0 18.45,8.26 18.45,18.45 0,10.18 -8.26,18.44 -18.45,18.44zm77.05 0c-10.19,0 -18.45,-8.26 -18.45,-18.44 0,-10.19 8.26,-18.45 18.45,-18.45 10.18,0 18.44,8.26 18.44,18.45 0,10.18 -8.26,18.44 -18.44,18.44zm77.04 0c-10.19,0 -18.45,-8.26 -18.45,-18.44 0,-10.19 8.26,-18.45 18.45,-18.45 10.18,0 18.45,8.26 18.45,18.45 0,10.18 -8.27,18.44 -18.45,18.44zm-231.12 -92.54c-10.19,0 -18.45,-8.26 -18.45,-18.45 0,-10.19 8.26,-18.44 18.45,-18.44 10.18,0 18.44,8.25 18.44,18.44 0,10.19 -8.26,18.45 -18.44,18.45zm77.04 0c-10.18,0 -18.44,-8.26 -18.44,-18.45 0,-10.19 8.26,-18.44 18.44,-18.44 10.19,0 18.45,8.25 18.45,18.44 0,10.19 -8.26,18.45 -18.45,18.45zm77.05 0c-10.19,0 -18.45,-8.26 -18.45,-18.45 0,-10.19 8.26,-18.44 18.45,-18.44 10.18,0 18.44,8.25 18.44,18.44 0,10.19 -8.26,18.45 -18.44,18.45zm77.04 0c-10.19,0 -18.45,-8.26 -18.45,-18.45 0,-10.19 8.26,-18.44 18.45,-18.44 10.18,0 18.45,8.25 18.45,18.44 0,10.19 -8.27,18.45 -18.45,18.45zm-231.12 -92.55c-10.19,0 -18.45,-8.26 -18.45,-18.45 0,-10.18 8.26,-18.44 18.45,-18.44 10.18,0 18.44,8.26 18.44,18.44 0,10.19 -8.26,18.45 -18.44,18.45zm77.04 0c-10.18,0 -18.44,-8.26 -18.44,-18.45 0,-10.18 8.26,-18.44 18.44,-18.44 10.19,0 18.45,8.26 18.45,18.44 0,10.19 -8.26,18.45 -18.45,18.45zm154.08 0c-10.19,0 -18.45,-8.26 -18.45,-18.45 0,-10.18 8.26,-18.44 18.45,-18.44 10.18,0 18.45,8.26 18.45,18.44 0,10.19 -8.27,18.45 -18.45,18.45zm-231.12 -92.54c-10.19,0 -18.45,-8.26 -18.45,-18.45 0,-10.19 8.26,-18.45 18.45,-18.45 10.18,0 18.44,8.26 18.44,18.45 0,10.19 -8.26,18.45 -18.44,18.45zm77.04 0c-10.18,0 -18.44,-8.26 -18.44,-18.45 0,-10.19 8.26,-18.45 18.44,-18.45 10.19,0 18.45,8.26 18.45,18.45 0,10.19 -8.26,18.45 -18.45,18.45zm-77.04 -92.55c-10.19,0 -18.45,-8.26 -18.45,-18.44 0,-10.19 8.26,-18.45 18.45,-18.45 10.18,0 18.44,8.26 18.44,18.45 0,10.18 -8.26,18.44 -18.44,18.44zm77.04 0c-10.18,0 -18.44,-8.26 -18.44,-18.44 0,-10.19 8.26,-18.45 18.44,-18.45 10.19,0 18.45,8.26 18.45,18.45 0,10.18 -8.26,18.44 -18.45,18.44zm-77.04 -92.55c-10.19,0 -18.45,-8.26 -18.45,-18.44 0,-10.19 8.26,-18.45 18.45,-18.45 10.18,0 18.44,8.26 18.44,18.45 0,10.18 -8.26,18.44 -18.44,18.44zm77.04 0c-10.18,0 -18.44,-8.26 -18.44,-18.44 0,-10.19 8.26,-18.45 18.44,-18.45 10.19,0 18.45,8.26 18.45,18.45 0,10.18 -8.26,18.44 -18.45,18.44zm981.39 1206.6l34.74 0 0 42.73 -34.74 0 0 -42.73zm132.03 0l34.74 0 0 42.73 -34.74 0 0 -42.73zm132.03 0l34.74 0 0 42.73 -34.74 0 0 -42.73zm-264.05 -123.23l34.74 0 0 42.74 -34.74 0 0 -42.74zm132.03 0l34.74 0 0 42.74 -34.74 0 0 -42.74zm132.03 0l34.74 0 0 42.74 -34.74 0 0 -42.74zm-264.05 -123.22l34.74 0 0 42.73 -34.74 0 0 -42.73zm132.03 0l34.74 0 0 42.73 -34.74 0 0 -42.73zm132.03 0l34.74 0 0 42.73 -34.74 0 0 -42.73zm-264.05 -123.23l34.74 0 0 42.73 -34.74 0 0 -42.73zm132.03 -123.23l34.74 0 0 42.73 -34.74 0 0 -42.73zm808.62 -392.75l22.16 0 0 857.52 -22.16 0 0 -857.52zm91.38 0l22.16 0 0 857.52 -22.16 0 0 -857.52zm212.6 -11.77c-13.76,0 -24.92,-14.07 -24.92,-31.42 0,-17.36 11.16,-31.43 24.92,-31.43 13.76,0 24.92,14.07 24.92,31.43 0,17.36 -11.16,31.42 -24.92,31.42zm887.02 986.94l149.88 0 0 -315.82 -149.88 0 0 315.82zm-75.2 -932.61l21.68 0 0 932.61 -21.68 0 0 -932.61zm746.59 451.4l487.22 0 0 12.64 -487.22 0 0 -12.64zm0 385.39l487.22 0 0 12.64 -487.22 0 0 -12.64zm0 -48.18l487.22 0 0 12.64 -487.22 0 0 -12.64zm0 -48.17l487.22 0 0 12.63 -487.22 0 0 -12.63zm0 -48.18l487.22 0 0 12.64 -487.22 0 0 -12.64zm0 -48.17l487.22 0 0 12.64 -487.22 0 0 -12.64zm0 -48.18l487.22 0 0 12.63 -487.22 0 0 -12.63zm0 -48.18l487.22 0 0 12.64 -487.22 0 0 -12.64zm0 -48.17l487.22 0 0 12.63 -487.22 0 0 -12.63zm1070.68 377.98l20.9 0 0 -788.78 -20.9 0 0 788.78zm532.8 0l20.9 0 0 -788.78 -20.9 0 0 788.78zm-88.79 0l20.9 0 0 -788.78 -20.9 0 0 788.78zm-88.8 0l20.9 0 0 -788.78 -20.9 0 0 788.78zm-88.8 0l20.9 0 0 -788.78 -20.9 0 0 788.78zm-88.79 0l20.9 0 0 -788.78 -20.9 0 0 788.78zm-88.8 0l20.9 0 0 -788.78 -20.9 0 0 788.78zm1953.17 -191.11l33.84 0 0 39.55 -33.84 0 0 -39.55zm-65.49 0l33.84 0 0 39.55 -33.84 0 0 -39.55zm-65.49 0l33.84 0 0 39.55 -33.84 0 0 -39.55zm65.49 -79.71l33.84 0 0 39.55 -33.84 0 0 -39.55zm-65.49 0l33.84 0 0 39.55 -33.84 0 0 -39.55zm130.98 -79.7l33.84 0 0 39.55 -33.84 0 0 -39.55zm-65.49 0l33.84 0 0 39.55 -33.84 0 0 -39.55zm-65.49 0l33.84 0 0 39.55 -33.84 0 0 -39.55zm130.98 -79.71l33.84 0 0 39.55 -33.84 0 0 -39.55zm-65.49 0l33.84 0 0 39.55 -33.84 0 0 -39.55zm-65.49 0l33.84 0 0 39.55 -33.84 0 0 -39.55zm130.98 -79.7l33.84 0 0 39.55 -33.84 0 0 -39.55zm-65.49 0l33.84 0 0 39.55 -33.84 0 0 -39.55zm-65.49 0l33.84 0 0 39.55 -33.84 0 0 -39.55zm130.98 -79.71l33.84 0 0 39.56 -33.84 0 0 -39.56zm-65.49 0l33.84 0 0 39.56 -33.84 0 0 -39.56zm-65.49 0l33.84 0 0 39.56 -33.84 0 0 -39.56zm130.98 -79.7l33.84 0 0 39.55 -33.84 0 0 -39.55zm-65.49 0l33.84 0 0 39.55 -33.84 0 0 -39.55zm-65.49 0l33.84 0 0 39.55 -33.84 0 0 -39.55zm130.98 -79.71l33.84 0 0 39.56 -33.84 0 0 -39.56zm-65.49 0l33.84 0 0 39.56 -33.84 0 0 -39.56zm-65.49 0l33.84 0 0 39.56 -33.84 0 0 -39.56zm130.98 -79.71l33.84 0 0 39.56 -33.84 0 0 -39.56zm-65.49 0l33.84 0 0 39.56 -33.84 0 0 -39.56zm65.49 -79.7l33.84 0 0 39.56 -33.84 0 0 -39.56zm-65.49 0l33.84 0 0 39.56 -33.84 0 0 -39.56zm-65.49 0l33.84 0 0 39.56 -33.84 0 0 -39.56zm130.98 -79.71l33.84 0 0 39.57 -33.84 0 0 -39.57zm-65.49 0l33.84 0 0 39.57 -33.84 0 0 -39.57zm-65.49 0l33.84 0 0 39.57 -33.84 0 0 -39.57zm840.57 324.33l420.58 0 0 18.05 -420.58 0 0 -18.05zm0 558.95l420.58 0 0 18.06 -420.58 0 0 -18.06zm0 -62.1l420.58 0 0 18.05 -420.58 0 0 -18.05zm0 -62.12l420.58 0 0 18.06 -420.58 0 0 -18.06zm0 -62.11l420.58 0 0 18.06 -420.58 0 0 -18.06zm0 -62.1l420.58 0 0 18.06 -420.58 0 0 -18.06zm0 -62.11l420.58 0 0 18.05 -420.58 0 0 -18.05zm0 -62.11l420.58 0 0 18.06 -420.58 0 0 -18.06zm0 -62.11l420.58 0 0 18.06 -420.58 0 0 -18.06zm0 -62.11l420.58 0 0 18.06 -420.58 0 0 -18.06zm1999.01 -175.28l20.28 0 0 738.17 -20.28 0 0 -738.17zm-42.24 0l20.29 0 0 738.17 -20.29 0 0 -738.17zm-42.23 0l20.29 0 0 738.17 -20.29 0 0 -738.17zm-42.22 0l20.28 0 0 738.17 -20.28 0 0 -738.17zm190.97 438.78l195.99 0 0 392.93 -195.99 0 0 -392.93zm1051.57 296.53l31.88 0 0 35.31 -31.88 0 0 -35.31zm105.9 0l31.89 0 0 35.31 -31.89 0 0 -35.31zm-105.9 -106.06l31.88 0 0 35.31 -31.88 0 0 -35.31zm105.9 0l31.89 0 0 35.31 -31.89 0 0 -35.31zm-105.9 -106.06l31.88 0 0 35.31 -31.88 0 0 -35.31zm105.9 0l31.89 0 0 35.31 -31.89 0 0 -35.31zm-105.9 -106.06l31.88 0 0 35.31 -31.88 0 0 -35.31zm0 -106.05l31.88 0 0 35.3 -31.88 0 0 -35.3zm105.9 0l31.89 0 0 35.3 -31.89 0 0 -35.3zm-105.9 -106.06l31.88 0 0 35.3 -31.88 0 0 -35.3zm105.9 0l31.89 0 0 35.3 -31.89 0 0 -35.3zm-105.9 -106.05l31.88 0 0 35.3 -31.88 0 0 -35.3zm105.9 0l31.89 0 0 35.3 -31.89 0 0 -35.3zm-105.9 -106.06l31.88 0 0 35.3 -31.88 -35.3zm105.9 0l31.89 0 0 35.3 -31.89 0 0 -35.3zm-105.9 -106.06l31.88 0 0 35.31 -31.88 0 0 -35.31zm105.9 0l31.89 0 0 35.31 -31.89 0 0 -35.31zm1875.23 852.18c-10.19,0 -18.45,-8.26 -18.45,-18.45 0,-10.18 8.26,-18.44 18.45,-18.44 10.18,0 18.44,8.26 18.44,18.44 0,10.19 -8.26,18.45 -18.44,18.45zm77.04 0c-10.19,0 -18.45,-8.26 -18.45,-18.45 0,-10.18 8.26,-18.44 18.45,-18.44 10.18,0 18.44,8.26 18.44,18.44 0,10.19 -8.26,18.45 -18.44,18.45zm77.04 0c-10.19,0 -18.45,-8.26 -18.45,-18.45 0,-10.18 8.26,-18.44 18.45,-18.44 10.18,0 18.44,8.26 18.44,18.44 0,10.19 -8.26,18.45 -18.44,18.45zm77.05 0c-10.19,0 -18.45,-8.26 -18.45,-18.45 0,-10.18 8.26,-18.44 18.45,-18.44 10.18,0 18.44,8.26 18.44,18.44 0,10.19 -8.26,18.45 -18.44,18.45zm-231.12 -92.55c-10.19,0 -18.45,-8.26 -18.45,-18.45 0,-10.18 8.26,-18.44 18.45,-18.44 10.18,0 18.44,8.26 18.44,18.44 0,10.19 -8.26,18.45 -18.44,18.45zm77.04 0c-10.19,0 -18.45,-8.26 -18.45,-18.45 0,-10.18 8.26,-18.44 18.45,-18.44 10.18,0 18.44,8.26 18.44,18.44 0,10.19 -8.26,18.45 -18.44,18.45zm77.04 0c-10.19,0 -18.45,-8.26 -18.45,-18.45 0,-10.18 8.26,-18.44 18.45,-18.44 10.18,0 18.44,8.26 18.44,18.44 0,10.19 -8.26,18.45 -18.44,18.45zm77.05 0c-10.19,0 -18.45,-8.26 -18.45,-18.45 0,-10.18 8.26,-18.44 18.45,-18.44 10.18,0 18.44,8.26 18.44,18.44 0,10.19 -8.26,18.45 -18.44,18.45zm-154.08 -92.54c-10.19,0 -18.45,-8.26 -18.45,-18.45 0,-10.19 8.26,-18.45 18.45,-18.45 10.18,0 18.44,8.26 18.44,18.45 0,10.19 -8.26,18.45 -18.44,18.45zm77.04 0c-10.19,0 -18.45,-8.26 -18.45,-18.45 0,-10.19 8.26,-18.45 18.45,-18.45 10.18,0 18.44,8.26 18.44,18.45 0,10.19 -8.26,18.45 -18.44,18.45zm77.05 0c-10.19,0 -18.45,-8.26 -18.45,-18.45 0,-10.19 8.26,-18.45 18.45,-18.45 10.18,0 18.44,8.26 18.44,18.45 0,10.19 -8.26,18.45 -18.44,18.45zm-231.12 -92.55c-10.19,0 -18.45,-8.26 -18.45,-18.45 0,-10.18 8.26,-18.44 18.45,-18.44 10.18,0 18.44,8.26 18.44,18.44 0,10.19 -8.26,18.45 -18.44,18.45zm77.04 0c-10.19,0 -18.45,-8.26 -18.45,-18.45 0,-10.18 8.26,-18.44 18.45,-18.44 10.18,0 18.44,8.26 18.44,18.44 0,10.19 -8.26,18.45 -18.44,18.45zm77.04 0c-10.19,0 -18.45,-8.26 -18.45,-18.45 0,-10.18 8.26,-18.44 18.45,-18.44 10.18,0 18.44,8.26 18.44,18.44 0,10.19 -8.26,18.45 -18.44,18.45zm77.05 0c-10.19,0 -18.45,-8.26 -18.45,-18.45 0,-10.18 8.26,-18.44 18.45,-18.44 10.18,0 18.44,8.26 18.44,18.44 0,10.19 -8.26,18.45 -18.44,18.45zm-231.12 -92.55c-10.19,0 -18.45,-8.25 -18.45,-18.44 0,-10.19 8.26,-18.45 18.45,-18.45 10.18,0 18.44,8.26 18.44,18.45 0,10.19 -8.26,18.44 -18.44,18.44zm77.04 0c-10.19,0 -18.45,-8.25 -18.45,-18.44 0,-10.19 8.26,-18.45 18.45,-18.45 10.18,0 18.44,8.26 18.44,18.45 0,10.19 -8.26,18.44 -18.44,18.44zm77.04 0c-10.19,0 -18.45,-8.25 -18.45,-18.44 0,-10.19 8.26,-18.45 18.45,-18.45 10.18,0 18.44,8.26 18.44,18.45 0,10.19 -8.26,18.44 -18.44,18.44zm77.05 0c-10.19,0 -18.45,-8.25 -18.45,-18.44 0,-10.19 8.26,-18.45 18.45,-18.45 10.18,0 18.44,8.26 18.44,18.45 0,10.19 -8.26,18.44 -18.44,18.44zm-231.12 -92.55c-10.19,0 -18.45,-8.25 -18.45,-18.44 0,-10.19 8.26,-18.44 18.45,-18.44 10.18,0 18.44,8.25 18.44,18.44 0,10.19 -8.26,18.44 -18.44,18.44zm77.04 0c-10.19,0 -18.45,-8.25 -18.45,-18.44 0,-10.19 8.26,-18.44 18.45,-18.44 10.18,0 18.44,8.25 18.44,18.44 0,10.19 -8.26,18.44 -18.44,18.44zm77.04 0c-10.19,0 -18.45,-8.25 -18.45,-18.44 0,-10.19 8.26,-18.44 18.45,-18.44 10.18,0 18.44,8.25 18.44,18.44 0,10.19 -8.26,18.44 -18.44,18.44zm77.05 0c-10.19,0 -18.45,-8.25 -18.45,-18.44 0,-10.19 8.26,-18.44 18.45,-18.44 10.18,0 18.44,8.25 18.44,18.44 0,10.19 -8.26,18.44 -18.44,18.44zm-231.12 -92.54c-10.19,0 -18.45,-8.26 -18.45,-18.45 0,-10.18 8.26,-18.44 18.45,-18.44 10.18,0 18.44,8.26 18.44,18.44 0,10.19 -8.26,18.45 -18.44,18.45zm154.07 0c-10.19,0 -18.45,-8.26 -18.45,-18.45 0,-10.18 8.26,-18.44 18.45,-18.44 10.18,0 18.44,8.26 18.44,18.44 0,10.19 -8.26,18.45 -18.44,18.45zm77.05 0c-10.19,0 -18.45,-8.26 -18.45,-18.45 0,-10.18 8.26,-18.44 18.45,-18.44 10.18,0 18.44,8.26 18.44,18.44 0,10.19 -8.26,18.45 -18.44,18.45zm-231.12 -92.55c-10.19,0 -18.45,-8.26 -18.45,-18.45 0,-10.18 8.26,-18.44 18.45,-18.44 10.18,0 18.44,8.26 18.44,18.44 0,10.19 -8.26,18.45 -18.44,18.45zm77.04 0c-10.19,0 -18.45,-8.26 -18.45,-18.45 0,-10.18 8.26,-18.44 18.45,-18.44 10.18,0 18.44,8.26 18.44,18.44 0,10.19 -8.26,18.45 -18.44,18.45zm77.04 0c-10.19,0 -18.45,-8.26 -18.45,-18.45 0,-10.18 8.26,-18.44 18.45,-18.44 10.18,0 18.44,8.26 18.44,18.44 0,10.19 -8.26,18.45 -18.44,18.45zm77.05 0c-10.19,0 -18.45,-8.26 -18.45,-18.45 0,-10.18 8.26,-18.44 18.45,-18.44 10.18,0 18.44,8.26 18.44,18.44 0,10.19 -8.26,18.45 -18.44,18.45zm-231.12 -92.55c-10.19,0 -18.45,-8.26 -18.45,-18.44 0,-10.19 8.26,-18.45 18.45,-18.45 10.18,0 18.44,8.26 18.44,18.45 0,10.18 -8.26,18.44 -18.44,18.44zm77.04 0c-10.19,0 -18.45,-8.26 -18.45,-18.44 0,-10.19 8.26,-18.45 18.45,-18.45 10.18,0 18.44,8.26 18.44,18.45 0,10.18 -8.26,18.44 -18.44,18.44zm77.04 0c-10.19,0 -18.45,-8.26 -18.45,-18.44 0,-10.19 8.26,-18.45 18.45,-18.45 10.18,0 18.44,8.26 18.44,18.45 0,10.18 -8.26,18.44 -18.44,18.44zm77.05 0c-10.19,0 -18.45,-8.26 -18.45,-18.44 0,-10.19 8.26,-18.45 18.45,-18.45 10.18,0 18.44,8.26 18.44,18.45 0,10.18 -8.26,18.44 -18.44,18.44zm-231.12 -92.54c-10.19,0 -18.45,-8.26 -18.45,-18.45 0,-10.19 8.26,-18.45 18.45,-18.45 10.18,0 18.44,8.26 18.44,18.45 0,10.19 -8.26,18.45 -18.44,18.45zm77.04 0c-10.19,0 -18.45,-8.26 -18.45,-18.45 0,-10.19 8.26,-18.45 18.45,-18.45 10.18,0 18.44,8.26 18.44,18.45 0,10.19 -8.26,18.45 -18.44,18.45zm77.04 0c-10.19,0 -18.45,-8.26 -18.45,-18.45 0,-10.19 8.26,-18.45 18.45,-18.45 10.18,0 18.44,8.26 18.44,18.45 0,10.19 -8.26,18.45 -18.44,18.45zm77.05 0c-10.19,0 -18.45,-8.26 -18.45,-18.45 0,-10.19 8.26,-18.45 18.45,-18.45 10.18,0 18.44,8.26 18.44,18.45 0,10.19 -8.26,18.45 -18.44,18.45zm-231.12 -92.55c-10.19,0 -18.45,-8.26 -18.45,-18.44 0,-10.19 8.26,-18.45 18.45,-18.45 10.18,0 18.44,8.26 18.44,18.45 0,10.18 -8.26,18.44 -18.44,18.44zm77.04 0c-10.19,0 -18.45,-8.26 -18.45,-18.44 0,-10.19 8.26,-18.45 18.45,-18.45 10.18,0 18.44,8.26 18.44,18.45 0,10.18 -8.26,18.44 -18.44,18.44zm154.08 0c-10.19,0 -18.45,-8.26 -18.45,-18.44 0,-10.19 8.26,-18.45 18.45,-18.45 10.18,0 18.44,8.26 18.44,18.45 0,10.18 -8.26,18.44 -18.44,18.44zm-231.12 -92.54c-10.19,0 -18.45,-8.26 -18.45,-18.45 0,-10.19 8.26,-18.45 18.45,-18.45 10.18,0 18.44,8.26 18.44,18.45 0,10.19 -8.26,18.45 -18.44,18.45zm77.04 0c-10.19,0 -18.45,-8.26 -18.45,-18.45 0,-10.19 8.26,-18.45 18.45,-18.45 10.18,0 18.44,8.26 18.44,18.45 0,10.19 -8.26,18.45 -18.44,18.45zm-77.04 -92.55c-10.19,0 -18.45,-8.26 -18.45,-18.44 0,-10.19 8.26,-18.45 18.45,-18.45 10.18,0 18.44,8.26 18.44,18.45 0,10.18 -8.26,18.44 -18.44,18.44zm77.04 0c-10.19,0 -18.45,-8.26 -18.45,-18.44 0,-10.19 8.26,-18.45 18.45,-18.45 10.18,0 18.44,8.26 18.44,18.45 0,10.18 -8.26,18.44 -18.44,18.44zm-77.04 -92.55c-10.19,0 -18.45,-8.26 -18.45,-18.44 0,-10.19 8.26,-18.45 18.45,-18.45 10.18,0 18.44,8.26 18.44,18.45 0,10.18 -8.26,18.44 -18.44,18.44zm77.04 0c-10.19,0 -18.45,-8.26 -18.45,-18.44 0,-10.19 8.26,-18.45 18.45,-18.45 10.18,0 18.44,8.26 18.44,18.45 0,10.18 -8.26,18.44 -18.44,18.44zm981.38 1206.6l34.74 0 0 42.73 -34.74 0 0 -42.73zm132.03 0l34.74 0 0 42.73 -34.74 0 0 -42.73zm132.03 0l34.74 0 0 42.73 -34.74 0 0 -42.73zm-264.05 -123.23l34.74 0 0 42.73 -34.74 0 0 -42.73zm132.03 0l34.74 0 0 42.73 -34.74 0 0 -42.73zm132.03 0l34.74 0 0 42.73 -34.74 0 0 -42.73zm-264.05 -123.22l34.74 0 0 42.73 -34.74 0 0 -42.73zm132.03 0l34.74 0 0 42.73 -34.74 0 0 -42.73zm132.03 0l34.74 0 0 42.73 -34.74 0 0 -42.73zm-264.05 -123.23l34.74 0 0 42.73 -34.74 0 0 -42.73zm132.03 -123.23l34.74 0 0 42.73 -34.74 0 0 -42.73zm808.63 -392.75l22.15 0 0 857.52 -22.15 0 0 -857.52zm91.37 0l22.16 0 0 857.52 -22.16 0 0 -857.52zm212.61 -11.77c-13.77,0 -24.92,-14.07 -24.92,-31.42 0,-17.36 11.15,-31.42 24.92,-31.42 13.76,0 24.91,14.06 24.91,31.42 0,17.36 -11.15,31.42 -24.91,31.42zm887.02 986.94l149.88 0 0 -315.82 -149.88 0 0 315.82zm-75.21 -932.61l21.69 0 0 932.61 -21.69 0 0 -932.61zm746.59 451.4l487.22 0 0 12.64 -487.22 0 0 -12.64zm0 385.39l487.22 0 0 12.64 -487.22 0 0 -12.64zm0 -48.18l487.22 0 0 12.64 -487.22 0 0 -12.64zm0 -48.17l487.22 0 0 12.63 -487.22 0 0 -12.63zm0 -48.18l487.22 0 0 12.64 -487.22 0 0 -12.64zm0 -48.17l487.22 0 0 12.64 -487.22 0 0 -12.64zm0 -48.18l487.22 0 0 12.64 -487.22 0 0 -12.64zm0 -48.18l487.22 0 0 12.64 -487.22 0 0 -12.64zm0 -48.17l487.22 0 0 12.63 -487.22 0 0 -12.63zm1070.69 377.98l20.9 0 0 -788.78 -20.9 0 0 788.78zm532.8 0l20.9 0 0 -788.78 -20.9 0 0 788.78zm-88.8 0l20.9 0 0 -788.78 -20.9 0 0 788.78zm-88.79 0l20.9 0 0 -788.78 -20.9 0 0 788.78zm-88.8 0l20.9 0 0 -788.78 -20.9 0 0 788.78zm-88.8 0l20.9 0 0 -788.78 -20.9 0 0 788.78zm-88.8 0l20.9 0 0 -788.78 -20.9 0 0 788.78z"/>
 </g>
</svg>
