<?xml version="1.0" encoding="UTF-8"?>
<!DOCTYPE svg PUBLIC "-//W3C//DTD SVG 1.1//EN" "http://www.w3.org/Graphics/SVG/1.1/DTD/svg11.dtd">
<!-- Creator: CorelDRAW -->
<svg xmlns="http://www.w3.org/2000/svg" xml:space="preserve" width="26.4053in" height="2.24767in" version="1.1" style="shape-rendering:geometricPrecision; text-rendering:geometricPrecision; image-rendering:optimizeQuality; fill-rule:evenodd; clip-rule:evenodd"
viewBox="0 0 17905.35 1524.14"
 xmlns:xlink="http://www.w3.org/1999/xlink"
 xmlns:xodm="http://www.corel.com/coreldraw/odm/2003">
 <defs>
  <style type="text/css">
   <![CDATA[
    .fil0 {fill:white}
   ]]>
  </style>
 </defs>
 <g id="Layer_x0020_1">
  <metadata id="CorelCorpID_0Corel-Layer"/>
  <path class="fil0" d="M8952.67 1476.77l37.21 -18.89 0 -158.78 59.04 0 0 77.35 59.75 0 0 30.34 17.72 0 0 14.02 17.07 0 0 39.78 58.62 -29.77 50.47 25.63 106.77 -4.96 0 -306.65 80.2 -80.51 80.22 81.01 0 343.66 103.27 0 0 -19.93 113.05 0 21.37 19.53 21.37 0.2 0 -157.7 16.04 0 5.22 -2.66 0 -14.89 18.93 0 9.39 -78.17 13.98 76.95 17.79 0 0 17.47 17.94 0 0 158.92 81.29 0 0 -238.27 316.85 0 0 101.84 92.73 0 0 78.5 224.7 54.43 0 -119.77 27.97 -107.61 10.31 0 10.16 -73.35 7.62 0 6.02 -109.25 9.49 108.98 6.2 0 11.61 73.26 9.31 0 26.5 106.53 0 27.57 85.54 0 0 -101.07 69.1 0 0 187.18 175.86 0 5.85 -36.4 112.57 8.33 35.06 27.8 48.43 0 0 -262.39 164.62 0 0 135.32 137.3 0 0 -134.67 79.19 0 0 283.09 120.11 0 0 -120.19 99.08 6.28 0 138.32 27.73 0 0 -88.95 74.34 4.63 0 84.37 65.18 0 -18.64 -200.58 61.25 24.21 21.59 176.36 14.69 0 -7.96 -79.33 17.82 0 0 -277.02 31.82 0 0 -56.78 29.13 0 0 -37.46 24.18 0 8.1 -101.14 6.4 100.63 20.88 0 0 37.16 31.34 0 0 57.79 32.1 0 0 81.95c68.95,-11.53 130.98,7.97 130.98,45.96l0 198.77 41.53 20.13 25.05 -61.7 27.6 -3.39 17.68 -43.66 72.16 4.94 12.98 -40.97 89.99 -2.47 0 79.44c28.18,-4.6 54.24,2.61 55.43,15.96l8.03 0 0 -166.85 119.99 0 0 140.47 90.02 0 0 83.58 70.82 0 0 -367.7c32.05,-14.49 62.23,-13.62 90.87,0l0 227.06 55.17 0 0 38.21 46.18 0 0 32.34 39.92 0 0 31.84 121.06 0 0 24.88 48.5 0 0 16.74 34.8 0 0 -457.57 140.26 0 0 68.78 43.14 0 0 34.9 61.2 0 0 143.32 40.4 0 111.5 0 0 210.85 62.37 0 0 -90.77 95 -45.3 85.56 46.91 0 90.37 104.52 0 0 -233.11 226.79 0 0 44.98 55.09 0 0 45.21 71.62 0 0 141.65 116.91 0 0 -367.22 90.67 0 0 229.91 49.5 0 0 72.53 60.23 0 0 -302.43 151.07 0 0 296.5 54.85 0 0 -276.73 28.32 -54.89 -4.7 0 19.03 -87.62 19.04 87.62 -4.7 0 28.32 54.89 0 347.49 210.75 0 72.18 -261.04 141.61 0.62 64.16 261.03 0 -389.1 16.8 45.1 56.57 -0.23 16.81 -44.87 0 260.75 104.99 0 0 -87.6 9.65 19.16 36.49 0 9.65 -19.16 0 110.18 107.3 0 0 62.78 127.63 0 11.45 19.83 43.7 0.22 0 -165.91 380.23 0 0 91.63 70.95 0 0 54.38 52.55 0 0 -413.16 77.54 -40.67 0 294.77 55.87 0 0 161.17 76.57 0 0 21.15 24.88 0 0 -293.1 449.72 0 0 122.24 132.44 0 0 107.05 92.76 0 65.45 -27.79 68.45 30.43 60.85 0 0 31.93 71.01 0 0 -1474.73 -17905.35 0 0 1476.77 37.21 -18.89 0 -158.78 59.05 0 0 77.35 59.74 0 0 30.34 17.72 0 0 14.02 17.08 0 0 39.78 58.62 -29.77 50.47 25.63 106.77 -4.96 0 -306.65 80.21 -80.51 80.21 81.01 0 343.66 103.27 0 0 -19.93 113.06 0 21.37 19.53 21.37 0.2 0 -157.7 16.03 0 5.22 -2.66 0 -14.89 18.93 0 9.39 -78.17 13.99 76.95 17.78 0 0 17.47 17.94 0 0 158.92 81.29 0 0 -238.27 316.85 0 0 101.84 92.74 0 0 78.5 224.7 54.43 0 -119.77 27.97 -107.61 10.3 0 10.16 -73.35 7.63 0 6.01 -109.25 9.5 108.98 6.2 0 11.61 73.26 9.3 0 26.51 106.53 0 27.58 85.54 0 0 -101.08 69.09 0 0 187.18 175.87 0 5.85 -36.4 112.57 8.33 35.06 27.8 48.43 0 0 -262.39 164.62 0 0 135.32 137.3 0 0 -134.67 79.18 0 0 283.09 120.11 0 0 -120.19 99.08 6.28 0 138.32 27.74 0 0 -88.95 74.33 4.63 0 84.37 65.18 0 -18.63 -200.58 61.26 24.21 21.59 176.36 14.69 0 -7.97 -79.33 17.83 0 0 -277.02 31.81 0 0 -56.78 29.14 0 0 -37.46 24.17 0 8.1 -101.14 6.4 100.63 20.87 0 0 37.16 31.35 0 0 57.79 32.1 0 0 81.95c68.94,-11.53 130.98,7.97 130.98,45.96l0 198.77 41.53 20.13 25.06 -61.7 27.6 -3.39 17.68 -43.66 72.16 4.94 12.97 -40.97 90 -2.47 0 79.44c28.18,-4.6 54.25,2.61 55.43,15.96l8.03 0 0 -166.85 120 0 0 140.47 90.02 0 0 83.57 70.82 0 0 -367.69c32.05,-14.49 62.24,-13.62 90.87,0l0 227.06 55.17 0 0 38.21 46.19 0 0 32.34 39.92 0 0 31.84 121.06 0 0 24.88 48.49 0 0 16.74 34.81 0 0 -457.57 140.26 0 0 68.78 43.14 0 0 34.9 61.2 0 0 143.32 40.39 0 111.5 0 0 210.85 62.37 0 0 -90.77 95 -45.3 85.56 46.91 0 90.37 104.52 0 0 -233.11 226.79 0 0 44.98 55.09 0 0 45.21 71.62 0 0 141.65 116.92 0 0 -511.24 90.66 0 0 373.93 49.51 0 0 72.53 60.22 0 0 -302.43 151.07 0 0 296.5 54.85 0 0 -276.73 28.31 -54.89 -4.69 0 19.03 -87.62 19.03 87.62 -4.69 0 28.31 54.89 0 347.49 210.75 0 72.19 -261.04 141.61 0.62 64.16 261.03 0 -389.1 16.8 45.1 56.58 -0.23 16.79 -44.87 0 260.75 105 0 0 -87.6 9.66 19.16 36.49 0 9.65 -19.16 0 110.18 107.3 0 0 62.78 127.62 0 11.46 19.83 43.69 0.22 0 -165.91 380.23 0 0 91.63 70.95 0 0 54.38 52.54 0 0 -413.16 77.54 -40.67 0 294.77 55.87 0 0 161.17 76.56 0 0 21.15 24.88 0 0 -293.1 449.73 0 0 122.24 132.43 0 0 107.07 92.76 0 65.46 -27.8 68.45 30.43 60.84 0 0 31.93 71.01 0 0 2.04z"/>
 </g>
</svg>
