<?xml version="1.0" encoding="UTF-8"?>
<!DOCTYPE svg PUBLIC "-//W3C//DTD SVG 1.1//EN" "http://www.w3.org/Graphics/SVG/1.1/DTD/svg11.dtd">
<!-- Creator: CorelDRAW -->
<svg xmlns="http://www.w3.org/2000/svg" xml:space="preserve" width="10.3207in" height="1.00551in" version="1.1" style="shape-rendering:geometricPrecision; text-rendering:geometricPrecision; image-rendering:optimizeQuality; fill-rule:evenodd; clip-rule:evenodd"
viewBox="0 0 1494.52 145.61"
 xmlns:xlink="http://www.w3.org/1999/xlink"
 xmlns:xodm="http://www.corel.com/coreldraw/odm/2003">
 <defs>
  <style type="text/css">
   <![CDATA[
    .fil0 {fill:none}
    .fil2 {fill:#0D1325}
    .fil1 {fill:#336699}
    .fil3 {fill:white;fill-rule:nonzero}
   ]]>
  </style>
 </defs>
 <g id="Layer_x0020_1">
  <metadata id="CorelCorpID_0Corel-Layer"/>
  <polygon class="fil0" points="-0,145.61 1494.52,145.61 1494.52,0 -0,0 "/>
  <path class="fil1" d="M25.6 95.04l-3.27 0 0 -13.33 -14.3 0 0 10.13 4.99 0 0 4.99 1.48 0 0 2.3 1.43 0 0 6.54 4.89 -4.89 4.21 4.21 8.91 -0.82 0 -21.2 -1.97 0 0 -37.73 -1.74 -5.96 -1.74 5.96 0 54.94 -2.89 0 0 -5.14zm36.69 -25.23l-14.96 0 0 40.53 8.62 0 0 -3.28 9.44 0 1.78 3.21 1.78 0.03 0 -24.01 -6.67 0 0 -16.48zm12.38 4.58l6.51 0 2.85 26.28 0 9.63 -2.85 0 -3.93 0 0 -26.12 -1.5 0 0 -2.87 -1.48 0 -0.16 -1.7 0.57 -5.21zm17.83 -3.26l4.45 0 0 -9.66c-1.48,-1.26 -2.96,-1.25 -4.45,0l0 9.66zm38.21 29.1l0 -25.91c-1.28,-4.57 -7.24,-4.94 -8.59,0l0 25.91 -3.91 0 0 0.54 18.76 8.95 0 -8.78 0 -10.72 -0.45 0 -0.54 4.59 -1.55 0 -1.04 5.42 -2.68 0zm17.59 -23.44l5.67 0 0 17.54 -5.67 0 0 -17.54zm43.55 22.1l-8.3 0 0 1.5 -1.01 0 0 -34.44 0.06 0 -1.45 -6.68 0.35 0 -1.01 -9.47 -1.01 9.47 0.35 0 -1.45 6.68 0 30.92 -2.8 0 0 -34.25 -7.52 0 0 34.79 -2.79 0 0 -8.4 -2.27 0 0 -47.12 -4.46 0 0 35.84 1.76 0 0 30.76 14.68 0 0.49 -5.98 9.4 1.37 2.93 4.57 4.04 0 0 -9.54zm13.74 -0.16l2.45 0 0 -5.71 9.01 0 0 22.98 -11.46 0 0 -17.26zm2.45 -11.18l0 -16.38 9.01 0 0 16.38 -9.01 0zm19.59 -4.22l-3.97 0 0 28.62 10.03 0 0 -15.75 -2.81 0 0 -8.98 -2.59 0 0 12.73 -0.65 0 0 -16.62zm27.52 16.53l-0.88 0 0 -22.59 -5.87 0 0 -18.5 -2.14 -11.63 -3.02 0 -2.14 11.63 0 34.35 0.84 0.11 0 22.73 2.32 0 0 -14.62 6.2 0.76 0 13.86 5.44 0 -0.76 -16.11zm4.52 -9.67l3.65 4.45 0 8.29 -1.49 0 0.67 13.04 -1.23 0 -1.6 -25.78 0 0zm34.48 -47.09l-6.77 0 0 29.41c1.39,1.39 2.23,3.42 2.23,5.94l0 32.67 3.47 3.31 2.09 -10.14 2.3 -0.56 1.48 -7.18 0.36 0.05 0 -41.78 -3.15 0 0 -3.75 -2.01 0 0 -7.98zm-7.91 16.9l0 11.58c-1.18,-0.77 -2.6,-1.19 -4.14,-1.22l0 -10.36 0.6 3.99 2.95 0 0.59 -3.99zm32.03 24.8l-1.33 -12.62 -0.53 0 -0.52 -8.62 -0.22 0 -0.3 -11.77 -0.3 11.77 -0.22 0 -0.52 8.62 -0.53 0 -1.33 12.62 0 5.49 1.09 -0.06 0 13.06c2.35,-0.76 4.53,0.43 4.63,2.62l0.67 0 0 -8.91 -0.6 0 0 -12.21zm10.62 15.36l2.19 0 0 -14.05 4.54 0.76 0 13.3 1.77 0 0 -7.5 3.36 0 0 7.5 1.56 0 0 15.15 -5.91 0 0 -13.74 -7.51 0 0 -1.42zm29.47 3.64l2.34 0 0.99 0 0 5.23 10.1 0 0 4.09 4.05 0 0 2.75 2.91 0 0 -23.49 -0.85 0 0 5.8 -10.64 -5.63 0 7.55 -0.82 0 0 -9.19 0 -3.37 0 -11.63 -2.89 0 0 11.63 -5.19 0 0 10.93 0 5.31zm43.99 -48.46l1.77 -5.14 1.77 5.14 0 25.92 -3.53 0 0 -25.92zm9.5 44.74l2.45 0 0 -19.96 21.89 0 0 16.56 4.67 0 0 19.44 -8.72 0 0 -14.85 -7.14 -7.71 -7.93 7.45 0 14.92 -5.21 0 0 -15.84zm68.27 0.23l-6.91 0 0 -1.94 -2.29 0 0 -26.12c-1.41,-1.31 -2.82,-1.35 -4.23,0l0 20.38 3.67 0 0 23.28 9.76 0 0 -15.6zm11.7 -0.15l4.13 0 0 -15.4 0.9 -2 0 22.51 -5.03 0 0 -5.11zm17.64 0.03l4.58 0 0 4.1 -4.58 0 0 -4.1zm11.7 0.25l1.04 0 0 -12.86 5.54 0 0 12.86 4.76 0 0 -48.16 4.14 0 0 47.54 2.27 0 0 0.62 2.02 0 -2.17 15.48 -17.59 0 0 -15.48zm23.45 -26.23l-2.38 0 0 16.96 2.38 -16.96 0 0zm8.35 -1.11l1.25 -12.56 1.25 12.56 -2.5 0zm8.99 27.12l-1.97 0 1.97 15.8 0 -15.8zm7.53 0.02l3.61 0 0 -1.91 4.2 0 0 1.91 0.95 0 0 15.78 -8.76 0 0 -15.78zm32 0.13l0.58 0 0 -2.41 2.63 0 0 2.41 2.42 0 0 11.89 -3.65 -0.04 -0.96 -3.26 -10.65 0 0 -10.32 -8.96 0 0 -16.89 14.08 0 0 11.97 4.5 0 0 6.65zm-19.57 -16.69l0 -1.93 0.67 0 -0.49 1.93 -0.18 0zm32.71 -14.26l1.78 -9.71 4.08 0 1.78 9.71 0 15.57 -7.64 0 0 -15.57zm24.23 18.1l10.31 0 0 21.47 -4.39 0 0 -8.94 -5.92 0 0 -12.53zm21.05 -4.67l-3.68 0 0 -8.2 3.68 0 0 8.2zm0.4 17.32l1.16 0 0 -46.64 6.19 0 0 8.03 2.31 0 0 3.08 -1.2 0 0 48.17 -2.08 0 0 -3.48 -6.39 0 0 -9.17zm57.06 -9.72l2.91 2.58 0 7.26 7.27 0 -2.44 2.04 -7.74 0 0 -11.87zm29.93 9.82l-7.01 0 0 -2.06 0 -11.64 -2.93 0 0 11.64 -4.94 0 0 1.15 3.88 3.39 5.08 0 0 5.25 5.93 0 0 -7.74zm25.6 -5.21l-3.27 0 0 -13.33 -14.3 0 0 10.13 4.99 0 0 4.99 1.48 0 0 2.3 1.42 0 0 6.54 4.89 -4.89 4.21 4.21 8.91 -0.82 0 -21.2 -1.97 0 0 -37.73 -1.74 -5.96 -1.74 5.96 0 54.94 -2.89 0 0 -5.14zm36.69 -25.23l-14.96 0 0 40.53 8.62 0 0 -3.28 9.44 0 1.78 3.21 1.78 0.03 0 -24.01 -6.67 0 0 -16.48zm12.38 4.58l6.51 0 2.85 26.28 0 9.63 -2.85 0 -3.93 0 0 -26.12 -1.5 0 0 -2.87 -1.48 0 -0.16 -1.7 0.57 -5.21zm17.83 -3.26l4.45 0 0 -9.66c-1.48,-1.26 -2.96,-1.25 -4.45,0l0 9.66zm38.21 29.1l0 -25.91c-1.28,-4.57 -7.24,-4.94 -8.59,0l0 25.91 -3.91 0 0 0.54 18.76 8.95 0 -8.78 0 -10.72 -0.45 0 -0.54 4.59 -1.56 0 -1.04 5.42 -2.68 0zm17.59 -23.44l5.67 0 0 17.54 -5.67 0 0 -17.54zm43.55 22.1l-8.3 0 0 1.5 -1.01 0 0 -34.44 0.06 0 -1.45 -6.68 0.35 0 -1.01 -9.47 -1.01 9.47 0.35 0 -1.45 6.68 0 30.92 -2.8 0 0 -34.25 -7.52 0 0 34.79 -2.79 0 0 -8.4 -2.27 0 0 -47.12 -4.46 0 0 35.84 1.76 0 0 30.76 14.68 0 0.49 -5.98 9.4 1.37 2.93 4.57 4.04 0 0 -9.54zm13.74 -0.16l2.45 0 0 -5.71 9.01 0 0 22.98 -11.46 0 0 -17.26zm2.45 -11.18l0 -16.38 9.01 0 0 16.38 -9.01 0zm19.59 -4.22l-3.97 0 0 28.62 10.03 0 0 -15.75 -2.81 0 0 -8.98 -2.59 0 0 12.73 -0.65 0 0 -16.62zm27.52 16.53l-0.88 0 0 -22.59 -5.87 0 0 -18.5 -2.14 -11.63 -3.02 0 -2.14 11.63 0 34.35 0.84 0.11 0 22.73 2.31 0 0 -14.62 6.21 0.76 0 13.86 5.44 0 -0.76 -16.11zm4.52 -9.67l3.65 4.45 0 8.29 -1.49 0 0.66 13.04 -1.23 0 -1.6 -25.78 0 0zm34.48 -47.09l-6.77 0 0 29.41c1.39,1.39 2.23,3.42 2.23,5.94l0 32.67 3.47 3.31 2.09 -10.14 2.3 -0.56 1.48 -7.18 0.36 0.05 0 -41.78 -3.15 0 0 -3.75 -2.01 0 0 -7.98zm-7.91 16.9l0 11.58c-1.18,-0.77 -2.6,-1.19 -4.14,-1.22l0 -10.36 0.59 3.99 2.95 0 0.59 -3.99zm32.03 24.8l-1.33 -12.62 -0.53 0 -0.52 -8.62 -0.22 0 -0.3 -11.77 -0.3 11.77 -0.22 0 -0.52 8.62 -0.53 0 -1.33 12.62 0 5.49 1.09 -0.06 0 13.06c2.35,-0.76 4.53,0.43 4.63,2.62l0.67 0 0 -8.91 -0.6 0 0 -12.21zm10.62 15.36l2.19 0 0 -14.05 4.54 0.76 0 13.3 1.77 0 0 -7.5 3.36 0 0 7.5 1.56 0 0 15.15 -5.91 0 0 -13.74 -7.51 0 0 -1.42zm29.47 3.64l2.34 0 0.99 0 0 5.23 10.1 0 0 4.09 4.05 0 0 2.75 2.91 0 0 -23.49 -0.85 0 0 5.8 -10.64 -5.63 0 7.55 -0.82 0 0 -9.19 0 -3.37 0 -11.63 -2.89 0 0 11.63 -5.19 0 0 10.93 0 5.31zm43.99 -48.46l1.77 -5.14 1.77 5.14 0 25.92 -3.53 0 0 -25.92zm9.5 44.74l2.45 0 0 -19.96 21.89 0 0 16.56 4.67 0 0 19.44 -8.72 0 0 -14.85 -7.14 -7.71 -7.93 7.45 0 14.92 -5.21 0 0 -15.84zm68.27 0.23l-6.91 0 0 -1.94 -2.29 0 0 -26.12c-1.41,-1.31 -2.82,-1.35 -4.23,0l0 20.38 3.67 0 0 23.28 9.76 0 0 -15.6zm11.7 -0.15l4.13 0 0 -15.4 0.9 -2 0 22.51 -5.03 0 0 -5.11zm17.64 0.03l4.58 0 0 4.1 -4.58 0 0 -4.1zm11.7 0.25l1.04 0 0 -12.86 5.54 0 0 12.86 4.76 0 0 -48.16 4.14 0 0 47.54 2.27 0 0 0.62 2.02 0 -2.17 15.48 -17.59 0 0 -15.48zm23.45 -26.23l-2.38 0 0 16.96 2.38 -16.96 0 0zm8.35 -1.11l1.25 -12.56 1.25 12.56 -2.5 0zm8.99 27.12l-1.97 0 1.97 15.8 0 -15.8zm7.53 0.02l3.61 0 0 -1.91 4.19 0 0 1.91 0.96 0 0 15.78 -8.76 0 0 -15.78zm32 0.13l0.58 0 0 -2.41 2.63 0 0 2.41 2.42 0 0 11.89 -3.65 -0.04 -0.96 -3.26 -10.65 0 0 -10.32 -8.96 0 0 -16.89 14.08 0 0 11.97 4.5 0 0 6.65zm-19.57 -16.69l0 -1.93 0.67 0 -0.49 1.93 -0.18 0zm32.71 -14.26l1.78 -9.71 4.08 0 1.78 9.71 0 15.57 -7.64 0 0 -15.57zm24.23 18.1l10.31 0 0 21.47 -4.39 0 0 -8.94 -5.92 0 0 -12.53zm21.05 -4.67l-3.68 0 0 -8.2 3.68 0 0 8.2zm0.4 17.32l1.16 0 0 -46.64 6.19 0 0 8.03 2.31 0 0 3.08 -1.2 0 0 48.17 -2.08 0 0 -3.48 -6.39 0 0 -9.17zm57.06 -9.72l2.91 2.58 0 7.26 7.27 0 -2.44 2.04 -7.74 0 0 -11.87zm29.92 9.82l-7.01 0 0 -2.06 0 -11.64 -2.93 0 0 11.64 -4.94 0 0 1.15 3.88 3.39 5.08 0 0 5.25 5.93 0 0 -7.74z"/>
  <path class="fil2" d="M747.26 108.33l3.11 -3.11 0 -26.1 4.93 0 0 12.71 4.99 0 0 4.99 1.48 0 0 2.3 1.42 0 0 6.54 4.89 -4.89 4.21 4.21 8.91 -0.82 0 -50.4 6.69 -13.23 6.7 13.31 0 56.48 8.62 0 0 -3.28 9.44 0 1.78 3.21 1.78 0.03 0 -25.92 1.34 0 0.44 -0.44 0 -2.45 1.58 0 0.78 -12.85 1.17 12.65 1.48 0 0 2.87 1.5 0 0 26.12 6.79 0 0 -39.16 26.45 0 0 16.74 7.74 0 0 12.9 18.76 8.95 0 -19.68 2.33 -17.69 0.86 0 0.85 -12.06 0.64 0 0.5 -17.96 0.79 17.91 0.52 0 0.97 12.04 0.78 0 2.21 17.51 0 4.53 7.14 0 0 -16.61 5.77 0 0 30.76 14.68 0 0.49 -5.98 9.4 1.37 2.93 4.57 4.04 0 0 -43.13 13.74 0 0 22.24 11.46 0 0 -22.13 6.61 0 0 46.53 10.03 0 0 -19.76 8.27 1.03 0 22.73 2.31 0 0 -14.62 6.21 0.76 0 13.86 5.44 0 -1.56 -32.97 5.11 3.98 1.8 28.99 1.23 0 -0.66 -13.04 1.49 0 0 -45.53 2.66 0 0 -9.33 2.43 0 0 -6.15 2.02 0 0.68 -16.62 0.53 16.54 1.74 0 0 6.11 2.62 0 0 9.5 2.68 0 0 13.47c5.75,-1.9 10.93,1.31 10.93,7.55l0 32.67 3.47 3.31 2.09 -10.14 2.3 -0.56 1.48 -7.18 6.02 0.81 1.08 -6.73 7.51 -0.41 0 13.06c2.35,-0.76 4.53,0.43 4.63,2.62l0.67 0 0 -27.42 10.02 0 0 23.09 7.51 0 0 13.74 5.91 0 0 -60.43c2.67,-2.38 5.19,-2.24 7.58,0l0 37.32 4.6 0 0 6.28 3.85 0 0 5.31 3.33 0 0 5.23 10.1 0 0 4.09 4.05 0 0 2.75 2.9 0 0 -83.98 11.71 0 0 11.31 3.6 0 0 5.74 5.11 0 0 32.34 3.37 0 9.31 0 0 34.66 5.21 0 0 -14.92 7.93 -7.45 7.14 7.71 0 14.85 8.72 0 0 -38.31 18.93 0 0 7.39 4.6 0 0 7.43 5.98 0 0 23.28 9.76 0 0 -84.02 7.57 0 0 61.46 4.13 0 0 11.92 5.03 0 0 -49.7 12.61 0 0 48.73 4.58 0 0 -45.48 2.36 -9.02 -0.39 0 1.59 -14.4 1.59 14.4 -0.39 0 2.36 9.02 0 57.11 17.59 0 6.02 -42.9 11.82 0.1 5.36 42.9 0 -63.95 1.4 7.41 4.72 -0.04 1.4 -7.37 0 42.86 8.76 0 0 -14.4 0.81 3.15 3.05 0 0.81 -3.15 0 18.11 8.96 0 0 10.32 10.65 0 0.96 3.26 3.65 0.04 0 -27.27 31.74 0 0 15.06 5.92 0 0 8.94 4.39 0 0 -67.91 6.47 -6.68 0 48.45 4.66 0 0 26.49 6.39 0 0 3.48 2.08 0 0 -48.17 37.54 0 0 20.09 11.05 0 0 17.6 7.74 0 5.46 -4.57 5.71 5 5.08 0 0 5.25 5.93 0 0 37.62 -1494.52 0 0 -37.28 3.11 -3.11 0 -26.1 4.93 0 0 12.71 4.99 0 0 4.99 1.48 0 0 2.3 1.43 0 0 6.54 4.89 -4.89 4.21 4.21 8.91 -0.82 0 -50.4 6.69 -13.23 6.69 13.31 0 56.48 8.62 0 0 -3.28 9.44 0 1.78 3.21 1.78 0.03 0 -25.92 1.34 0 0.44 -0.44 0 -2.45 1.58 0 0.78 -12.85 1.17 12.65 1.48 0 0 2.87 1.5 0 0 26.12 6.78 0 0 -39.16 26.45 0 0 16.74 7.74 0 0 12.9 18.76 8.95 0 -19.68 2.33 -17.69 0.86 0 0.85 -12.06 0.64 0 0.5 -17.96 0.79 17.91 0.52 0 0.97 12.04 0.78 0 2.21 17.51 0 4.53 7.14 0 0 -16.61 5.77 0 0 30.76 14.68 0 0.49 -5.98 9.4 1.37 2.93 4.57 4.04 0 0 -43.13 13.74 0 0 22.24 11.46 0 0 -22.13 6.61 0 0 46.53 10.03 0 0 -19.76 8.27 1.03 0 22.73 2.32 0 0 -14.62 6.2 0.76 0 13.86 5.44 0 -1.56 -32.97 5.11 3.98 1.8 28.99 1.23 0 -0.67 -13.04 1.49 0 0 -45.53 2.66 0 0 -9.33 2.43 0 0 -6.15 2.02 0 0.68 -16.62 0.53 16.54 1.74 0 0 6.11 2.62 0 0 9.5 2.68 0 0 13.47c5.75,-1.9 10.93,1.31 10.93,7.55l0 32.67 3.47 3.31 2.09 -10.14 2.3 -0.56 1.48 -7.18 6.02 0.81 1.08 -6.73 7.51 -0.41 0 13.06c2.35,-0.76 4.53,0.43 4.63,2.62l0.67 0 0 -27.42 10.02 0 0 23.09 7.51 0 0 13.74 5.91 0 0 -60.43c2.67,-2.38 5.19,-2.24 7.58,0l0 37.32 4.6 0 0 6.28 3.86 0 0 5.31 3.33 0 0 5.23 10.1 0 0 4.09 4.05 0 0 2.75 2.91 0 0 -83.98 11.71 0 0 11.31 3.6 0 0 5.74 5.11 0 0 32.34 3.37 0 9.31 0 0 34.66 5.21 0 0 -14.92 7.93 -7.45 7.14 7.71 0 14.85 8.72 0 0 -38.31 18.93 0 0 7.39 4.6 0 0 7.43 5.98 0 0 23.28 9.76 0 0 -84.02 7.57 0 0 61.46 4.13 0 0 11.92 5.03 0 0 -49.7 12.61 0 0 48.73 4.58 0 0 -45.48 2.36 -9.02 -0.39 0 1.59 -14.4 1.59 14.4 -0.39 0 2.36 9.02 0 57.11 17.59 0 6.03 -42.9 11.82 0.1 5.36 42.9 0 -63.95 1.4 7.41 4.72 -0.04 1.4 -7.37 0 42.86 8.76 0 0 -14.4 0.81 3.15 3.05 0 0.81 -3.15 0 18.11 8.96 0 0 10.32 10.65 0 0.96 3.26 3.65 0.04 0 -27.27 31.74 0 0 15.06 5.92 0 0 8.94 4.39 0 0 -67.91 6.47 -6.68 0 48.45 4.66 0 0 26.49 6.39 0 0 3.48 2.08 0 0 -48.17 37.54 0 0 20.09 11.05 0 0 17.6 7.74 0 5.46 -4.57 5.71 5 5.08 0 0 5.25 5.93 0 0 0.34zm-703.8 -6.71l1.98 0 0 2.31 -1.98 0 0 -2.31zm-3.83 0l1.98 0 0 2.31 -1.98 0 0 -2.31zm-3.83 0l1.98 0 0 2.31 -1.98 0 0 -2.31zm3.83 -4.66l1.98 0 0 2.31 -1.98 0 0 -2.31zm-3.83 0l1.98 0 0 2.31 -1.98 0 0 -2.31zm7.66 -4.66l1.98 0 0 2.31 -1.98 0 0 -2.31zm-3.83 0l1.98 0 0 2.31 -1.98 0 0 -2.31zm-3.83 0l1.98 0 0 2.31 -1.98 0 0 -2.31zm7.66 -4.66l1.98 0 0 2.31 -1.98 0 0 -2.31zm-3.83 0l1.98 0 0 2.31 -1.98 0 0 -2.31zm-3.83 0l1.98 0 0 2.31 -1.98 0 0 -2.31zm7.66 -4.66l1.98 0 0 2.31 -1.98 0 0 -2.31zm-3.83 0l1.98 0 0 2.31 -1.98 0 0 -2.31zm-3.83 0l1.98 0 0 2.31 -1.98 0 0 -2.31zm7.66 -4.66l1.98 0 0 2.31 -1.98 0 0 -2.31zm-3.83 0l1.98 0 0 2.31 -1.98 0 0 -2.31zm-3.83 0l1.98 0 0 2.31 -1.98 0 0 -2.31zm7.66 -4.66l1.98 0 0 2.31 -1.98 0 0 -2.31zm-3.83 0l1.98 0 0 2.31 -1.98 0 0 -2.31zm-3.83 0l1.98 0 0 2.31 -1.98 0 0 -2.31zm7.66 -4.66l1.98 0 0 2.31 -1.98 0 0 -2.31zm-3.83 0l1.98 0 0 2.31 -1.98 0 0 -2.31zm-3.83 0l1.98 0 0 2.31 -1.98 0 0 -2.31zm7.66 -4.66l1.98 0 0 2.31 -1.98 0 0 -2.31zm-3.83 0l1.98 0 0 2.31 -1.98 0 0 -2.31zm3.83 -4.66l1.98 0 0 2.31 -1.98 0 0 -2.31zm-3.83 0l1.98 0 0 2.31 -1.98 0 0 -2.31zm-3.83 0l1.98 0 0 2.31 -1.98 0 0 -2.31zm7.66 -4.66l1.98 0 0 2.31 -1.98 0 0 -2.31zm-3.83 0l1.98 0 0 2.31 -1.98 0 0 -2.31zm-3.83 0l1.98 0 0 2.31 -1.98 0 0 -2.31zm49.15 18.96l24.59 0 0 1.06 -24.59 0 0 -1.06zm0 32.68l24.59 0 0 1.06 -24.59 0 0 -1.06zm0 -3.63l24.59 0 0 1.06 -24.59 0 0 -1.06zm0 -3.63l24.59 0 0 1.06 -24.59 0 0 -1.06zm0 -3.63l24.59 0 0 1.06 -24.59 0 0 -1.06zm0 -3.63l24.59 0 0 1.06 -24.59 0 0 -1.06zm0 -3.63l24.59 0 0 1.06 -24.59 0 0 -1.06zm0 -3.63l24.59 0 0 1.06 -24.59 0 0 -1.06zm0 -3.63l24.59 0 0 1.06 -24.59 0 0 -1.06zm0 -3.63l24.59 0 0 1.06 -24.59 0 0 -1.06zm116.89 -10.25l1.19 0 0 43.16 -1.19 0 0 -43.16zm-2.47 0l1.19 0 0 43.16 -1.19 0 0 -43.16zm-2.47 0l1.19 0 0 43.16 -1.19 0 0 -43.16zm-2.47 0l1.19 0 0 43.16 -1.19 0 0 -43.16zm11.17 25.66l11.46 0 0 22.98 -11.46 0 0 -22.98zm61.49 17.34l1.86 0 0 2.06 -1.86 0 0 -2.06zm6.19 0l1.87 0 0 2.06 -1.87 0 0 -2.06zm-6.19 -6.2l1.86 0 0 2.06 -1.86 0 0 -2.06zm6.19 0l1.87 0 0 2.06 -1.87 0 0 -2.06zm-6.19 -6.2l1.86 0 0 2.06 -1.86 0 0 -2.06zm6.19 0l1.87 0 0 2.06 -1.87 0 0 -2.06zm-6.19 -6.2l1.86 0 0 2.06 -1.86 0 0 -2.06zm0 -6.2l1.86 0 0 2.06 -1.86 0 0 -2.06zm6.19 0l1.87 0 0 2.06 -1.87 0 0 -2.06zm-6.19 -6.2l1.86 0 0 2.06 -1.86 0 0 -2.06zm6.19 0l1.87 0 0 2.06 -1.87 0 0 -2.06zm-6.19 -6.2l1.86 0 0 2.06 -1.86 0 0 -2.06zm6.19 0l1.87 0 0 2.06 -1.87 0 0 -2.06zm-6.19 -6.2l1.86 0 0 2.06 -1.86 -2.06zm6.19 0l1.87 0 0 2.06 -1.87 0 0 -2.06zm-6.19 -6.2l1.86 0 0 2.06 -1.86 0 0 -2.06zm6.19 0l1.87 0 0 2.06 -1.87 0 0 -2.06zm109.65 49.83c-0.6,0 -1.08,-0.48 -1.08,-1.08 0,-0.6 0.48,-1.08 1.08,-1.08 0.6,0 1.08,0.48 1.08,1.08 0,0.6 -0.48,1.08 -1.08,1.08zm4.5 0c-0.6,0 -1.08,-0.48 -1.08,-1.08 0,-0.6 0.48,-1.08 1.08,-1.08 0.6,0 1.08,0.48 1.08,1.08 0,0.6 -0.48,1.08 -1.08,1.08zm4.51 0c-0.6,0 -1.08,-0.48 -1.08,-1.08 0,-0.6 0.48,-1.08 1.08,-1.08 0.6,0 1.08,0.48 1.08,1.08 0,0.6 -0.48,1.08 -1.08,1.08zm4.5 0c-0.6,0 -1.08,-0.48 -1.08,-1.08 0,-0.6 0.48,-1.08 1.08,-1.08 0.6,0 1.08,0.48 1.08,1.08 0,0.6 -0.48,1.08 -1.08,1.08zm-13.51 -5.41c-0.6,0 -1.08,-0.48 -1.08,-1.08 0,-0.6 0.48,-1.08 1.08,-1.08 0.6,0 1.08,0.48 1.08,1.08 0,0.6 -0.48,1.08 -1.08,1.08zm4.5 0c-0.6,0 -1.08,-0.48 -1.08,-1.08 0,-0.6 0.48,-1.08 1.08,-1.08 0.6,0 1.08,0.48 1.08,1.08 0,0.6 -0.48,1.08 -1.08,1.08zm4.51 0c-0.6,0 -1.08,-0.48 -1.08,-1.08 0,-0.6 0.48,-1.08 1.08,-1.08 0.6,0 1.08,0.48 1.08,1.08 0,0.6 -0.48,1.08 -1.08,1.08zm4.5 0c-0.6,0 -1.08,-0.48 -1.08,-1.08 0,-0.6 0.48,-1.08 1.08,-1.08 0.6,0 1.08,0.48 1.08,1.08 0,0.6 -0.48,1.08 -1.08,1.08zm-9.01 -5.41c-0.6,0 -1.08,-0.48 -1.08,-1.08 0,-0.6 0.48,-1.08 1.08,-1.08 0.6,0 1.08,0.48 1.08,1.08 0,0.6 -0.48,1.08 -1.08,1.08zm4.51 0c-0.6,0 -1.08,-0.48 -1.08,-1.08 0,-0.6 0.48,-1.08 1.08,-1.08 0.6,0 1.08,0.48 1.08,1.08 0,0.6 -0.48,1.08 -1.08,1.08zm4.5 0c-0.6,0 -1.08,-0.48 -1.08,-1.08 0,-0.6 0.48,-1.08 1.08,-1.08 0.6,0 1.08,0.48 1.08,1.08 0,0.6 -0.48,1.08 -1.08,1.08zm-13.51 -5.41c-0.6,0 -1.08,-0.48 -1.08,-1.08 0,-0.6 0.48,-1.08 1.08,-1.08 0.6,0 1.08,0.48 1.08,1.08 0,0.6 -0.48,1.08 -1.08,1.08zm4.5 0c-0.6,0 -1.08,-0.48 -1.08,-1.08 0,-0.6 0.48,-1.08 1.08,-1.08 0.6,0 1.08,0.48 1.08,1.08 0,0.6 -0.48,1.08 -1.08,1.08zm4.51 0c-0.6,0 -1.08,-0.48 -1.08,-1.08 0,-0.6 0.48,-1.08 1.08,-1.08 0.6,0 1.08,0.48 1.08,1.08 0,0.6 -0.48,1.08 -1.08,1.08zm4.5 0c-0.6,0 -1.08,-0.48 -1.08,-1.08 0,-0.6 0.48,-1.08 1.08,-1.08 0.6,0 1.08,0.48 1.08,1.08 0,0.6 -0.48,1.08 -1.08,1.08zm-13.51 -5.41c-0.6,0 -1.08,-0.48 -1.08,-1.08 0,-0.6 0.48,-1.08 1.08,-1.08 0.6,0 1.08,0.48 1.08,1.08 0,0.6 -0.48,1.08 -1.08,1.08zm4.5 0c-0.6,0 -1.08,-0.48 -1.08,-1.08 0,-0.6 0.48,-1.08 1.08,-1.08 0.6,0 1.08,0.48 1.08,1.08 0,0.6 -0.48,1.08 -1.08,1.08zm4.51 0c-0.6,0 -1.08,-0.48 -1.08,-1.08 0,-0.6 0.48,-1.08 1.08,-1.08 0.6,0 1.08,0.48 1.08,1.08 0,0.6 -0.48,1.08 -1.08,1.08zm4.5 0c-0.6,0 -1.08,-0.48 -1.08,-1.08 0,-0.6 0.48,-1.08 1.08,-1.08 0.6,0 1.08,0.48 1.08,1.08 0,0.6 -0.48,1.08 -1.08,1.08zm-13.51 -5.41c-0.6,0 -1.08,-0.48 -1.08,-1.08 0,-0.6 0.48,-1.08 1.08,-1.08 0.6,0 1.08,0.48 1.08,1.08 0,0.6 -0.48,1.08 -1.08,1.08zm4.5 0c-0.6,0 -1.08,-0.48 -1.08,-1.08 0,-0.6 0.48,-1.08 1.08,-1.08 0.6,0 1.08,0.48 1.08,1.08 0,0.6 -0.48,1.08 -1.08,1.08zm4.51 0c-0.6,0 -1.08,-0.48 -1.08,-1.08 0,-0.6 0.48,-1.08 1.08,-1.08 0.6,0 1.08,0.48 1.08,1.08 0,0.6 -0.48,1.08 -1.08,1.08zm4.5 0c-0.6,0 -1.08,-0.48 -1.08,-1.08 0,-0.6 0.48,-1.08 1.08,-1.08 0.6,0 1.08,0.48 1.08,1.08 0,0.6 -0.48,1.08 -1.08,1.08zm-13.51 -5.41c-0.6,0 -1.08,-0.48 -1.08,-1.08 0,-0.6 0.48,-1.08 1.08,-1.08 0.6,0 1.08,0.48 1.08,1.08 0,0.6 -0.48,1.08 -1.08,1.08zm9.01 0c-0.6,0 -1.08,-0.48 -1.08,-1.08 0,-0.6 0.48,-1.08 1.08,-1.08 0.6,0 1.08,0.48 1.08,1.08 0,0.6 -0.48,1.08 -1.08,1.08zm4.5 0c-0.6,0 -1.08,-0.48 -1.08,-1.08 0,-0.6 0.48,-1.08 1.08,-1.08 0.6,0 1.08,0.48 1.08,1.08 0,0.6 -0.48,1.08 -1.08,1.08zm-13.51 -5.41c-0.6,0 -1.08,-0.48 -1.08,-1.08 0,-0.6 0.48,-1.08 1.08,-1.08 0.6,0 1.08,0.48 1.08,1.08 0,0.6 -0.48,1.08 -1.08,1.08zm4.5 0c-0.6,0 -1.08,-0.48 -1.08,-1.08 0,-0.6 0.48,-1.08 1.08,-1.08 0.6,0 1.08,0.48 1.08,1.08 0,0.6 -0.48,1.08 -1.08,1.08zm4.51 0c-0.6,0 -1.08,-0.48 -1.08,-1.08 0,-0.6 0.48,-1.08 1.08,-1.08 0.6,0 1.08,0.48 1.08,1.08 0,0.6 -0.48,1.08 -1.08,1.08zm4.5 0c-0.6,0 -1.08,-0.48 -1.08,-1.08 0,-0.6 0.48,-1.08 1.08,-1.08 0.6,0 1.08,0.48 1.08,1.08 0,0.6 -0.48,1.08 -1.08,1.08zm-13.51 -5.41c-0.6,0 -1.08,-0.48 -1.08,-1.08 0,-0.6 0.48,-1.08 1.08,-1.08 0.6,0 1.08,0.48 1.08,1.08 0,0.6 -0.48,1.08 -1.08,1.08zm4.5 0c-0.6,0 -1.08,-0.48 -1.08,-1.08 0,-0.6 0.48,-1.08 1.08,-1.08 0.6,0 1.08,0.48 1.08,1.08 0,0.6 -0.48,1.08 -1.08,1.08zm4.51 0c-0.6,0 -1.08,-0.48 -1.08,-1.08 0,-0.6 0.48,-1.08 1.08,-1.08 0.6,0 1.08,0.48 1.08,1.08 0,0.6 -0.48,1.08 -1.08,1.08zm4.5 0c-0.6,0 -1.08,-0.48 -1.08,-1.08 0,-0.6 0.48,-1.08 1.08,-1.08 0.6,0 1.08,0.48 1.08,1.08 0,0.6 -0.48,1.08 -1.08,1.08zm-13.51 -5.41c-0.6,0 -1.08,-0.48 -1.08,-1.08 0,-0.6 0.48,-1.08 1.08,-1.08 0.6,0 1.08,0.48 1.08,1.08 0,0.6 -0.48,1.08 -1.08,1.08zm4.5 0c-0.6,0 -1.08,-0.48 -1.08,-1.08 0,-0.6 0.48,-1.08 1.08,-1.08 0.6,0 1.08,0.48 1.08,1.08 0,0.6 -0.48,1.08 -1.08,1.08zm4.51 0c-0.6,0 -1.08,-0.48 -1.08,-1.08 0,-0.6 0.48,-1.08 1.08,-1.08 0.6,0 1.08,0.48 1.08,1.08 0,0.6 -0.48,1.08 -1.08,1.08zm4.5 0c-0.6,0 -1.08,-0.48 -1.08,-1.08 0,-0.6 0.48,-1.08 1.08,-1.08 0.6,0 1.08,0.48 1.08,1.08 0,0.6 -0.48,1.08 -1.08,1.08zm-13.51 -5.41c-0.6,0 -1.08,-0.48 -1.08,-1.08 0,-0.6 0.48,-1.08 1.08,-1.08 0.6,0 1.08,0.48 1.08,1.08 0,0.6 -0.48,1.08 -1.08,1.08zm4.5 0c-0.6,0 -1.08,-0.48 -1.08,-1.08 0,-0.6 0.48,-1.08 1.08,-1.08 0.6,0 1.08,0.48 1.08,1.08 0,0.6 -0.48,1.08 -1.08,1.08zm9.01 0c-0.6,0 -1.08,-0.48 -1.08,-1.08 0,-0.6 0.48,-1.08 1.08,-1.08 0.6,0 1.08,0.48 1.08,1.08 0,0.6 -0.48,1.08 -1.08,1.08zm-13.51 -5.41c-0.6,0 -1.08,-0.48 -1.08,-1.08 0,-0.6 0.48,-1.08 1.08,-1.08 0.6,0 1.08,0.48 1.08,1.08 0,0.6 -0.48,1.08 -1.08,1.08zm4.5 0c-0.6,0 -1.08,-0.48 -1.08,-1.08 0,-0.6 0.48,-1.08 1.08,-1.08 0.6,0 1.08,0.48 1.08,1.08 0,0.6 -0.48,1.08 -1.08,1.08zm-4.5 -5.41c-0.6,0 -1.08,-0.48 -1.08,-1.08 0,-0.6 0.48,-1.08 1.08,-1.08 0.6,0 1.08,0.48 1.08,1.08 0,0.6 -0.48,1.08 -1.08,1.08zm4.5 0c-0.6,0 -1.08,-0.48 -1.08,-1.08 0,-0.6 0.48,-1.08 1.08,-1.08 0.6,0 1.08,0.48 1.08,1.08 0,0.6 -0.48,1.08 -1.08,1.08zm-4.5 -5.41c-0.6,0 -1.08,-0.48 -1.08,-1.08 0,-0.6 0.48,-1.08 1.08,-1.08 0.6,0 1.08,0.48 1.08,1.08 0,0.6 -0.48,1.08 -1.08,1.08zm4.5 0c-0.6,0 -1.08,-0.48 -1.08,-1.08 0,-0.6 0.48,-1.08 1.08,-1.08 0.6,0 1.08,0.48 1.08,1.08 0,0.6 -0.48,1.08 -1.08,1.08zm57.38 70.55l2.03 0 0 2.5 -2.03 0 0 -2.5zm7.72 0l2.03 0 0 2.5 -2.03 0 0 -2.5zm7.72 0l2.03 0 0 2.5 -2.03 0 0 -2.5zm-15.44 -7.21l2.03 0 0 2.5 -2.03 0 0 -2.5zm7.72 0l2.03 0 0 2.5 -2.03 0 0 -2.5zm7.72 0l2.03 0 0 2.5 -2.03 0 0 -2.5zm-15.44 -7.21l2.03 0 0 2.5 -2.03 0 0 -2.5zm7.72 0l2.03 0 0 2.5 -2.03 0 0 -2.5zm7.72 0l2.03 0 0 2.5 -2.03 0 0 -2.5zm-15.44 -7.21l2.03 0 0 2.5 -2.03 0 0 -2.5zm7.72 -7.21l2.03 0 0 2.5 -2.03 0 0 -2.5zm47.28 -22.97l1.3 0 0 50.14 -1.3 0 0 -50.14zm5.34 0l1.3 0 0 50.14 -1.3 0 0 -50.14zm12.43 -0.69c-0.8,0 -1.46,-0.82 -1.46,-1.84 0,-1.02 0.65,-1.84 1.46,-1.84 0.8,0 1.46,0.82 1.46,1.84 0,1.01 -0.65,1.84 -1.46,1.84zm51.87 57.71l8.76 0 0 -18.47 -8.76 0 0 18.47zm-4.4 -54.53l1.27 0 0 54.53 -1.27 0 0 -54.53zm43.65 26.39l28.49 0 0 0.74 -28.49 0 0 -0.74zm0 22.53l28.49 0 0 0.74 -28.49 0 0 -0.74zm0 -2.82l28.49 0 0 0.74 -28.49 0 0 -0.74zm0 -2.82l28.49 0 0 0.74 -28.49 0 0 -0.74zm0 -2.82l28.49 0 0 0.74 -28.49 0 0 -0.74zm0 -2.82l28.49 0 0 0.74 -28.49 0 0 -0.74zm0 -2.82l28.49 0 0 0.74 -28.49 0 0 -0.74zm0 -2.82l28.49 0 0 0.74 -28.49 0 0 -0.74zm0 -2.82l28.49 0 0 0.74 -28.49 0 0 -0.74zm62.6 22.1l1.22 0 0 -46.12 -1.22 0 0 46.12zm31.15 0l1.22 0 0 -46.12 -1.22 0 0 46.12zm-5.19 0l1.22 0 0 -46.12 -1.22 0 0 46.12zm-5.19 0l1.22 0 0 -46.12 -1.22 0 0 46.12zm-5.19 0l1.22 0 0 -46.12 -1.22 0 0 46.12zm-5.19 0l1.22 0 0 -46.12 -1.22 0 0 46.12zm-5.19 0l1.22 0 0 -46.12 -1.22 0 0 46.12zm114.21 -11.17l1.98 0 0 2.31 -1.98 0 0 -2.31zm-3.83 0l1.98 0 0 2.31 -1.98 0 0 -2.31zm-3.83 0l1.98 0 0 2.31 -1.98 0 0 -2.31zm3.83 -4.66l1.98 0 0 2.31 -1.98 0 0 -2.31zm-3.83 0l1.98 0 0 2.31 -1.98 0 0 -2.31zm7.66 -4.66l1.98 0 0 2.31 -1.98 0 0 -2.31zm-3.83 0l1.98 0 0 2.31 -1.98 0 0 -2.31zm-3.83 0l1.98 0 0 2.31 -1.98 0 0 -2.31zm7.66 -4.66l1.98 0 0 2.31 -1.98 0 0 -2.31zm-3.83 0l1.98 0 0 2.31 -1.98 0 0 -2.31zm-3.83 0l1.98 0 0 2.31 -1.98 0 0 -2.31zm7.66 -4.66l1.98 0 0 2.31 -1.98 0 0 -2.31zm-3.83 0l1.98 0 0 2.31 -1.98 0 0 -2.31zm-3.83 0l1.98 0 0 2.31 -1.98 0 0 -2.31zm7.66 -4.66l1.98 0 0 2.31 -1.98 0 0 -2.31zm-3.83 0l1.98 0 0 2.31 -1.98 0 0 -2.31zm-3.83 0l1.98 0 0 2.31 -1.98 0 0 -2.31zm7.66 -4.66l1.98 0 0 2.31 -1.98 0 0 -2.31zm-3.83 0l1.98 0 0 2.31 -1.98 0 0 -2.31zm-3.83 0l1.98 0 0 2.31 -1.98 0 0 -2.31zm7.66 -4.66l1.98 0 0 2.31 -1.98 0 0 -2.31zm-3.83 0l1.98 0 0 2.31 -1.98 0 0 -2.31zm-3.83 0l1.98 0 0 2.31 -1.98 0 0 -2.31zm7.66 -4.66l1.98 0 0 2.31 -1.98 0 0 -2.31zm-3.83 0l1.98 0 0 2.31 -1.98 0 0 -2.31zm3.83 -4.66l1.98 0 0 2.31 -1.98 0 0 -2.31zm-3.83 0l1.98 0 0 2.31 -1.98 0 0 -2.31zm-3.83 0l1.98 0 0 2.31 -1.98 0 0 -2.31zm7.66 -4.66l1.98 0 0 2.31 -1.98 0 0 -2.31zm-3.83 0l1.98 0 0 2.31 -1.98 0 0 -2.31zm-3.83 0l1.98 0 0 2.31 -1.98 0 0 -2.31zm49.15 18.96l24.59 0 0 1.06 -24.59 0 0 -1.06zm0 32.68l24.59 0 0 1.06 -24.59 0 0 -1.06zm0 -3.63l24.59 0 0 1.06 -24.59 0 0 -1.06zm0 -3.63l24.59 0 0 1.06 -24.59 0 0 -1.06zm0 -3.63l24.59 0 0 1.06 -24.59 0 0 -1.06zm0 -3.63l24.59 0 0 1.06 -24.59 0 0 -1.06zm0 -3.63l24.59 0 0 1.06 -24.59 0 0 -1.06zm0 -3.63l24.59 0 0 1.06 -24.59 0 0 -1.06zm0 -3.63l24.59 0 0 1.06 -24.59 0 0 -1.06zm0 -3.63l24.59 0 0 1.06 -24.59 0 0 -1.06zm116.89 -10.25l1.19 0 0 43.16 -1.19 0 0 -43.16zm-2.47 0l1.19 0 0 43.16 -1.19 0 0 -43.16zm-2.47 0l1.19 0 0 43.16 -1.19 0 0 -43.16zm-2.47 0l1.19 0 0 43.16 -1.19 0 0 -43.16zm11.17 25.66l11.46 0 0 22.98 -11.46 0 0 -22.98zm61.49 17.34l1.86 0 0 2.06 -1.86 0 0 -2.06zm6.19 0l1.86 0 0 2.06 -1.86 0 0 -2.06zm-6.19 -6.2l1.86 0 0 2.06 -1.86 0 0 -2.06zm6.19 0l1.86 0 0 2.06 -1.86 0 0 -2.06zm-6.19 -6.2l1.86 0 0 2.06 -1.86 0 0 -2.06zm6.19 0l1.86 0 0 2.06 -1.86 0 0 -2.06zm-6.19 -6.2l1.86 0 0 2.06 -1.86 0 0 -2.06zm0 -6.2l1.86 0 0 2.06 -1.86 0 0 -2.06zm6.19 0l1.86 0 0 2.06 -1.86 0 0 -2.06zm-6.19 -6.2l1.86 0 0 2.06 -1.86 0 0 -2.06zm6.19 0l1.86 0 0 2.06 -1.86 0 0 -2.06zm-6.19 -6.2l1.86 0 0 2.06 -1.86 0 0 -2.06zm6.19 0l1.86 0 0 2.06 -1.86 0 0 -2.06zm-6.19 -6.2l1.86 0 0 2.06 -1.86 -2.06zm6.19 0l1.86 0 0 2.06 -1.86 0 0 -2.06zm-6.19 -6.2l1.86 0 0 2.06 -1.86 0 0 -2.06zm6.19 0l1.86 0 0 2.06 -1.86 0 0 -2.06zm109.65 49.83c-0.6,0 -1.08,-0.48 -1.08,-1.08 0,-0.6 0.48,-1.08 1.08,-1.08 0.6,0 1.08,0.48 1.08,1.08 0,0.6 -0.48,1.08 -1.08,1.08zm4.5 0c-0.6,0 -1.08,-0.48 -1.08,-1.08 0,-0.6 0.48,-1.08 1.08,-1.08 0.6,0 1.08,0.48 1.08,1.08 0,0.6 -0.48,1.08 -1.08,1.08zm4.5 0c-0.6,0 -1.08,-0.48 -1.08,-1.08 0,-0.6 0.48,-1.08 1.08,-1.08 0.6,0 1.08,0.48 1.08,1.08 0,0.6 -0.48,1.08 -1.08,1.08zm4.51 0c-0.6,0 -1.08,-0.48 -1.08,-1.08 0,-0.6 0.48,-1.08 1.08,-1.08 0.6,0 1.08,0.48 1.08,1.08 0,0.6 -0.48,1.08 -1.08,1.08zm-13.51 -5.41c-0.6,0 -1.08,-0.48 -1.08,-1.08 0,-0.6 0.48,-1.08 1.08,-1.08 0.6,0 1.08,0.48 1.08,1.08 0,0.6 -0.48,1.08 -1.08,1.08zm4.5 0c-0.6,0 -1.08,-0.48 -1.08,-1.08 0,-0.6 0.48,-1.08 1.08,-1.08 0.6,0 1.08,0.48 1.08,1.08 0,0.6 -0.48,1.08 -1.08,1.08zm4.5 0c-0.6,0 -1.08,-0.48 -1.08,-1.08 0,-0.6 0.48,-1.08 1.08,-1.08 0.6,0 1.08,0.48 1.08,1.08 0,0.6 -0.48,1.08 -1.08,1.08zm4.51 0c-0.6,0 -1.08,-0.48 -1.08,-1.08 0,-0.6 0.48,-1.08 1.08,-1.08 0.6,0 1.08,0.48 1.08,1.08 0,0.6 -0.48,1.08 -1.08,1.08zm-9.01 -5.41c-0.6,0 -1.08,-0.48 -1.08,-1.08 0,-0.6 0.48,-1.08 1.08,-1.08 0.6,0 1.08,0.48 1.08,1.08 0,0.6 -0.48,1.08 -1.08,1.08zm4.5 0c-0.6,0 -1.08,-0.48 -1.08,-1.08 0,-0.6 0.48,-1.08 1.08,-1.08 0.6,0 1.08,0.48 1.08,1.08 0,0.6 -0.48,1.08 -1.08,1.08zm4.51 0c-0.6,0 -1.08,-0.48 -1.08,-1.08 0,-0.6 0.48,-1.08 1.08,-1.08 0.6,0 1.08,0.48 1.08,1.08 0,0.6 -0.48,1.08 -1.08,1.08zm-13.51 -5.41c-0.6,0 -1.08,-0.48 -1.08,-1.08 0,-0.6 0.48,-1.08 1.08,-1.08 0.6,0 1.08,0.48 1.08,1.08 0,0.6 -0.48,1.08 -1.08,1.08zm4.5 0c-0.6,0 -1.08,-0.48 -1.08,-1.08 0,-0.6 0.48,-1.08 1.08,-1.08 0.6,0 1.08,0.48 1.08,1.08 0,0.6 -0.48,1.08 -1.08,1.08zm4.5 0c-0.6,0 -1.08,-0.48 -1.08,-1.08 0,-0.6 0.48,-1.08 1.08,-1.08 0.6,0 1.08,0.48 1.08,1.08 0,0.6 -0.48,1.08 -1.08,1.08zm4.51 0c-0.6,0 -1.08,-0.48 -1.08,-1.08 0,-0.6 0.48,-1.08 1.08,-1.08 0.6,0 1.08,0.48 1.08,1.08 0,0.6 -0.48,1.08 -1.08,1.08zm-13.51 -5.41c-0.6,0 -1.08,-0.48 -1.08,-1.08 0,-0.6 0.48,-1.08 1.08,-1.08 0.6,0 1.08,0.48 1.08,1.08 0,0.6 -0.48,1.08 -1.08,1.08zm4.5 0c-0.6,0 -1.08,-0.48 -1.08,-1.08 0,-0.6 0.48,-1.08 1.08,-1.08 0.6,0 1.08,0.48 1.08,1.08 0,0.6 -0.48,1.08 -1.08,1.08zm4.5 0c-0.6,0 -1.08,-0.48 -1.08,-1.08 0,-0.6 0.48,-1.08 1.08,-1.08 0.6,0 1.08,0.48 1.08,1.08 0,0.6 -0.48,1.08 -1.08,1.08zm4.51 0c-0.6,0 -1.08,-0.48 -1.08,-1.08 0,-0.6 0.48,-1.08 1.08,-1.08 0.6,0 1.08,0.48 1.08,1.08 0,0.6 -0.48,1.08 -1.08,1.08zm-13.51 -5.41c-0.6,0 -1.08,-0.48 -1.08,-1.08 0,-0.6 0.48,-1.08 1.08,-1.08 0.6,0 1.08,0.48 1.08,1.08 0,0.6 -0.48,1.08 -1.08,1.08zm4.5 0c-0.6,0 -1.08,-0.48 -1.08,-1.08 0,-0.6 0.48,-1.08 1.08,-1.08 0.6,0 1.08,0.48 1.08,1.08 0,0.6 -0.48,1.08 -1.08,1.08zm4.5 0c-0.6,0 -1.08,-0.48 -1.08,-1.08 0,-0.6 0.48,-1.08 1.08,-1.08 0.6,0 1.08,0.48 1.08,1.08 0,0.6 -0.48,1.08 -1.08,1.08zm4.51 0c-0.6,0 -1.08,-0.48 -1.08,-1.08 0,-0.6 0.48,-1.08 1.08,-1.08 0.6,0 1.08,0.48 1.08,1.08 0,0.6 -0.48,1.08 -1.08,1.08zm-13.51 -5.41c-0.6,0 -1.08,-0.48 -1.08,-1.08 0,-0.6 0.48,-1.08 1.08,-1.08 0.6,0 1.08,0.48 1.08,1.08 0,0.6 -0.48,1.08 -1.08,1.08zm9.01 0c-0.6,0 -1.08,-0.48 -1.08,-1.08 0,-0.6 0.48,-1.08 1.08,-1.08 0.6,0 1.08,0.48 1.08,1.08 0,0.6 -0.48,1.08 -1.08,1.08zm4.51 0c-0.6,0 -1.08,-0.48 -1.08,-1.08 0,-0.6 0.48,-1.08 1.08,-1.08 0.6,0 1.08,0.48 1.08,1.08 0,0.6 -0.48,1.08 -1.08,1.08zm-13.51 -5.41c-0.6,0 -1.08,-0.48 -1.08,-1.08 0,-0.6 0.48,-1.08 1.08,-1.08 0.6,0 1.08,0.48 1.08,1.08 0,0.6 -0.48,1.08 -1.08,1.08zm4.5 0c-0.6,0 -1.08,-0.48 -1.08,-1.08 0,-0.6 0.48,-1.08 1.08,-1.08 0.6,0 1.08,0.48 1.08,1.08 0,0.6 -0.48,1.08 -1.08,1.08zm4.5 0c-0.6,0 -1.08,-0.48 -1.08,-1.08 0,-0.6 0.48,-1.08 1.08,-1.08 0.6,0 1.08,0.48 1.08,1.08 0,0.6 -0.48,1.08 -1.08,1.08zm4.51 0c-0.6,0 -1.08,-0.48 -1.08,-1.08 0,-0.6 0.48,-1.08 1.08,-1.08 0.6,0 1.08,0.48 1.08,1.08 0,0.6 -0.48,1.08 -1.08,1.08zm-13.51 -5.41c-0.6,0 -1.08,-0.48 -1.08,-1.08 0,-0.6 0.48,-1.08 1.08,-1.08 0.6,0 1.08,0.48 1.08,1.08 0,0.6 -0.48,1.08 -1.08,1.08zm4.5 0c-0.6,0 -1.08,-0.48 -1.08,-1.08 0,-0.6 0.48,-1.08 1.08,-1.08 0.6,0 1.08,0.48 1.08,1.08 0,0.6 -0.48,1.08 -1.08,1.08zm4.5 0c-0.6,0 -1.08,-0.48 -1.08,-1.08 0,-0.6 0.48,-1.08 1.08,-1.08 0.6,0 1.08,0.48 1.08,1.08 0,0.6 -0.48,1.08 -1.08,1.08zm4.51 0c-0.6,0 -1.08,-0.48 -1.08,-1.08 0,-0.6 0.48,-1.08 1.08,-1.08 0.6,0 1.08,0.48 1.08,1.08 0,0.6 -0.48,1.08 -1.08,1.08zm-13.51 -5.41c-0.6,0 -1.08,-0.48 -1.08,-1.08 0,-0.6 0.48,-1.08 1.08,-1.08 0.6,0 1.08,0.48 1.08,1.08 0,0.6 -0.48,1.08 -1.08,1.08zm4.5 0c-0.6,0 -1.08,-0.48 -1.08,-1.08 0,-0.6 0.48,-1.08 1.08,-1.08 0.6,0 1.08,0.48 1.08,1.08 0,0.6 -0.48,1.08 -1.08,1.08zm4.5 0c-0.6,0 -1.08,-0.48 -1.08,-1.08 0,-0.6 0.48,-1.08 1.08,-1.08 0.6,0 1.08,0.48 1.08,1.08 0,0.6 -0.48,1.08 -1.08,1.08zm4.51 0c-0.6,0 -1.08,-0.48 -1.08,-1.08 0,-0.6 0.48,-1.08 1.08,-1.08 0.6,0 1.08,0.48 1.08,1.08 0,0.6 -0.48,1.08 -1.08,1.08zm-13.51 -5.41c-0.6,0 -1.08,-0.48 -1.08,-1.08 0,-0.6 0.48,-1.08 1.08,-1.08 0.6,0 1.08,0.48 1.08,1.08 0,0.6 -0.48,1.08 -1.08,1.08zm4.5 0c-0.6,0 -1.08,-0.48 -1.08,-1.08 0,-0.6 0.48,-1.08 1.08,-1.08 0.6,0 1.08,0.48 1.08,1.08 0,0.6 -0.48,1.08 -1.08,1.08zm9.01 0c-0.6,0 -1.08,-0.48 -1.08,-1.08 0,-0.6 0.48,-1.08 1.08,-1.08 0.6,0 1.08,0.48 1.08,1.08 0,0.6 -0.48,1.08 -1.08,1.08zm-13.51 -5.41c-0.6,0 -1.08,-0.48 -1.08,-1.08 0,-0.6 0.48,-1.08 1.08,-1.08 0.6,0 1.08,0.48 1.08,1.08 0,0.6 -0.48,1.08 -1.08,1.08zm4.5 0c-0.6,0 -1.08,-0.48 -1.08,-1.08 0,-0.6 0.48,-1.08 1.08,-1.08 0.6,0 1.08,0.48 1.08,1.08 0,0.6 -0.48,1.08 -1.08,1.08zm-4.5 -5.41c-0.6,0 -1.08,-0.48 -1.08,-1.08 0,-0.6 0.48,-1.08 1.08,-1.08 0.6,0 1.08,0.48 1.08,1.08 0,0.6 -0.48,1.08 -1.08,1.08zm4.5 0c-0.6,0 -1.08,-0.48 -1.08,-1.08 0,-0.6 0.48,-1.08 1.08,-1.08 0.6,0 1.08,0.48 1.08,1.08 0,0.6 -0.48,1.08 -1.08,1.08zm-4.5 -5.41c-0.6,0 -1.08,-0.48 -1.08,-1.08 0,-0.6 0.48,-1.08 1.08,-1.08 0.6,0 1.08,0.48 1.08,1.08 0,0.6 -0.48,1.08 -1.08,1.08zm4.5 0c-0.6,0 -1.08,-0.48 -1.08,-1.08 0,-0.6 0.48,-1.08 1.08,-1.08 0.6,0 1.08,0.48 1.08,1.08 0,0.6 -0.48,1.08 -1.08,1.08zm57.38 70.55l2.03 0 0 2.5 -2.03 0 0 -2.5zm7.72 0l2.03 0 0 2.5 -2.03 0 0 -2.5zm7.72 0l2.03 0 0 2.5 -2.03 0 0 -2.5zm-15.44 -7.21l2.03 0 0 2.5 -2.03 0 0 -2.5zm7.72 0l2.03 0 0 2.5 -2.03 0 0 -2.5zm7.72 0l2.03 0 0 2.5 -2.03 0 0 -2.5zm-15.44 -7.21l2.03 0 0 2.5 -2.03 0 0 -2.5zm7.72 0l2.03 0 0 2.5 -2.03 0 0 -2.5zm7.72 0l2.03 0 0 2.5 -2.03 0 0 -2.5zm-15.44 -7.21l2.03 0 0 2.5 -2.03 0 0 -2.5zm7.72 -7.21l2.03 0 0 2.5 -2.03 0 0 -2.5zm47.28 -22.97l1.3 0 0 50.14 -1.3 0 0 -50.14zm5.34 0l1.3 0 0 50.14 -1.3 0 0 -50.14zm12.43 -0.69c-0.8,0 -1.46,-0.82 -1.46,-1.84 0,-1.02 0.65,-1.84 1.46,-1.84 0.8,0 1.46,0.82 1.46,1.84 0,1.01 -0.65,1.84 -1.46,1.84zm51.87 57.71l8.76 0 0 -18.47 -8.76 0 0 18.47zm-4.4 -54.53l1.27 0 0 54.53 -1.27 0 0 -54.53zm43.65 26.39l28.49 0 0 0.74 -28.49 0 0 -0.74zm0 22.53l28.49 0 0 0.74 -28.49 0 0 -0.74zm0 -2.82l28.49 0 0 0.74 -28.49 0 0 -0.74zm0 -2.82l28.49 0 0 0.74 -28.49 0 0 -0.74zm0 -2.82l28.49 0 0 0.74 -28.49 0 0 -0.74zm0 -2.82l28.49 0 0 0.74 -28.49 0 0 -0.74zm0 -2.82l28.49 0 0 0.74 -28.49 0 0 -0.74zm0 -2.82l28.49 0 0 0.74 -28.49 0 0 -0.74zm0 -2.82l28.49 0 0 0.74 -28.49 0 0 -0.74zm62.61 22.1l1.22 0 0 -46.12 -1.22 0 0 46.12zm31.15 0l1.22 0 0 -46.12 -1.22 0 0 46.12zm-5.19 0l1.22 0 0 -46.12 -1.22 0 0 46.12zm-5.19 0l1.22 0 0 -46.12 -1.22 0 0 46.12zm-5.19 0l1.22 0 0 -46.12 -1.22 0 0 46.12zm-5.19 0l1.22 0 0 -46.12 -1.22 0 0 46.12zm-5.19 0l1.22 0 0 -46.12 -1.22 0 0 46.12z"/>
  <path class="fil3" d="M596.76 17.1c0,0.38 -0.06,0.72 -0.18,1.04 -0.12,0.32 -0.28,0.59 -0.49,0.82 -0.21,0.23 -0.46,0.41 -0.76,0.54 -0.29,0.13 -0.61,0.2 -0.96,0.2 -0.35,0 -0.67,-0.05 -0.96,-0.16 -0.29,-0.11 -0.54,-0.27 -0.75,-0.49 -0.21,-0.22 -0.37,-0.5 -0.49,-0.84 -0.12,-0.33 -0.18,-0.73 -0.18,-1.18l0 -5.74 1.27 0 0 5.74c0,0.27 0.03,0.5 0.08,0.69 0.06,0.19 0.13,0.34 0.23,0.46 0.1,0.12 0.21,0.2 0.35,0.26 0.14,0.05 0.28,0.08 0.45,0.08 0.18,0 0.34,-0.04 0.48,-0.11 0.14,-0.07 0.25,-0.17 0.35,-0.31 0.09,-0.13 0.16,-0.29 0.21,-0.47 0.05,-0.18 0.07,-0.39 0.07,-0.61l0 -0.3c0,-0.24 -0.04,-0.47 -0.12,-0.69 -0.08,-0.22 -0.2,-0.42 -0.35,-0.61 -0.08,-0.1 -0.15,-0.2 -0.22,-0.3 -0.07,-0.1 -0.14,-0.2 -0.19,-0.3 -0.05,-0.1 -0.1,-0.2 -0.13,-0.31 -0.04,-0.11 -0.05,-0.21 -0.05,-0.32 0,-0.09 0.01,-0.17 0.02,-0.26 0.01,-0.09 0.04,-0.18 0.07,-0.27 0.03,-0.09 0.08,-0.19 0.13,-0.3 0.05,-0.11 0.13,-0.22 0.21,-0.35l1.33 0.37c-0.03,0.04 -0.07,0.08 -0.1,0.12 -0.03,0.04 -0.07,0.08 -0.1,0.12 -0.03,0.04 -0.06,0.07 -0.08,0.1 -0.02,0.03 -0.04,0.05 -0.04,0.06 -0.06,0.09 -0.11,0.16 -0.15,0.22 -0.03,0.06 -0.05,0.13 -0.05,0.2 0,0.12 0.05,0.24 0.15,0.38 0.1,0.14 0.21,0.28 0.34,0.42l-0.01 0c0.19,0.22 0.34,0.46 0.46,0.72 0.12,0.26 0.17,0.56 0.17,0.91l0 0.47zm5.76 0.05c0,1.7 -0.8,2.55 -2.39,2.55 -0.39,0 -0.74,-0.07 -1.04,-0.2 -0.3,-0.13 -0.54,-0.31 -0.75,-0.54 -0.2,-0.23 -0.35,-0.49 -0.45,-0.79 -0.1,-0.3 -0.15,-0.62 -0.15,-0.96l0 -0.35c0,-0.12 0.02,-0.25 0.05,-0.38 0.04,-0.13 0.09,-0.27 0.15,-0.41 0.07,-0.14 0.14,-0.28 0.23,-0.43 0.09,-0.15 0.18,-0.29 0.29,-0.44l0.97 0.48c-0.14,0.26 -0.24,0.5 -0.31,0.71 -0.07,0.21 -0.11,0.37 -0.11,0.47l0 0.38c0,0.21 0.02,0.39 0.06,0.55 0.04,0.16 0.1,0.29 0.19,0.4 0.09,0.11 0.2,0.19 0.34,0.24 0.14,0.05 0.31,0.08 0.52,0.08 0.19,0 0.36,-0.03 0.5,-0.07 0.14,-0.05 0.25,-0.13 0.34,-0.24 0.09,-0.11 0.16,-0.26 0.2,-0.43 0.05,-0.18 0.07,-0.4 0.07,-0.66l0 -0.58c0,-0.22 -0.03,-0.42 -0.09,-0.61 -0.06,-0.19 -0.14,-0.36 -0.24,-0.52 -0.1,-0.16 -0.21,-0.31 -0.34,-0.46 -0.13,-0.15 -0.26,-0.29 -0.39,-0.43 -0.15,-0.16 -0.3,-0.32 -0.44,-0.48 -0.14,-0.16 -0.27,-0.34 -0.38,-0.52 -0.11,-0.18 -0.2,-0.38 -0.27,-0.6 -0.07,-0.22 -0.1,-0.46 -0.1,-0.72l0 -0.89 1.23 0 0 0.89c0,0.16 0.03,0.31 0.08,0.45 0.05,0.14 0.12,0.28 0.21,0.41 0.09,0.13 0.19,0.26 0.31,0.39 0.12,0.13 0.24,0.26 0.36,0.39l0 -0.01c0.17,0.18 0.33,0.36 0.49,0.54 0.16,0.19 0.31,0.39 0.44,0.61 0.13,0.22 0.23,0.45 0.31,0.71 0.08,0.26 0.12,0.54 0.12,0.85l0 0.61zm5.76 0.51c0,0.33 -0.06,0.62 -0.18,0.87 -0.12,0.25 -0.29,0.46 -0.5,0.64 -0.21,0.17 -0.46,0.31 -0.75,0.4 -0.29,0.09 -0.6,0.14 -0.94,0.14 -0.34,0 -0.65,-0.05 -0.94,-0.15 -0.29,-0.1 -0.54,-0.24 -0.76,-0.42 -0.22,-0.18 -0.38,-0.4 -0.51,-0.66 -0.12,-0.26 -0.18,-0.55 -0.18,-0.87l0 -0.2c0,-0.15 0.04,-0.3 0.13,-0.46 0.08,-0.15 0.21,-0.3 0.37,-0.44l1.02 0.45c-0.16,0.25 -0.24,0.48 -0.24,0.7 0,0.27 0.09,0.48 0.26,0.64 0.17,0.15 0.46,0.23 0.85,0.23 0.16,0 0.31,-0.02 0.45,-0.05 0.14,-0.04 0.25,-0.09 0.35,-0.15 0.1,-0.07 0.17,-0.15 0.23,-0.25 0.05,-0.1 0.08,-0.22 0.08,-0.35l0 -2.36c0,-0.11 -0.02,-0.24 -0.05,-0.4 -0.03,-0.16 -0.1,-0.31 -0.19,-0.45 -0.09,-0.15 -0.23,-0.27 -0.4,-0.37 -0.17,-0.1 -0.39,-0.15 -0.66,-0.15 -0.14,0 -0.25,0.02 -0.34,0.05 -0.08,0.04 -0.15,0.08 -0.19,0.13 -0.05,0.05 -0.07,0.11 -0.09,0.17 -0.01,0.06 -0.02,0.12 -0.02,0.17 0,0.13 0.02,0.24 0.07,0.34 0.05,0.1 0.11,0.2 0.19,0.29l-0.86 0.52c-0.12,-0.07 -0.22,-0.14 -0.3,-0.23 -0.08,-0.09 -0.14,-0.19 -0.19,-0.29 -0.05,-0.1 -0.08,-0.21 -0.11,-0.32 -0.02,-0.11 -0.03,-0.21 -0.03,-0.31 0,-0.24 0.04,-0.47 0.12,-0.67 0.08,-0.21 0.2,-0.38 0.36,-0.54 0.16,-0.15 0.35,-0.27 0.58,-0.35 0.23,-0.08 0.5,-0.13 0.79,-0.13 0.28,0 0.53,0.05 0.76,0.16 0.22,0.11 0.42,0.25 0.6,0.42l0 -1 -1.02 0 0 -1.13 2.24 0 0 6.37zm5.93 -0.51c0,1.7 -0.8,2.55 -2.39,2.55 -0.39,0 -0.74,-0.07 -1.04,-0.2 -0.3,-0.13 -0.54,-0.31 -0.75,-0.54 -0.2,-0.23 -0.35,-0.49 -0.45,-0.79 -0.1,-0.3 -0.15,-0.62 -0.15,-0.96l0 -0.35c0,-0.12 0.02,-0.25 0.05,-0.38 0.04,-0.13 0.09,-0.27 0.15,-0.41 0.07,-0.14 0.14,-0.28 0.23,-0.43 0.09,-0.15 0.18,-0.29 0.29,-0.44l0.97 0.48c-0.14,0.26 -0.24,0.5 -0.31,0.71 -0.07,0.21 -0.11,0.37 -0.11,0.47l0 0.38c0,0.21 0.02,0.39 0.06,0.55 0.04,0.16 0.1,0.29 0.19,0.4 0.09,0.11 0.2,0.19 0.34,0.24 0.14,0.05 0.31,0.08 0.52,0.08 0.19,0 0.36,-0.03 0.5,-0.07 0.14,-0.05 0.25,-0.13 0.34,-0.24 0.09,-0.11 0.16,-0.26 0.2,-0.43 0.05,-0.18 0.07,-0.4 0.07,-0.66l0 -0.58c0,-0.22 -0.03,-0.42 -0.09,-0.61 -0.06,-0.19 -0.14,-0.36 -0.24,-0.52 -0.1,-0.16 -0.21,-0.31 -0.34,-0.46 -0.13,-0.15 -0.26,-0.29 -0.39,-0.43 -0.15,-0.16 -0.3,-0.32 -0.44,-0.48 -0.14,-0.16 -0.27,-0.34 -0.38,-0.52 -0.11,-0.18 -0.2,-0.38 -0.27,-0.6 -0.07,-0.22 -0.1,-0.46 -0.1,-0.72l0 -0.89 1.23 0 0 0.89c0,0.16 0.03,0.31 0.08,0.45 0.05,0.14 0.12,0.28 0.21,0.41 0.09,0.13 0.19,0.26 0.31,0.39 0.12,0.13 0.23,0.26 0.36,0.39l0 -0.01c0.17,0.18 0.33,0.36 0.49,0.54 0.16,0.19 0.31,0.39 0.44,0.61 0.13,0.22 0.23,0.45 0.31,0.71 0.08,0.26 0.12,0.54 0.12,0.85l0 0.61zm8.83 -0.19c0,0.17 -0.03,0.35 -0.09,0.55 -0.06,0.2 -0.15,0.4 -0.26,0.6 -0.11,0.21 -0.25,0.4 -0.41,0.6 -0.16,0.19 -0.34,0.36 -0.53,0.51 -0.2,0.15 -0.41,0.27 -0.64,0.36 -0.23,0.09 -0.47,0.13 -0.73,0.13l0 -1.19c0.19,0 0.37,-0.05 0.54,-0.16 0.17,-0.11 0.31,-0.24 0.44,-0.39 0.13,-0.15 0.22,-0.32 0.3,-0.5 0.07,-0.18 0.11,-0.35 0.11,-0.51l0 -0.78c0,-0.29 -0.03,-0.52 -0.1,-0.7 -0.07,-0.18 -0.15,-0.33 -0.26,-0.43 -0.1,-0.1 -0.21,-0.18 -0.33,-0.21 -0.11,-0.04 -0.22,-0.06 -0.31,-0.06 -0.11,0 -0.22,0.02 -0.34,0.06 -0.12,0.04 -0.23,0.11 -0.33,0.21 -0.1,0.1 -0.18,0.23 -0.25,0.39 -0.06,0.16 -0.1,0.37 -0.1,0.61l0 1.43 -1.28 0 0 -1.43c0,-0.24 -0.03,-0.45 -0.1,-0.61 -0.06,-0.16 -0.15,-0.3 -0.24,-0.39 -0.1,-0.1 -0.2,-0.17 -0.32,-0.21 -0.12,-0.04 -0.23,-0.06 -0.33,-0.06 -0.12,0 -0.25,0.02 -0.37,0.06 -0.12,0.04 -0.23,0.11 -0.32,0.21 -0.09,0.11 -0.17,0.25 -0.23,0.43 -0.06,0.18 -0.09,0.42 -0.09,0.7l0 0.81c0,0.15 0.03,0.32 0.1,0.49 0.06,0.18 0.16,0.34 0.28,0.5 0.12,0.15 0.27,0.28 0.44,0.39 0.17,0.1 0.36,0.16 0.58,0.16l0 1.18c-0.3,0 -0.56,-0.05 -0.81,-0.14 -0.25,-0.09 -0.47,-0.21 -0.66,-0.36 -0.2,-0.15 -0.37,-0.32 -0.52,-0.52 -0.15,-0.2 -0.27,-0.4 -0.37,-0.6 -0.1,-0.21 -0.17,-0.41 -0.22,-0.61 -0.05,-0.2 -0.07,-0.38 -0.07,-0.54l0 -0.75c0,-0.4 0.03,-0.8 0.1,-1.19 0.07,-0.4 0.19,-0.78 0.36,-1.14 0.17,-0.36 0.4,-0.7 0.69,-1.01 0.29,-0.31 0.65,-0.58 1.09,-0.81 0.44,-0.23 0.97,-0.41 1.58,-0.54 0.61,-0.13 1.32,-0.2 2.13,-0.2l0 1.19c-1,0 -1.83,0.11 -2.5,0.34 -0.67,0.22 -1.19,0.53 -1.55,0.92l0.35 -0.08c0.15,0 0.3,0.01 0.46,0.04 0.15,0.03 0.31,0.07 0.45,0.14 0.15,0.07 0.28,0.17 0.42,0.28 0.13,0.12 0.25,0.28 0.36,0.47 0.11,-0.19 0.24,-0.34 0.38,-0.46 0.14,-0.12 0.27,-0.21 0.42,-0.28 0.14,-0.07 0.29,-0.12 0.43,-0.14 0.14,-0.03 0.28,-0.04 0.41,-0.04 0.29,0 0.57,0.04 0.84,0.13 0.27,0.09 0.52,0.23 0.73,0.43 0.21,0.2 0.38,0.46 0.51,0.78 0.13,0.32 0.19,0.72 0.19,1.18l0 0.77zm4.54 -3.38c0,-0.13 -0.02,-0.26 -0.06,-0.39 -0.04,-0.13 -0.1,-0.25 -0.18,-0.35 -0.08,-0.11 -0.19,-0.19 -0.33,-0.25 -0.13,-0.06 -0.3,-0.1 -0.49,-0.1 -0.22,0 -0.4,0.06 -0.54,0.18 -0.14,0.12 -0.25,0.28 -0.32,0.48 -0.08,0.2 -0.13,0.42 -0.15,0.66 -0.03,0.25 -0.04,0.49 -0.04,0.74l0 1.82c0,0.36 0.02,0.68 0.05,0.94 0.03,0.27 0.09,0.49 0.17,0.67 0.08,0.18 0.19,0.32 0.32,0.41 0.13,0.09 0.31,0.13 0.52,0.13 0.2,0 0.36,-0.04 0.49,-0.13 0.13,-0.09 0.24,-0.21 0.33,-0.38 0.08,-0.17 0.14,-0.37 0.18,-0.6 0.04,-0.23 0.06,-0.5 0.06,-0.8l0 -3.04zm4.35 2.51c0,0.28 -0.01,0.56 -0.05,0.84 -0.03,0.28 -0.08,0.56 -0.15,0.83 -0.07,0.27 -0.17,0.52 -0.29,0.76 -0.12,0.24 -0.27,0.44 -0.45,0.62 -0.18,0.18 -0.39,0.32 -0.64,0.42 -0.25,0.1 -0.54,0.15 -0.86,0.15l0 -1.18c0.23,0 0.42,-0.07 0.57,-0.2 0.15,-0.14 0.27,-0.31 0.36,-0.54 0.09,-0.22 0.15,-0.47 0.19,-0.76 0.03,-0.28 0.05,-0.58 0.05,-0.87l0 -1.48c0,-0.17 -0,-0.35 -0.01,-0.52 -0.01,-0.18 -0.02,-0.34 -0.04,-0.51 -0.02,-0.16 -0.05,-0.31 -0.08,-0.46 -0.04,-0.14 -0.09,-0.26 -0.16,-0.37 -0.07,-0.1 -0.15,-0.19 -0.25,-0.25 -0.1,-0.06 -0.22,-0.09 -0.36,-0.09 -0.22,0 -0.39,0.03 -0.51,0.1 -0.12,0.06 -0.21,0.15 -0.27,0.25 -0.06,0.1 -0.09,0.22 -0.1,0.35 -0.01,0.13 -0.02,0.26 -0.02,0.39l0 3c0,0.25 -0.02,0.51 -0.05,0.76 -0.03,0.25 -0.09,0.49 -0.17,0.72 -0.07,0.23 -0.17,0.45 -0.29,0.65 -0.12,0.2 -0.27,0.37 -0.44,0.52 -0.17,0.15 -0.37,0.26 -0.6,0.35 -0.23,0.08 -0.49,0.13 -0.78,0.13 -0.31,0 -0.59,-0.04 -0.82,-0.13 -0.24,-0.09 -0.44,-0.21 -0.61,-0.36 -0.17,-0.15 -0.31,-0.33 -0.43,-0.54 -0.12,-0.21 -0.21,-0.43 -0.28,-0.67 -0.07,-0.24 -0.12,-0.5 -0.15,-0.76 -0.03,-0.27 -0.04,-0.53 -0.04,-0.8l0 -2.1c0,-0.24 0.01,-0.49 0.04,-0.73 0.03,-0.24 0.08,-0.47 0.14,-0.69 0.07,-0.22 0.16,-0.43 0.27,-0.62 0.11,-0.19 0.26,-0.36 0.43,-0.51 0.17,-0.15 0.37,-0.26 0.61,-0.34 0.24,-0.08 0.51,-0.13 0.82,-0.15 0.13,0 0.27,0.01 0.43,0.03 0.15,0.02 0.31,0.06 0.46,0.11 0.15,0.05 0.3,0.13 0.44,0.23 0.14,0.1 0.27,0.22 0.38,0.38 0.1,-0.17 0.2,-0.31 0.3,-0.41 0.11,-0.1 0.22,-0.18 0.35,-0.23 0.12,-0.05 0.26,-0.09 0.41,-0.1 0.14,-0.01 0.31,-0.02 0.48,-0.02 0.32,0 0.6,0.05 0.83,0.13 0.23,0.09 0.43,0.22 0.59,0.37 0.16,0.16 0.29,0.34 0.39,0.55 0.1,0.21 0.17,0.43 0.23,0.67 0.05,0.24 0.09,0.48 0.11,0.74 0.02,0.25 0.03,0.5 0.03,0.75l0 1.59zm5.93 1.52c0,0.28 -0.05,0.54 -0.15,0.79 -0.1,0.25 -0.25,0.47 -0.45,0.67 -0.2,0.19 -0.45,0.35 -0.74,0.46 -0.3,0.11 -0.64,0.17 -1.03,0.17 -0.39,0 -0.74,-0.06 -1.04,-0.19 -0.3,-0.12 -0.55,-0.28 -0.75,-0.48 -0.2,-0.2 -0.35,-0.41 -0.45,-0.66 -0.1,-0.25 -0.15,-0.49 -0.15,-0.73l0 -0.4c0,-0.11 0.01,-0.23 0.04,-0.35 0.02,-0.12 0.06,-0.25 0.12,-0.38 0.05,-0.13 0.12,-0.25 0.21,-0.37 0.08,-0.12 0.19,-0.24 0.31,-0.35l1.05 0.48c-0.19,0.2 -0.31,0.38 -0.36,0.54 -0.06,0.17 -0.09,0.32 -0.09,0.47l0 0.3c0,0.13 0.02,0.25 0.07,0.36 0.05,0.11 0.12,0.21 0.2,0.3 0.09,0.08 0.21,0.15 0.35,0.2 0.14,0.05 0.3,0.07 0.49,0.07 0.38,0 0.66,-0.08 0.84,-0.25 0.18,-0.17 0.27,-0.39 0.27,-0.67l0 -0.83c0,-0.09 -0.01,-0.19 -0.03,-0.31 -0.02,-0.11 -0.05,-0.22 -0.09,-0.32 -0.04,-0.1 -0.1,-0.18 -0.16,-0.25 -0.07,-0.07 -0.15,-0.1 -0.25,-0.1l-0.74 0 0 -1.18 0.74 0c0.11,0 0.19,-0.04 0.25,-0.12 0.06,-0.08 0.11,-0.18 0.14,-0.3 0.03,-0.12 0.06,-0.24 0.06,-0.36 0.01,-0.12 0.01,-0.23 0.01,-0.32l0 -0.23c0,-0.1 -0.02,-0.2 -0.06,-0.3 -0.04,-0.1 -0.1,-0.18 -0.18,-0.26 -0.08,-0.08 -0.18,-0.14 -0.31,-0.19 -0.13,-0.05 -0.28,-0.07 -0.45,-0.07 -0.15,0 -0.29,0.02 -0.4,0.07 -0.12,0.05 -0.22,0.1 -0.3,0.17 -0.08,0.07 -0.15,0.14 -0.19,0.22 -0.04,0.08 -0.07,0.16 -0.07,0.23l0 0.16c0,0.08 0,0.14 0.01,0.2 0,0.05 0.01,0.11 0.02,0.16 0.01,0.05 0.03,0.1 0.06,0.15 0.02,0.05 0.06,0.11 0.1,0.18l-0.93 0.51c-0.1,-0.12 -0.18,-0.23 -0.25,-0.33 -0.07,-0.09 -0.12,-0.18 -0.17,-0.27 -0.05,-0.08 -0.08,-0.17 -0.09,-0.26 -0.02,-0.09 -0.03,-0.19 -0.03,-0.3l0 -0.25c0,-0.21 0.05,-0.43 0.17,-0.64 0.11,-0.22 0.27,-0.42 0.46,-0.59 0.2,-0.18 0.44,-0.32 0.71,-0.43 0.27,-0.11 0.58,-0.17 0.91,-0.17 0.38,0 0.71,0.06 1,0.17 0.29,0.11 0.52,0.26 0.71,0.44 0.19,0.18 0.33,0.39 0.42,0.63 0.09,0.24 0.14,0.48 0.14,0.72l0 0.34c0,0.09 -0,0.2 -0.01,0.32 -0,0.13 -0.03,0.26 -0.07,0.41 -0.04,0.14 -0.11,0.29 -0.2,0.44 -0.09,0.15 -0.22,0.3 -0.4,0.44 0.18,0.13 0.32,0.26 0.42,0.39 0.1,0.14 0.17,0.27 0.21,0.41 0.04,0.14 0.07,0.27 0.08,0.4 0.01,0.13 0.01,0.25 0.01,0.37l0 0.83zm5.87 0.05c0,0.36 -0.07,0.67 -0.2,0.93 -0.13,0.26 -0.31,0.47 -0.52,0.64 -0.22,0.17 -0.47,0.29 -0.76,0.36 -0.29,0.08 -0.59,0.12 -0.9,0.12 -0.34,0 -0.67,-0.05 -0.96,-0.16 -0.29,-0.11 -0.54,-0.26 -0.76,-0.45 -0.21,-0.19 -0.38,-0.42 -0.5,-0.68 -0.12,-0.26 -0.18,-0.55 -0.18,-0.86 0,-0.22 0.01,-0.42 0.03,-0.58 0.02,-0.16 0.06,-0.31 0.1,-0.45 0.05,-0.14 0.12,-0.26 0.2,-0.38 0.08,-0.12 0.19,-0.25 0.32,-0.38l0.95 0.38c-0.08,0.1 -0.14,0.2 -0.18,0.3 -0.04,0.1 -0.08,0.2 -0.1,0.31 -0.02,0.11 -0.04,0.23 -0.04,0.37 -0.01,0.13 -0.01,0.29 -0.01,0.46 0,0.31 0.09,0.55 0.27,0.72 0.18,0.17 0.46,0.25 0.84,0.25 0.34,0 0.61,-0.08 0.81,-0.24 0.2,-0.16 0.3,-0.38 0.3,-0.65l0 -4.36c0,-0.24 -0.08,-0.43 -0.25,-0.57 -0.16,-0.15 -0.39,-0.22 -0.67,-0.22 -0.29,0 -0.53,0.07 -0.71,0.21 -0.18,0.14 -0.27,0.34 -0.27,0.59 0,0.09 0,0.19 0.01,0.28 0.01,0.09 0.04,0.21 0.09,0.35l-1 0.36c-0.06,-0.09 -0.11,-0.17 -0.16,-0.23 -0.04,-0.07 -0.08,-0.14 -0.1,-0.21 -0.03,-0.07 -0.05,-0.15 -0.06,-0.23 -0.01,-0.08 -0.02,-0.19 -0.02,-0.31 0,-0.3 0.05,-0.57 0.15,-0.81 0.1,-0.24 0.25,-0.45 0.44,-0.63 0.19,-0.18 0.41,-0.31 0.68,-0.4 0.27,-0.1 0.56,-0.14 0.89,-0.14 0.32,0 0.62,0.04 0.89,0.13 0.27,0.08 0.51,0.21 0.71,0.38 0.2,0.17 0.36,0.37 0.48,0.62 0.12,0.25 0.17,0.53 0.17,0.86l0 4.39zm11.22 -3.15c0,0.15 -0.02,0.33 -0.07,0.52 -0.04,0.19 -0.11,0.39 -0.19,0.59 -0.08,0.2 -0.18,0.41 -0.3,0.62 -0.12,0.21 -0.25,0.41 -0.38,0.59 -0.14,0.18 -0.29,0.35 -0.46,0.51 -0.16,0.16 -0.33,0.28 -0.51,0.38l-0.86 -0.78c0.23,-0.17 0.43,-0.36 0.61,-0.58 0.18,-0.22 0.33,-0.44 0.46,-0.67 0.13,-0.23 0.22,-0.45 0.29,-0.67 0.07,-0.22 0.1,-0.41 0.1,-0.57l0 -0.64c0,-0.21 -0.02,-0.4 -0.06,-0.56 -0.04,-0.16 -0.1,-0.3 -0.18,-0.41 -0.08,-0.11 -0.16,-0.19 -0.26,-0.24 -0.1,-0.06 -0.21,-0.08 -0.32,-0.08 -0.18,0 -0.33,0.03 -0.45,0.09 -0.12,0.06 -0.21,0.14 -0.27,0.25 -0.07,0.11 -0.11,0.23 -0.13,0.37 -0.02,0.14 -0.04,0.29 -0.04,0.45l0 1.54 -1.23 0 0 -1.54c0,-0.16 -0.01,-0.31 -0.03,-0.46 -0.02,-0.15 -0.06,-0.27 -0.11,-0.38 -0.06,-0.11 -0.13,-0.2 -0.23,-0.27 -0.1,-0.07 -0.23,-0.1 -0.39,-0.1 -0.15,0 -0.27,0.03 -0.37,0.1 -0.1,0.07 -0.18,0.15 -0.23,0.27 -0.06,0.11 -0.1,0.24 -0.13,0.38 -0.02,0.14 -0.04,0.28 -0.04,0.43l0 1.57 -1.24 0 0 -1.57c0,-0.14 -0.01,-0.28 -0.02,-0.42 -0.01,-0.14 -0.05,-0.26 -0.1,-0.36 -0.05,-0.1 -0.14,-0.18 -0.26,-0.25 -0.12,-0.06 -0.28,-0.09 -0.48,-0.09 -0.15,0 -0.28,0.04 -0.39,0.12 -0.1,0.08 -0.19,0.18 -0.26,0.31 -0.07,0.13 -0.12,0.29 -0.15,0.47 -0.03,0.18 -0.05,0.37 -0.05,0.57l0.01 0.71c-0,0.36 0.06,0.7 0.18,1.02 0.12,0.32 0.3,0.62 0.53,0.88 0.23,0.27 0.51,0.51 0.83,0.72 0.32,0.21 0.68,0.39 1.06,0.54 0.39,0.15 0.8,0.26 1.25,0.34 0.44,0.08 0.9,0.11 1.38,0.11l1.02 0 0 1.28 -0.99 0c-0.7,0 -1.35,-0.06 -1.94,-0.19 -0.6,-0.13 -1.13,-0.31 -1.62,-0.53 -0.48,-0.23 -0.91,-0.5 -1.27,-0.8 -0.37,-0.31 -0.67,-0.64 -0.92,-1.01 -0.25,-0.36 -0.44,-0.74 -0.57,-1.14 -0.13,-0.4 -0.2,-0.8 -0.21,-1.21l-0.01 -0.74c0,-0.37 0.04,-0.72 0.12,-1.04 0.08,-0.32 0.21,-0.6 0.38,-0.84 0.17,-0.24 0.39,-0.42 0.66,-0.55 0.27,-0.13 0.59,-0.2 0.96,-0.2 0.16,0 0.31,0.02 0.45,0.05 0.14,0.03 0.27,0.09 0.39,0.17 0.12,0.07 0.24,0.17 0.34,0.28 0.11,0.11 0.22,0.25 0.32,0.4 0.16,-0.3 0.35,-0.54 0.57,-0.7 0.22,-0.16 0.48,-0.25 0.79,-0.25 0.3,0 0.56,0.08 0.79,0.25 0.23,0.16 0.43,0.39 0.6,0.69 0.21,-0.3 0.45,-0.52 0.7,-0.67 0.26,-0.15 0.52,-0.22 0.78,-0.22 0.3,0 0.58,0.05 0.84,0.16 0.26,0.11 0.49,0.26 0.68,0.47 0.19,0.2 0.34,0.46 0.45,0.76 0.11,0.3 0.17,0.65 0.17,1.04l0 0.74zm7.65 0.12c0,-0.31 -0.01,-0.6 -0.02,-0.86 -0.02,-0.26 -0.06,-0.49 -0.12,-0.68 -0.06,-0.19 -0.16,-0.34 -0.29,-0.45 -0.13,-0.11 -0.32,-0.16 -0.55,-0.16 -0.67,0 -1,0.41 -1,1.24l0 3.27 -1.28 0 0 -3.27c0,-0.44 -0.08,-0.75 -0.24,-0.94 -0.16,-0.2 -0.42,-0.29 -0.77,-0.29 -0.21,0 -0.38,0.05 -0.52,0.16 -0.13,0.11 -0.23,0.26 -0.3,0.46 -0.07,0.19 -0.12,0.43 -0.14,0.7 -0.02,0.27 -0.03,0.57 -0.03,0.89l0 1.34c0,0.3 0.02,0.6 0.07,0.9 0.05,0.3 0.13,0.56 0.24,0.8 0.11,0.24 0.25,0.43 0.43,0.58 0.18,0.15 0.39,0.22 0.64,0.22l0 1.18c-0.36,0 -0.67,-0.05 -0.94,-0.15 -0.27,-0.1 -0.5,-0.25 -0.7,-0.42 -0.2,-0.18 -0.36,-0.39 -0.5,-0.63 -0.13,-0.24 -0.24,-0.49 -0.32,-0.76 -0.08,-0.27 -0.14,-0.55 -0.17,-0.84 -0.03,-0.29 -0.05,-0.57 -0.05,-0.85l0 -1.36c0,-0.28 0.01,-0.56 0.03,-0.83 0.02,-0.28 0.06,-0.54 0.12,-0.79 0.06,-0.25 0.14,-0.48 0.24,-0.7 0.1,-0.22 0.24,-0.4 0.41,-0.56 0.17,-0.16 0.38,-0.28 0.62,-0.37 0.24,-0.09 0.53,-0.13 0.87,-0.13 0.19,0 0.37,0.03 0.53,0.08 0.16,0.05 0.3,0.12 0.43,0.21 0.13,0.09 0.25,0.19 0.35,0.31 0.11,0.12 0.2,0.24 0.29,0.37 0.08,-0.12 0.18,-0.24 0.29,-0.36 0.11,-0.12 0.24,-0.22 0.37,-0.31 0.14,-0.09 0.29,-0.16 0.46,-0.22 0.17,-0.06 0.35,-0.09 0.55,-0.09 0.32,0 0.6,0.04 0.84,0.13 0.24,0.09 0.44,0.21 0.61,0.36 0.17,0.15 0.31,0.34 0.42,0.55 0.11,0.21 0.19,0.44 0.26,0.68 0.06,0.25 0.11,0.5 0.13,0.77 0.02,0.27 0.04,0.54 0.04,0.81l-0.01 1.45c0,0.27 -0.02,0.54 -0.05,0.82 -0.04,0.28 -0.1,0.56 -0.18,0.83 -0.08,0.27 -0.19,0.53 -0.33,0.77 -0.14,0.24 -0.3,0.46 -0.5,0.64 -0.2,0.19 -0.43,0.33 -0.69,0.44 -0.26,0.11 -0.56,0.16 -0.9,0.16l0 -1.18c0.23,0 0.43,-0.07 0.6,-0.22 0.17,-0.15 0.31,-0.34 0.42,-0.57 0.11,-0.24 0.2,-0.51 0.25,-0.81 0.05,-0.3 0.08,-0.61 0.08,-0.92l0 -1.36zm7.33 2.46c0,0.38 -0.06,0.72 -0.18,1.04 -0.12,0.32 -0.28,0.59 -0.49,0.82 -0.21,0.23 -0.46,0.41 -0.76,0.54 -0.29,0.13 -0.61,0.2 -0.96,0.2 -0.35,0 -0.67,-0.05 -0.96,-0.16 -0.29,-0.11 -0.54,-0.27 -0.75,-0.49 -0.21,-0.22 -0.37,-0.5 -0.49,-0.84 -0.12,-0.33 -0.18,-0.73 -0.18,-1.18l0 -5.74 1.27 0 0 5.74c0,0.27 0.03,0.5 0.08,0.69 0.06,0.19 0.13,0.34 0.23,0.46 0.1,0.12 0.21,0.2 0.35,0.26 0.14,0.05 0.28,0.08 0.44,0.08 0.18,0 0.34,-0.04 0.48,-0.11 0.14,-0.07 0.25,-0.17 0.35,-0.31 0.09,-0.13 0.16,-0.29 0.21,-0.47 0.05,-0.18 0.07,-0.39 0.07,-0.61l0 -0.3c0,-0.24 -0.04,-0.47 -0.12,-0.69 -0.08,-0.22 -0.2,-0.42 -0.35,-0.61 -0.08,-0.1 -0.15,-0.2 -0.22,-0.3 -0.07,-0.1 -0.14,-0.2 -0.19,-0.3 -0.05,-0.1 -0.1,-0.2 -0.13,-0.31 -0.04,-0.11 -0.05,-0.21 -0.05,-0.32 0,-0.09 0.01,-0.17 0.02,-0.26 0.01,-0.09 0.04,-0.18 0.07,-0.27 0.03,-0.09 0.08,-0.19 0.13,-0.3 0.06,-0.11 0.13,-0.22 0.21,-0.35l1.33 0.37c-0.03,0.04 -0.07,0.08 -0.1,0.12 -0.03,0.04 -0.07,0.08 -0.1,0.12 -0.03,0.04 -0.06,0.07 -0.08,0.1 -0.02,0.03 -0.04,0.05 -0.04,0.06 -0.06,0.09 -0.11,0.16 -0.15,0.22 -0.03,0.06 -0.05,0.13 -0.05,0.2 0,0.12 0.05,0.24 0.15,0.38 0.1,0.14 0.21,0.28 0.34,0.42l-0.01 0c0.19,0.22 0.34,0.46 0.46,0.72 0.12,0.26 0.17,0.56 0.17,0.91l0 0.47zm7.97 0.04c0,0.39 -0.06,0.75 -0.17,1.07 -0.11,0.32 -0.28,0.58 -0.49,0.8 -0.21,0.22 -0.46,0.39 -0.75,0.51 -0.29,0.12 -0.62,0.18 -0.97,0.18 -0.33,0 -0.65,-0.06 -0.94,-0.18 -0.29,-0.12 -0.54,-0.28 -0.75,-0.49 -0.21,-0.2 -0.38,-0.43 -0.5,-0.69 -0.12,-0.26 -0.18,-0.53 -0.18,-0.8l0 -0.44c0,-0.25 0.03,-0.48 0.1,-0.67 0.07,-0.19 0.19,-0.38 0.35,-0.55l1.04 0.47c-0.08,0.13 -0.14,0.26 -0.17,0.41 -0.03,0.14 -0.05,0.29 -0.05,0.46l0 0.17c0,0.15 0.03,0.3 0.09,0.44 0.06,0.14 0.14,0.26 0.23,0.37 0.1,0.11 0.22,0.19 0.35,0.25 0.14,0.06 0.28,0.09 0.43,0.09 0.39,0 0.68,-0.12 0.85,-0.37 0.17,-0.25 0.26,-0.61 0.26,-1.09l0 -0.59c0,-0.12 -0.02,-0.24 -0.06,-0.35 -0.04,-0.12 -0.1,-0.22 -0.17,-0.32 -0.07,-0.09 -0.16,-0.17 -0.25,-0.22 -0.09,-0.06 -0.2,-0.08 -0.31,-0.08l-0.73 0 0 -1.18 0.73 0c0.19,0 0.33,-0.06 0.41,-0.19 0.08,-0.13 0.12,-0.28 0.12,-0.47l0 -0.17c0,-0.03 -0.02,-0.07 -0.07,-0.09 -0.05,-0.03 -0.11,-0.06 -0.18,-0.09 -0.08,-0.03 -0.16,-0.05 -0.26,-0.08 -0.1,-0.03 -0.2,-0.06 -0.31,-0.09 -0.21,-0.05 -0.43,-0.12 -0.65,-0.19 -0.22,-0.07 -0.42,-0.17 -0.6,-0.31 -0.18,-0.13 -0.32,-0.31 -0.44,-0.52 -0.11,-0.22 -0.17,-0.49 -0.17,-0.83l1.28 0c0,0.14 0.03,0.25 0.09,0.34 0.06,0.09 0.14,0.16 0.23,0.22 0.1,0.06 0.2,0.11 0.32,0.15 0.12,0.04 0.24,0.08 0.37,0.11 0.2,0.05 0.39,0.11 0.59,0.17 0.2,0.06 0.38,0.14 0.53,0.24 0.16,0.1 0.29,0.22 0.39,0.37 0.1,0.15 0.15,0.33 0.15,0.55l0 0.23c0,0.09 -0.01,0.19 -0.03,0.29 -0.02,0.1 -0.06,0.21 -0.11,0.31 -0.05,0.11 -0.12,0.22 -0.2,0.32 -0.08,0.11 -0.19,0.21 -0.31,0.31 0.16,0.12 0.3,0.25 0.41,0.39 0.12,0.14 0.21,0.28 0.28,0.42 0.07,0.14 0.13,0.27 0.16,0.4 0.04,0.13 0.05,0.25 0.05,0.35l0 0.66zm8.84 -0.18c0,0.17 -0.03,0.35 -0.09,0.55 -0.06,0.2 -0.15,0.4 -0.26,0.6 -0.11,0.21 -0.25,0.4 -0.41,0.6 -0.16,0.19 -0.34,0.36 -0.53,0.51 -0.2,0.15 -0.41,0.27 -0.64,0.36 -0.23,0.09 -0.47,0.13 -0.73,0.13l0 -1.19c0.19,0 0.37,-0.05 0.54,-0.16 0.17,-0.11 0.32,-0.24 0.44,-0.39 0.13,-0.15 0.22,-0.32 0.3,-0.5 0.07,-0.18 0.11,-0.35 0.11,-0.51l0 -0.78c0,-0.29 -0.03,-0.52 -0.1,-0.7 -0.07,-0.18 -0.15,-0.33 -0.26,-0.43 -0.1,-0.1 -0.21,-0.18 -0.33,-0.21 -0.12,-0.04 -0.22,-0.06 -0.31,-0.06 -0.11,0 -0.22,0.02 -0.34,0.06 -0.12,0.04 -0.23,0.11 -0.33,0.21 -0.1,0.1 -0.18,0.23 -0.25,0.39 -0.06,0.16 -0.1,0.37 -0.1,0.61l0 1.43 -1.28 0 0 -1.43c0,-0.24 -0.03,-0.45 -0.1,-0.61 -0.06,-0.16 -0.15,-0.3 -0.24,-0.39 -0.1,-0.1 -0.2,-0.17 -0.32,-0.21 -0.12,-0.04 -0.23,-0.06 -0.33,-0.06 -0.12,0 -0.25,0.02 -0.37,0.06 -0.12,0.04 -0.23,0.11 -0.32,0.21 -0.09,0.11 -0.17,0.25 -0.23,0.43 -0.06,0.18 -0.09,0.42 -0.09,0.7l0 0.81c0,0.15 0.03,0.32 0.1,0.49 0.06,0.18 0.16,0.34 0.28,0.5 0.12,0.15 0.27,0.28 0.44,0.39 0.17,0.1 0.36,0.16 0.58,0.16l0 1.18c-0.3,0 -0.56,-0.05 -0.81,-0.14 -0.25,-0.09 -0.47,-0.21 -0.66,-0.36 -0.2,-0.15 -0.37,-0.32 -0.52,-0.52 -0.15,-0.2 -0.27,-0.4 -0.37,-0.6 -0.1,-0.21 -0.17,-0.41 -0.22,-0.61 -0.05,-0.2 -0.07,-0.38 -0.07,-0.54l0 -0.75c0,-0.4 0.03,-0.8 0.1,-1.19 0.07,-0.4 0.19,-0.78 0.36,-1.14 0.17,-0.36 0.4,-0.7 0.69,-1.01 0.29,-0.31 0.65,-0.58 1.1,-0.81 0.44,-0.23 0.97,-0.41 1.58,-0.54 0.61,-0.13 1.32,-0.2 2.13,-0.2l0 1.19c-1,0 -1.83,0.11 -2.5,0.34 -0.67,0.22 -1.19,0.53 -1.55,0.92l0.35 -0.08c0.15,0 0.3,0.01 0.46,0.04 0.15,0.03 0.31,0.07 0.45,0.14 0.15,0.07 0.28,0.17 0.42,0.28 0.13,0.12 0.25,0.28 0.36,0.47 0.11,-0.19 0.24,-0.34 0.38,-0.46 0.14,-0.12 0.27,-0.21 0.42,-0.28 0.15,-0.07 0.29,-0.12 0.43,-0.14 0.14,-0.03 0.28,-0.04 0.4,-0.04 0.29,0 0.57,0.04 0.84,0.13 0.27,0.09 0.52,0.23 0.73,0.43 0.21,0.2 0.38,0.46 0.51,0.78 0.13,0.32 0.19,0.72 0.19,1.18l0 0.77zm7.65 -2.32c0,-0.31 -0.01,-0.6 -0.02,-0.86 -0.02,-0.26 -0.06,-0.49 -0.12,-0.68 -0.06,-0.19 -0.16,-0.34 -0.29,-0.45 -0.13,-0.11 -0.31,-0.16 -0.55,-0.16 -0.67,0 -1,0.41 -1,1.24l0 3.27 -1.28 0 0 -3.27c0,-0.44 -0.08,-0.75 -0.24,-0.94 -0.16,-0.2 -0.42,-0.29 -0.77,-0.29 -0.21,0 -0.38,0.05 -0.52,0.16 -0.13,0.11 -0.23,0.26 -0.3,0.46 -0.07,0.19 -0.12,0.43 -0.14,0.7 -0.02,0.27 -0.03,0.57 -0.03,0.89l0 1.34c0,0.3 0.02,0.6 0.07,0.9 0.05,0.3 0.13,0.56 0.24,0.8 0.11,0.24 0.25,0.43 0.43,0.58 0.18,0.15 0.39,0.22 0.64,0.22l0 1.18c-0.36,0 -0.67,-0.05 -0.94,-0.15 -0.27,-0.1 -0.5,-0.25 -0.7,-0.42 -0.2,-0.18 -0.36,-0.39 -0.5,-0.63 -0.13,-0.24 -0.24,-0.49 -0.32,-0.76 -0.08,-0.27 -0.14,-0.55 -0.17,-0.84 -0.03,-0.29 -0.05,-0.57 -0.05,-0.85l0 -1.36c0,-0.28 0.01,-0.56 0.03,-0.83 0.02,-0.28 0.06,-0.54 0.12,-0.79 0.06,-0.25 0.14,-0.48 0.24,-0.7 0.1,-0.22 0.24,-0.4 0.41,-0.56 0.17,-0.16 0.38,-0.28 0.62,-0.37 0.24,-0.09 0.53,-0.13 0.87,-0.13 0.19,0 0.37,0.03 0.53,0.08 0.16,0.05 0.3,0.12 0.43,0.21 0.13,0.09 0.25,0.19 0.35,0.31 0.11,0.12 0.2,0.24 0.28,0.37 0.08,-0.12 0.18,-0.24 0.29,-0.36 0.11,-0.12 0.24,-0.22 0.37,-0.31 0.14,-0.09 0.29,-0.16 0.46,-0.22 0.17,-0.06 0.35,-0.09 0.55,-0.09 0.32,0 0.6,0.04 0.84,0.13 0.24,0.09 0.44,0.21 0.61,0.36 0.17,0.15 0.31,0.34 0.42,0.55 0.11,0.21 0.19,0.44 0.26,0.68 0.06,0.25 0.11,0.5 0.13,0.77 0.02,0.27 0.04,0.54 0.04,0.81l-0.01 1.45c0,0.27 -0.02,0.54 -0.05,0.82 -0.04,0.28 -0.1,0.56 -0.18,0.83 -0.08,0.27 -0.19,0.53 -0.33,0.77 -0.14,0.24 -0.3,0.46 -0.5,0.64 -0.2,0.19 -0.43,0.33 -0.69,0.44 -0.26,0.11 -0.56,0.16 -0.9,0.16l0 -1.18c0.23,0 0.43,-0.07 0.6,-0.22 0.17,-0.15 0.31,-0.34 0.42,-0.57 0.11,-0.24 0.2,-0.51 0.25,-0.81 0.05,-0.3 0.08,-0.61 0.08,-0.92l0 -1.36zm5.68 -0.76c0,-0.27 -0.02,-0.49 -0.06,-0.67 -0.04,-0.18 -0.11,-0.32 -0.19,-0.43 -0.08,-0.11 -0.19,-0.18 -0.31,-0.23 -0.12,-0.05 -0.27,-0.07 -0.44,-0.07 -0.17,0 -0.31,0.02 -0.43,0.06 -0.12,0.04 -0.23,0.11 -0.31,0.21 -0.08,0.1 -0.15,0.24 -0.19,0.43 -0.04,0.18 -0.06,0.41 -0.06,0.7l0 0.47c0,0.26 0.02,0.47 0.06,0.63 0.04,0.16 0.1,0.29 0.18,0.39 0.08,0.1 0.19,0.16 0.31,0.2 0.13,0.04 0.27,0.05 0.44,0.05 0.2,0 0.36,-0.02 0.49,-0.08 0.13,-0.05 0.23,-0.13 0.31,-0.24 0.08,-0.11 0.13,-0.24 0.16,-0.4 0.03,-0.16 0.05,-0.35 0.05,-0.56l0 -0.47zm4.24 3.65c0,0.37 -0.08,0.68 -0.23,0.96 -0.15,0.27 -0.37,0.5 -0.65,0.68 -0.28,0.18 -0.6,0.32 -0.98,0.41 -0.38,0.09 -0.79,0.14 -1.24,0.14 -0.28,0 -0.56,-0.01 -0.83,-0.04 -0.27,-0.02 -0.52,-0.07 -0.76,-0.13 -0.24,-0.06 -0.46,-0.15 -0.66,-0.26 -0.2,-0.11 -0.37,-0.25 -0.52,-0.43 -0.15,-0.18 -0.26,-0.39 -0.34,-0.63 -0.08,-0.25 -0.12,-0.54 -0.11,-0.87l1.26 0.25c0,0.17 0.03,0.31 0.09,0.42 0.06,0.11 0.13,0.2 0.23,0.27 0.1,0.07 0.21,0.12 0.34,0.15 0.13,0.03 0.27,0.05 0.41,0.07 0.15,0.01 0.29,0.02 0.44,0.02 0.15,0 0.3,0 0.44,0 0.24,0 0.46,-0.02 0.68,-0.05 0.22,-0.03 0.41,-0.09 0.58,-0.17 0.17,-0.08 0.3,-0.18 0.4,-0.31 0.1,-0.13 0.15,-0.29 0.15,-0.47l0 -0.27c0,-0.11 -0.01,-0.22 -0.03,-0.35 -0.02,-0.12 -0.05,-0.24 -0.11,-0.35 -0.05,-0.11 -0.12,-0.2 -0.2,-0.27 -0.08,-0.07 -0.19,-0.11 -0.33,-0.11l-0.47 0 0 -1.18 0.47 0c0.14,0 0.25,-0.03 0.35,-0.1 0.1,-0.06 0.18,-0.15 0.24,-0.25 0.06,-0.1 0.11,-0.22 0.14,-0.35 0.03,-0.13 0.05,-0.26 0.05,-0.4l0 -0.26c0,-0.19 -0.01,-0.35 -0.03,-0.5 -0.02,-0.15 -0.06,-0.27 -0.13,-0.37 -0.07,-0.1 -0.16,-0.18 -0.29,-0.23 -0.12,-0.05 -0.29,-0.08 -0.5,-0.08 -0.15,0 -0.29,0.03 -0.4,0.1 -0.11,0.07 -0.2,0.16 -0.26,0.28 -0.07,0.12 -0.11,0.26 -0.14,0.42 -0.03,0.16 -0.04,0.34 -0.04,0.53l0 0.55c0,0.35 -0.05,0.68 -0.14,0.98 -0.09,0.3 -0.23,0.56 -0.42,0.78 -0.19,0.22 -0.43,0.39 -0.72,0.52 -0.29,0.12 -0.63,0.19 -1.02,0.19 -0.37,0 -0.69,-0.06 -0.97,-0.17 -0.28,-0.12 -0.52,-0.28 -0.71,-0.5 -0.19,-0.21 -0.34,-0.47 -0.44,-0.78 -0.1,-0.3 -0.15,-0.64 -0.15,-1.02l0 -0.47c0,-0.43 0.05,-0.81 0.16,-1.13 0.11,-0.32 0.26,-0.59 0.46,-0.81 0.2,-0.21 0.44,-0.38 0.72,-0.48 0.28,-0.11 0.59,-0.16 0.93,-0.16 0.14,0 0.29,0.01 0.44,0.04 0.15,0.03 0.29,0.07 0.44,0.13 0.14,0.06 0.28,0.14 0.41,0.24 0.13,0.1 0.25,0.23 0.36,0.37 0.1,-0.16 0.22,-0.29 0.34,-0.4 0.12,-0.1 0.25,-0.18 0.38,-0.24 0.13,-0.06 0.26,-0.1 0.39,-0.12 0.13,-0.02 0.26,-0.03 0.39,-0.03 0.39,0 0.72,0.05 1,0.16 0.28,0.11 0.51,0.26 0.69,0.46 0.18,0.2 0.32,0.44 0.41,0.73 0.09,0.29 0.13,0.61 0.13,0.97l0 0.25c0,0.14 -0.01,0.29 -0.03,0.45 -0.02,0.16 -0.06,0.31 -0.12,0.46 -0.06,0.15 -0.15,0.3 -0.26,0.44 -0.12,0.14 -0.27,0.26 -0.46,0.38 0.17,0.1 0.31,0.21 0.41,0.34 0.1,0.13 0.18,0.26 0.23,0.4 0.05,0.14 0.08,0.29 0.1,0.44 0.01,0.15 0.02,0.3 0.02,0.44l0 0.32zm5.88 0.13c0,0.36 -0.07,0.67 -0.2,0.93 -0.13,0.26 -0.31,0.47 -0.52,0.64 -0.22,0.17 -0.47,0.29 -0.76,0.36 -0.29,0.08 -0.59,0.12 -0.9,0.12 -0.34,0 -0.67,-0.05 -0.96,-0.16 -0.29,-0.11 -0.55,-0.26 -0.76,-0.45 -0.21,-0.19 -0.38,-0.42 -0.5,-0.68 -0.12,-0.26 -0.18,-0.55 -0.18,-0.86 0,-0.22 0.01,-0.42 0.03,-0.58 0.02,-0.16 0.05,-0.31 0.1,-0.45 0.05,-0.14 0.12,-0.26 0.2,-0.38 0.08,-0.12 0.19,-0.25 0.32,-0.38l0.95 0.38c-0.08,0.1 -0.14,0.2 -0.18,0.3 -0.04,0.1 -0.08,0.2 -0.1,0.31 -0.02,0.11 -0.04,0.23 -0.04,0.37 -0.01,0.13 -0.01,0.29 -0.01,0.46 0,0.31 0.09,0.55 0.27,0.72 0.18,0.17 0.46,0.25 0.84,0.25 0.34,0 0.61,-0.08 0.81,-0.24 0.2,-0.16 0.3,-0.38 0.3,-0.65l0 -4.36c0,-0.24 -0.08,-0.43 -0.25,-0.57 -0.16,-0.15 -0.39,-0.22 -0.67,-0.22 -0.29,0 -0.53,0.07 -0.71,0.21 -0.18,0.14 -0.27,0.34 -0.27,0.59 0,0.09 0,0.19 0.01,0.28 0.01,0.09 0.04,0.21 0.09,0.35l-1 0.36c-0.06,-0.09 -0.11,-0.17 -0.16,-0.23 -0.04,-0.07 -0.08,-0.14 -0.1,-0.21 -0.03,-0.07 -0.05,-0.15 -0.06,-0.23 -0.01,-0.08 -0.02,-0.19 -0.02,-0.31 0,-0.3 0.05,-0.57 0.15,-0.81 0.1,-0.24 0.25,-0.45 0.44,-0.63 0.19,-0.18 0.41,-0.31 0.68,-0.4 0.27,-0.1 0.56,-0.14 0.89,-0.14 0.32,0 0.62,0.04 0.89,0.13 0.27,0.08 0.51,0.21 0.71,0.38 0.2,0.17 0.36,0.37 0.48,0.62 0.12,0.25 0.17,0.53 0.17,0.86l0 4.39zm6.15 -0.56c0,0.38 -0.06,0.72 -0.18,1.04 -0.12,0.32 -0.28,0.59 -0.49,0.82 -0.21,0.23 -0.46,0.41 -0.76,0.54 -0.29,0.13 -0.61,0.2 -0.96,0.2 -0.35,0 -0.67,-0.05 -0.96,-0.16 -0.29,-0.11 -0.54,-0.27 -0.75,-0.49 -0.21,-0.22 -0.37,-0.5 -0.49,-0.84 -0.12,-0.33 -0.18,-0.73 -0.18,-1.18l0 -5.74 1.27 0 0 5.74c0,0.27 0.03,0.5 0.08,0.69 0.06,0.19 0.13,0.34 0.23,0.46 0.1,0.12 0.21,0.2 0.35,0.26 0.14,0.05 0.28,0.08 0.44,0.08 0.19,0 0.34,-0.04 0.48,-0.11 0.14,-0.07 0.25,-0.17 0.35,-0.31 0.09,-0.13 0.16,-0.29 0.21,-0.47 0.05,-0.18 0.07,-0.39 0.07,-0.61l0 -0.3c0,-0.24 -0.04,-0.47 -0.12,-0.69 -0.08,-0.22 -0.2,-0.42 -0.35,-0.61 -0.08,-0.1 -0.15,-0.2 -0.22,-0.3 -0.07,-0.1 -0.14,-0.2 -0.19,-0.3 -0.05,-0.1 -0.1,-0.2 -0.13,-0.31 -0.04,-0.11 -0.05,-0.21 -0.05,-0.32 0,-0.09 0.01,-0.17 0.02,-0.26 0.01,-0.09 0.04,-0.18 0.07,-0.27 0.03,-0.09 0.08,-0.19 0.13,-0.3 0.05,-0.11 0.13,-0.22 0.21,-0.35l1.33 0.37c-0.03,0.04 -0.07,0.08 -0.1,0.12 -0.03,0.04 -0.07,0.08 -0.1,0.12 -0.03,0.04 -0.06,0.07 -0.08,0.1 -0.02,0.03 -0.04,0.05 -0.04,0.06 -0.06,0.09 -0.11,0.16 -0.15,0.22 -0.03,0.06 -0.05,0.13 -0.05,0.2 0,0.12 0.05,0.24 0.15,0.38 0.1,0.14 0.21,0.28 0.34,0.42l-0.01 0c0.19,0.22 0.34,0.46 0.46,0.72 0.12,0.26 0.17,0.56 0.17,0.91l0 0.47zm5.92 -0.77c-0,0.36 -0.03,0.73 -0.08,1.1 -0.05,0.37 -0.15,0.72 -0.28,1.03 -0.14,0.32 -0.33,0.59 -0.58,0.82 -0.25,0.23 -0.57,0.39 -0.97,0.49l-0.12 -1.24c0.25,0 0.44,-0.19 0.58,-0.57 0.13,-0.38 0.19,-0.91 0.19,-1.6l0 -1.91c0,-0.31 -0.02,-0.59 -0.05,-0.83 -0.03,-0.24 -0.09,-0.45 -0.17,-0.62 -0.08,-0.17 -0.19,-0.3 -0.33,-0.39 -0.14,-0.09 -0.31,-0.13 -0.52,-0.13 -0.24,0 -0.43,0.05 -0.58,0.14 -0.15,0.09 -0.27,0.22 -0.35,0.39 -0.08,0.17 -0.14,0.38 -0.18,0.63 -0.03,0.25 -0.05,0.53 -0.05,0.84l0 1.87c0,0.34 0.01,0.64 0.03,0.91 0.01,0.27 0.05,0.5 0.09,0.68 0.04,0.19 0.1,0.33 0.18,0.43 0.07,0.1 0.17,0.15 0.28,0.15l-0.01 1.23c-0.28,-0.05 -0.52,-0.14 -0.72,-0.27 -0.2,-0.12 -0.37,-0.28 -0.5,-0.45 -0.13,-0.17 -0.24,-0.37 -0.32,-0.59 -0.08,-0.22 -0.14,-0.44 -0.18,-0.67 -0.04,-0.23 -0.07,-0.47 -0.08,-0.72 -0.01,-0.24 -0.02,-0.48 -0.02,-0.71l0 -1.86c0,-0.25 0.01,-0.5 0.04,-0.75 0.03,-0.25 0.07,-0.5 0.14,-0.74 0.07,-0.24 0.16,-0.46 0.27,-0.67 0.11,-0.21 0.26,-0.39 0.43,-0.55 0.18,-0.15 0.39,-0.28 0.64,-0.37 0.25,-0.09 0.53,-0.13 0.86,-0.13 0.5,0 0.91,0.09 1.22,0.26 0.31,0.17 0.56,0.4 0.73,0.69 0.17,0.29 0.29,0.63 0.35,1.01 0.06,0.38 0.09,0.78 0.09,1.2l-0.01 1.87zm6.52 0.9c0,0.41 -0.05,0.77 -0.15,1.08 -0.1,0.31 -0.25,0.57 -0.44,0.78 -0.19,0.21 -0.43,0.36 -0.71,0.47 -0.28,0.1 -0.6,0.15 -0.96,0.15 -0.39,0 -0.73,-0.06 -1.04,-0.17 -0.31,-0.12 -0.57,-0.28 -0.78,-0.49 -0.21,-0.21 -0.38,-0.45 -0.49,-0.74 -0.12,-0.29 -0.17,-0.6 -0.17,-0.94l0 -0.48c0,-0.28 0.06,-0.52 0.17,-0.72 0.11,-0.21 0.27,-0.4 0.48,-0.57l0.99 0.45c-0.13,0.12 -0.22,0.26 -0.27,0.42 -0.05,0.16 -0.08,0.3 -0.08,0.43l0 0.48c0,0.17 0.03,0.33 0.08,0.47 0.05,0.14 0.13,0.27 0.23,0.37 0.1,0.1 0.23,0.18 0.38,0.24 0.15,0.06 0.32,0.09 0.52,0.09 0.2,0 0.36,-0.03 0.49,-0.1 0.13,-0.07 0.23,-0.16 0.3,-0.28 0.07,-0.12 0.12,-0.26 0.15,-0.42 0.03,-0.16 0.04,-0.34 0.04,-0.53l0 -4.5c0,-0.06 -0.05,-0.12 -0.16,-0.17 -0.1,-0.05 -0.25,-0.08 -0.42,-0.08 -0.14,0 -0.25,0.03 -0.33,0.08 -0.08,0.05 -0.11,0.11 -0.11,0.17l0 1.89 -1.12 0 0 -1.89c0,-0.09 -0.03,-0.16 -0.09,-0.2 -0.06,-0.04 -0.15,-0.06 -0.25,-0.06 -0.04,0 -0.08,0.02 -0.11,0.06 -0.04,0.04 -0.08,0.09 -0.12,0.14 -0.08,0.09 -0.16,0.17 -0.25,0.24 -0.09,0.08 -0.21,0.11 -0.34,0.11 -0.09,0 -0.18,-0.02 -0.27,-0.05 -0.09,-0.03 -0.18,-0.08 -0.26,-0.13 -0.09,-0.05 -0.17,-0.12 -0.24,-0.19 -0.08,-0.07 -0.14,-0.14 -0.21,-0.22l0 -1.46c0.08,0.08 0.17,0.17 0.27,0.26 0.1,0.09 0.2,0.18 0.3,0.26 0.1,0.08 0.18,0.14 0.26,0.2 0.08,0.05 0.13,0.08 0.17,0.08 -0,0 0.01,-0.01 0.03,-0.03 0.03,-0.02 0.06,-0.05 0.09,-0.08 0.09,-0.07 0.18,-0.14 0.29,-0.2 0.1,-0.06 0.22,-0.09 0.36,-0.09 0.22,0 0.42,0.05 0.58,0.14 0.16,0.09 0.31,0.22 0.43,0.4 0.13,-0.18 0.28,-0.31 0.46,-0.4 0.18,-0.09 0.36,-0.14 0.53,-0.14 0.21,0 0.43,0.03 0.64,0.1 0.21,0.07 0.41,0.16 0.58,0.28 0.17,0.12 0.31,0.26 0.42,0.43 0.11,0.17 0.16,0.35 0.16,0.56l0 4.54zm11.16 -2.72c0,0.15 -0.02,0.33 -0.07,0.52 -0.04,0.19 -0.11,0.39 -0.19,0.59 -0.08,0.2 -0.18,0.41 -0.3,0.62 -0.12,0.21 -0.25,0.41 -0.38,0.59 -0.14,0.18 -0.29,0.35 -0.46,0.51 -0.16,0.16 -0.33,0.28 -0.51,0.38l-0.86 -0.78c0.23,-0.17 0.43,-0.36 0.61,-0.58 0.18,-0.22 0.33,-0.44 0.46,-0.67 0.13,-0.23 0.22,-0.45 0.29,-0.67 0.07,-0.22 0.1,-0.41 0.1,-0.57l0 -0.64c0,-0.21 -0.02,-0.4 -0.06,-0.56 -0.04,-0.16 -0.1,-0.3 -0.18,-0.41 -0.08,-0.11 -0.16,-0.19 -0.26,-0.24 -0.1,-0.06 -0.21,-0.08 -0.32,-0.08 -0.18,0 -0.33,0.03 -0.45,0.09 -0.12,0.06 -0.21,0.14 -0.27,0.25 -0.07,0.11 -0.11,0.23 -0.13,0.37 -0.03,0.14 -0.04,0.29 -0.04,0.45l0 1.54 -1.23 0 0 -1.54c0,-0.16 -0.01,-0.31 -0.03,-0.46 -0.02,-0.15 -0.06,-0.27 -0.11,-0.38 -0.05,-0.11 -0.13,-0.2 -0.23,-0.27 -0.1,-0.07 -0.23,-0.1 -0.39,-0.1 -0.15,0 -0.27,0.03 -0.37,0.1 -0.1,0.07 -0.18,0.15 -0.23,0.27 -0.06,0.11 -0.1,0.24 -0.13,0.38 -0.02,0.14 -0.04,0.28 -0.04,0.43l0 1.57 -1.24 0 0 -1.57c0,-0.14 -0.01,-0.28 -0.02,-0.42 -0.01,-0.14 -0.05,-0.26 -0.1,-0.36 -0.05,-0.1 -0.14,-0.18 -0.26,-0.25 -0.12,-0.06 -0.28,-0.09 -0.48,-0.09 -0.15,0 -0.28,0.04 -0.39,0.12 -0.11,0.08 -0.19,0.18 -0.26,0.31 -0.07,0.13 -0.12,0.29 -0.15,0.47 -0.03,0.18 -0.05,0.37 -0.05,0.57l0.01 0.71c-0,0.36 0.06,0.7 0.18,1.02 0.12,0.32 0.3,0.62 0.53,0.88 0.23,0.27 0.51,0.51 0.83,0.72 0.32,0.21 0.68,0.39 1.06,0.54 0.39,0.15 0.8,0.26 1.25,0.34 0.44,0.08 0.9,0.11 1.38,0.11l1.02 0 0 1.28 -0.99 0c-0.7,0 -1.35,-0.06 -1.94,-0.19 -0.6,-0.13 -1.13,-0.31 -1.62,-0.53 -0.48,-0.23 -0.91,-0.5 -1.27,-0.8 -0.37,-0.31 -0.67,-0.64 -0.92,-1.01 -0.25,-0.36 -0.44,-0.74 -0.57,-1.14 -0.13,-0.4 -0.2,-0.8 -0.21,-1.21l-0.01 -0.74c0,-0.37 0.04,-0.72 0.12,-1.04 0.08,-0.32 0.21,-0.6 0.38,-0.84 0.17,-0.24 0.39,-0.42 0.66,-0.55 0.27,-0.13 0.59,-0.2 0.96,-0.2 0.16,0 0.31,0.02 0.45,0.05 0.14,0.03 0.27,0.09 0.39,0.17 0.12,0.07 0.24,0.17 0.34,0.28 0.11,0.11 0.21,0.25 0.32,0.4 0.16,-0.3 0.35,-0.54 0.57,-0.7 0.22,-0.16 0.48,-0.25 0.79,-0.25 0.3,0 0.56,0.08 0.79,0.25 0.23,0.16 0.43,0.39 0.6,0.69 0.21,-0.3 0.45,-0.52 0.71,-0.67 0.26,-0.15 0.52,-0.22 0.78,-0.22 0.3,0 0.58,0.05 0.84,0.16 0.26,0.11 0.49,0.26 0.68,0.47 0.19,0.2 0.34,0.46 0.45,0.76 0.11,0.3 0.17,0.65 0.17,1.04l0 0.74zm5.93 1.81c-0,0.36 -0.03,0.73 -0.08,1.1 -0.05,0.37 -0.15,0.72 -0.28,1.03 -0.14,0.32 -0.33,0.59 -0.58,0.82 -0.25,0.23 -0.57,0.39 -0.97,0.49l-0.12 -1.24c0.25,0 0.44,-0.19 0.58,-0.57 0.13,-0.38 0.19,-0.91 0.19,-1.6l0 -1.91c0,-0.31 -0.01,-0.59 -0.05,-0.83 -0.03,-0.24 -0.09,-0.45 -0.17,-0.62 -0.08,-0.17 -0.19,-0.3 -0.33,-0.39 -0.14,-0.09 -0.31,-0.13 -0.52,-0.13 -0.24,0 -0.43,0.05 -0.58,0.14 -0.15,0.09 -0.27,0.22 -0.35,0.39 -0.09,0.17 -0.14,0.38 -0.18,0.63 -0.03,0.25 -0.05,0.53 -0.05,0.84l0 1.87c0,0.34 0.01,0.64 0.03,0.91 0.02,0.27 0.05,0.5 0.09,0.68 0.04,0.19 0.1,0.33 0.18,0.43 0.07,0.1 0.17,0.15 0.28,0.15l-0.01 1.23c-0.28,-0.05 -0.52,-0.14 -0.72,-0.27 -0.2,-0.12 -0.37,-0.28 -0.5,-0.45 -0.13,-0.17 -0.24,-0.37 -0.32,-0.59 -0.08,-0.22 -0.14,-0.44 -0.18,-0.67 -0.04,-0.23 -0.07,-0.47 -0.08,-0.72 -0.01,-0.24 -0.02,-0.48 -0.02,-0.71l0 -1.86c0,-0.25 0.01,-0.5 0.04,-0.75 0.03,-0.25 0.07,-0.5 0.14,-0.74 0.07,-0.24 0.16,-0.46 0.27,-0.67 0.11,-0.21 0.26,-0.39 0.43,-0.55 0.18,-0.15 0.39,-0.28 0.64,-0.37 0.25,-0.09 0.53,-0.13 0.86,-0.13 0.5,0 0.91,0.09 1.22,0.26 0.31,0.17 0.56,0.4 0.73,0.69 0.17,0.29 0.29,0.63 0.35,1.01 0.06,0.38 0.09,0.78 0.09,1.2l-0.01 1.87zm8.31 0.77c0,0.38 -0.06,0.72 -0.18,1.04 -0.12,0.32 -0.28,0.59 -0.49,0.82 -0.21,0.23 -0.46,0.41 -0.76,0.54 -0.29,0.13 -0.61,0.2 -0.96,0.2 -0.35,0 -0.67,-0.05 -0.96,-0.16 -0.29,-0.11 -0.54,-0.27 -0.75,-0.49 -0.21,-0.22 -0.37,-0.5 -0.49,-0.84 -0.12,-0.33 -0.18,-0.73 -0.18,-1.18l0 -5.74 1.27 0 0 5.74c0,0.27 0.03,0.5 0.08,0.69 0.06,0.19 0.13,0.34 0.23,0.46 0.1,0.12 0.21,0.2 0.35,0.26 0.14,0.05 0.28,0.08 0.44,0.08 0.18,0 0.34,-0.04 0.48,-0.11 0.14,-0.07 0.25,-0.17 0.35,-0.31 0.09,-0.13 0.16,-0.29 0.21,-0.47 0.05,-0.18 0.07,-0.39 0.07,-0.61l0 -0.3c0,-0.24 -0.04,-0.47 -0.12,-0.69 -0.08,-0.22 -0.2,-0.42 -0.35,-0.61 -0.08,-0.1 -0.15,-0.2 -0.22,-0.3 -0.07,-0.1 -0.14,-0.2 -0.19,-0.3 -0.06,-0.1 -0.1,-0.2 -0.13,-0.31 -0.04,-0.11 -0.05,-0.21 -0.05,-0.32 0,-0.09 0.01,-0.17 0.02,-0.26 0.01,-0.09 0.04,-0.18 0.07,-0.27 0.03,-0.09 0.08,-0.19 0.13,-0.3 0.05,-0.11 0.13,-0.22 0.21,-0.35l1.33 0.37c-0.03,0.04 -0.07,0.08 -0.1,0.12 -0.03,0.04 -0.07,0.08 -0.1,0.12 -0.03,0.04 -0.06,0.07 -0.08,0.1 -0.02,0.03 -0.04,0.05 -0.04,0.06 -0.06,0.09 -0.11,0.16 -0.15,0.22 -0.03,0.06 -0.05,0.13 -0.05,0.2 0,0.12 0.05,0.24 0.15,0.38 0.1,0.14 0.21,0.28 0.34,0.42l-0.01 0c0.19,0.22 0.34,0.46 0.46,0.72 0.12,0.26 0.17,0.56 0.17,0.91l0 0.47zm5.76 0.56c0,0.36 -0.07,0.67 -0.2,0.93 -0.13,0.26 -0.31,0.47 -0.52,0.64 -0.22,0.17 -0.47,0.29 -0.76,0.36 -0.29,0.08 -0.59,0.12 -0.9,0.12 -0.34,0 -0.67,-0.05 -0.96,-0.16 -0.29,-0.11 -0.55,-0.26 -0.76,-0.45 -0.21,-0.19 -0.38,-0.42 -0.5,-0.68 -0.12,-0.26 -0.18,-0.55 -0.18,-0.86 0,-0.22 0.01,-0.42 0.03,-0.58 0.02,-0.16 0.05,-0.31 0.1,-0.45 0.05,-0.14 0.12,-0.26 0.2,-0.38 0.09,-0.12 0.19,-0.25 0.32,-0.38l0.96 0.38c-0.08,0.1 -0.14,0.2 -0.18,0.3 -0.04,0.1 -0.08,0.2 -0.1,0.31 -0.02,0.11 -0.04,0.23 -0.04,0.37 -0.01,0.13 -0.01,0.29 -0.01,0.46 0,0.31 0.09,0.55 0.27,0.72 0.18,0.17 0.46,0.25 0.84,0.25 0.34,0 0.61,-0.08 0.81,-0.24 0.2,-0.16 0.3,-0.38 0.3,-0.65l0 -4.36c0,-0.24 -0.08,-0.43 -0.25,-0.57 -0.16,-0.15 -0.39,-0.22 -0.67,-0.22 -0.29,0 -0.53,0.07 -0.71,0.21 -0.18,0.14 -0.27,0.34 -0.27,0.59 0,0.09 0,0.19 0.01,0.28 0.01,0.09 0.04,0.21 0.09,0.35l-1 0.36c-0.06,-0.09 -0.12,-0.17 -0.16,-0.23 -0.04,-0.07 -0.08,-0.14 -0.1,-0.21 -0.03,-0.07 -0.05,-0.15 -0.06,-0.23 -0.01,-0.08 -0.02,-0.19 -0.02,-0.31 0,-0.3 0.05,-0.57 0.16,-0.81 0.1,-0.24 0.25,-0.45 0.44,-0.63 0.19,-0.18 0.41,-0.31 0.68,-0.4 0.27,-0.1 0.56,-0.14 0.89,-0.14 0.32,0 0.62,0.04 0.89,0.13 0.27,0.08 0.51,0.21 0.71,0.38 0.2,0.17 0.36,0.37 0.48,0.62 0.12,0.25 0.17,0.53 0.17,0.86l0 4.39zm9.06 -0.7c0,0.17 -0.03,0.35 -0.09,0.55 -0.06,0.2 -0.15,0.4 -0.26,0.6 -0.11,0.21 -0.25,0.4 -0.41,0.6 -0.16,0.19 -0.34,0.36 -0.53,0.51 -0.2,0.15 -0.41,0.27 -0.64,0.36 -0.23,0.09 -0.47,0.13 -0.73,0.13l0 -1.19c0.19,0 0.37,-0.05 0.54,-0.16 0.17,-0.11 0.31,-0.24 0.44,-0.39 0.13,-0.15 0.22,-0.32 0.3,-0.5 0.07,-0.18 0.11,-0.35 0.11,-0.51l0 -0.78c0,-0.29 -0.03,-0.52 -0.1,-0.7 -0.07,-0.18 -0.15,-0.33 -0.26,-0.43 -0.1,-0.1 -0.21,-0.18 -0.33,-0.21 -0.12,-0.04 -0.22,-0.06 -0.31,-0.06 -0.11,0 -0.22,0.02 -0.34,0.06 -0.12,0.04 -0.23,0.11 -0.33,0.21 -0.1,0.1 -0.18,0.23 -0.24,0.39 -0.06,0.16 -0.1,0.37 -0.1,0.61l0 1.43 -1.28 0 0 -1.43c0,-0.24 -0.03,-0.45 -0.1,-0.61 -0.06,-0.16 -0.14,-0.3 -0.24,-0.39 -0.1,-0.1 -0.2,-0.17 -0.32,-0.21 -0.12,-0.04 -0.23,-0.06 -0.33,-0.06 -0.12,0 -0.25,0.02 -0.37,0.06 -0.12,0.04 -0.23,0.11 -0.32,0.21 -0.09,0.11 -0.17,0.25 -0.23,0.43 -0.06,0.18 -0.09,0.42 -0.09,0.7l0 0.81c0,0.15 0.03,0.32 0.1,0.49 0.06,0.18 0.16,0.34 0.28,0.5 0.12,0.15 0.27,0.28 0.44,0.39 0.17,0.1 0.36,0.16 0.58,0.16l0 1.18c-0.3,0 -0.57,-0.05 -0.81,-0.14 -0.25,-0.09 -0.47,-0.21 -0.67,-0.36 -0.2,-0.15 -0.37,-0.32 -0.52,-0.52 -0.15,-0.2 -0.28,-0.4 -0.38,-0.6 -0.1,-0.21 -0.17,-0.41 -0.22,-0.61 -0.05,-0.2 -0.07,-0.38 -0.07,-0.54l0 -0.75c0,-0.4 0.03,-0.8 0.1,-1.19 0.07,-0.4 0.19,-0.78 0.36,-1.14 0.17,-0.36 0.4,-0.7 0.69,-1.01 0.29,-0.31 0.65,-0.58 1.09,-0.81 0.44,-0.23 0.97,-0.41 1.58,-0.54 0.61,-0.13 1.32,-0.2 2.13,-0.2l0 1.19c-1,0 -1.83,0.11 -2.5,0.34 -0.67,0.22 -1.19,0.53 -1.55,0.92l0.35 -0.08c0.15,0 0.3,0.01 0.46,0.04 0.15,0.03 0.31,0.07 0.45,0.14 0.15,0.07 0.28,0.17 0.42,0.28 0.13,0.12 0.25,0.28 0.36,0.47 0.11,-0.19 0.24,-0.34 0.37,-0.46 0.14,-0.12 0.28,-0.21 0.42,-0.28 0.15,-0.07 0.29,-0.12 0.43,-0.14 0.14,-0.03 0.28,-0.04 0.41,-0.04 0.29,0 0.57,0.04 0.84,0.13 0.27,0.09 0.52,0.23 0.73,0.43 0.21,0.2 0.38,0.46 0.51,0.78 0.13,0.32 0.19,0.72 0.19,1.18l0 0.77zm5.92 -1.79c0,-0.6 -0.12,-1.06 -0.35,-1.39 -0.23,-0.33 -0.56,-0.54 -0.97,-0.64 0.01,0.27 0.02,0.54 0.04,0.82 0.02,0.28 0.03,0.57 0.05,0.85 0.02,0.28 0.03,0.56 0.04,0.84 0.02,0.28 0.03,0.54 0.04,0.79l-1.36 0 0.17 -3.3c-0.19,0.05 -0.36,0.13 -0.52,0.24 -0.16,0.11 -0.3,0.24 -0.42,0.41 -0.11,0.17 -0.21,0.36 -0.27,0.59 -0.06,0.23 -0.1,0.49 -0.1,0.78l0 1.51c0,0.23 0.04,0.45 0.13,0.68 0.09,0.22 0.21,0.42 0.37,0.59 0.16,0.17 0.35,0.31 0.58,0.42 0.22,0.11 0.48,0.16 0.75,0.16 0.27,0 0.51,-0.05 0.73,-0.15 0.22,-0.1 0.41,-0.23 0.57,-0.4 0.16,-0.17 0.29,-0.37 0.38,-0.59 0.09,-0.22 0.14,-0.46 0.14,-0.71l0 -1.51zm1.28 1.51c0,0.29 -0.04,0.57 -0.12,0.83 -0.08,0.26 -0.2,0.51 -0.34,0.73 -0.14,0.22 -0.32,0.42 -0.51,0.61 -0.2,0.18 -0.41,0.34 -0.64,0.46 -0.23,0.13 -0.47,0.22 -0.72,0.29 -0.25,0.07 -0.5,0.1 -0.75,0.1 -0.25,0 -0.51,-0.04 -0.76,-0.1 -0.25,-0.07 -0.5,-0.16 -0.73,-0.29 -0.23,-0.12 -0.44,-0.28 -0.64,-0.46 -0.2,-0.18 -0.37,-0.38 -0.51,-0.61 -0.14,-0.22 -0.26,-0.47 -0.34,-0.73 -0.08,-0.26 -0.12,-0.54 -0.12,-0.84l0 -1.51c0,-0.41 0.07,-0.79 0.2,-1.14 0.13,-0.35 0.31,-0.66 0.54,-0.94 0.22,-0.28 0.49,-0.51 0.78,-0.69 0.3,-0.18 0.61,-0.32 0.93,-0.39 -0.07,-0.13 -0.14,-0.26 -0.21,-0.4 -0.07,-0.13 -0.12,-0.24 -0.16,-0.31l1.92 0 -0.29 0.69c0.32,0.08 0.64,0.21 0.94,0.39 0.3,0.18 0.57,0.41 0.8,0.69 0.23,0.27 0.41,0.59 0.55,0.94 0.14,0.35 0.21,0.74 0.21,1.16l0 1.51zm5.92 -0.35c-0,0.36 -0.03,0.73 -0.08,1.1 -0.05,0.37 -0.15,0.72 -0.29,1.03 -0.14,0.32 -0.33,0.59 -0.58,0.82 -0.25,0.23 -0.57,0.39 -0.97,0.49l-0.12 -1.24c0.25,0 0.44,-0.19 0.57,-0.57 0.13,-0.38 0.19,-0.91 0.19,-1.6l0 -1.91c0,-0.31 -0.02,-0.59 -0.05,-0.83 -0.03,-0.24 -0.09,-0.45 -0.17,-0.62 -0.08,-0.17 -0.19,-0.3 -0.33,-0.39 -0.14,-0.09 -0.31,-0.13 -0.52,-0.13 -0.24,0 -0.43,0.05 -0.58,0.14 -0.15,0.09 -0.27,0.22 -0.35,0.39 -0.09,0.17 -0.14,0.38 -0.18,0.63 -0.03,0.25 -0.05,0.53 -0.05,0.84l0 1.87c0,0.34 0.01,0.64 0.03,0.91 0.01,0.27 0.04,0.5 0.09,0.68 0.04,0.19 0.1,0.33 0.18,0.43 0.07,0.1 0.17,0.15 0.27,0.15l-0.01 1.23c-0.28,-0.05 -0.52,-0.14 -0.72,-0.27 -0.2,-0.12 -0.37,-0.28 -0.5,-0.45 -0.13,-0.17 -0.24,-0.37 -0.32,-0.59 -0.08,-0.22 -0.14,-0.44 -0.18,-0.67 -0.04,-0.23 -0.07,-0.47 -0.08,-0.72 -0.01,-0.24 -0.02,-0.48 -0.02,-0.71l0 -1.86c0,-0.25 0.01,-0.5 0.04,-0.75 0.03,-0.25 0.07,-0.5 0.14,-0.74 0.07,-0.24 0.16,-0.46 0.27,-0.67 0.11,-0.21 0.26,-0.39 0.43,-0.55 0.18,-0.15 0.39,-0.28 0.64,-0.37 0.25,-0.09 0.53,-0.13 0.86,-0.13 0.5,0 0.91,0.09 1.22,0.26 0.31,0.17 0.56,0.4 0.73,0.69 0.17,0.29 0.29,0.63 0.35,1.01 0.06,0.38 0.09,0.78 0.09,1.2l-0.01 1.87zm4.45 -2.45c0,-0.27 -0.02,-0.49 -0.06,-0.67 -0.04,-0.18 -0.1,-0.32 -0.19,-0.43 -0.08,-0.11 -0.19,-0.18 -0.31,-0.23 -0.12,-0.05 -0.27,-0.07 -0.43,-0.07 -0.17,0 -0.31,0.02 -0.43,0.06 -0.12,0.04 -0.23,0.11 -0.31,0.21 -0.08,0.1 -0.15,0.24 -0.19,0.43 -0.04,0.18 -0.06,0.41 -0.06,0.7l0 0.47c0,0.26 0.02,0.47 0.06,0.63 0.04,0.16 0.1,0.29 0.19,0.39 0.08,0.1 0.19,0.16 0.31,0.2 0.13,0.04 0.27,0.05 0.44,0.05 0.2,0 0.36,-0.02 0.49,-0.08 0.13,-0.05 0.23,-0.13 0.31,-0.24 0.08,-0.11 0.13,-0.24 0.16,-0.4 0.03,-0.16 0.05,-0.35 0.05,-0.56l0 -0.47zm4.24 3.65c0,0.37 -0.08,0.68 -0.23,0.96 -0.16,0.27 -0.37,0.5 -0.65,0.68 -0.28,0.18 -0.6,0.32 -0.98,0.41 -0.38,0.09 -0.79,0.14 -1.24,0.14 -0.28,0 -0.56,-0.01 -0.83,-0.04 -0.27,-0.02 -0.52,-0.07 -0.76,-0.13 -0.24,-0.06 -0.46,-0.15 -0.66,-0.26 -0.2,-0.11 -0.38,-0.25 -0.52,-0.43 -0.14,-0.18 -0.26,-0.39 -0.34,-0.63 -0.08,-0.25 -0.12,-0.54 -0.11,-0.87l1.26 0.25c0,0.17 0.03,0.31 0.09,0.42 0.06,0.11 0.13,0.2 0.23,0.27 0.1,0.07 0.21,0.12 0.34,0.15 0.13,0.03 0.27,0.05 0.41,0.07 0.15,0.01 0.29,0.02 0.45,0.02 0.15,0 0.3,0 0.43,0 0.24,0 0.46,-0.02 0.68,-0.05 0.22,-0.03 0.41,-0.09 0.58,-0.17 0.17,-0.08 0.3,-0.18 0.4,-0.31 0.1,-0.13 0.15,-0.29 0.15,-0.47l0 -0.27c0,-0.11 -0.01,-0.22 -0.03,-0.35 -0.02,-0.12 -0.05,-0.24 -0.11,-0.35 -0.05,-0.11 -0.12,-0.2 -0.2,-0.27 -0.08,-0.07 -0.19,-0.11 -0.33,-0.11l-0.47 0 0 -1.18 0.47 0c0.14,0 0.25,-0.03 0.35,-0.1 0.1,-0.06 0.18,-0.15 0.24,-0.25 0.06,-0.1 0.11,-0.22 0.14,-0.35 0.03,-0.13 0.05,-0.26 0.05,-0.4l0 -0.26c0,-0.19 -0.01,-0.35 -0.03,-0.5 -0.02,-0.15 -0.06,-0.27 -0.13,-0.37 -0.07,-0.1 -0.16,-0.18 -0.29,-0.23 -0.12,-0.05 -0.29,-0.08 -0.5,-0.08 -0.16,0 -0.29,0.03 -0.4,0.1 -0.11,0.07 -0.2,0.16 -0.26,0.28 -0.07,0.12 -0.11,0.26 -0.14,0.42 -0.03,0.16 -0.04,0.34 -0.04,0.53l0 0.55c0,0.35 -0.05,0.68 -0.14,0.98 -0.09,0.3 -0.23,0.56 -0.42,0.78 -0.19,0.22 -0.43,0.39 -0.72,0.52 -0.29,0.12 -0.63,0.19 -1.02,0.19 -0.37,0 -0.69,-0.06 -0.97,-0.17 -0.28,-0.12 -0.52,-0.28 -0.71,-0.5 -0.19,-0.21 -0.34,-0.47 -0.44,-0.78 -0.1,-0.3 -0.15,-0.64 -0.15,-1.02l0 -0.47c0,-0.43 0.05,-0.81 0.16,-1.13 0.11,-0.32 0.26,-0.59 0.46,-0.81 0.2,-0.21 0.44,-0.38 0.72,-0.48 0.28,-0.11 0.59,-0.16 0.93,-0.16 0.14,0 0.29,0.01 0.44,0.04 0.15,0.03 0.29,0.07 0.43,0.13 0.14,0.06 0.28,0.14 0.41,0.24 0.13,0.1 0.25,0.23 0.36,0.37 0.1,-0.16 0.21,-0.29 0.34,-0.4 0.12,-0.1 0.25,-0.18 0.38,-0.24 0.13,-0.06 0.26,-0.1 0.39,-0.12 0.13,-0.02 0.26,-0.03 0.39,-0.03 0.39,0 0.72,0.05 1,0.16 0.28,0.11 0.51,0.26 0.69,0.46 0.18,0.2 0.32,0.44 0.41,0.73 0.09,0.29 0.13,0.61 0.13,0.97l0 0.25c0,0.14 -0.01,0.29 -0.03,0.45 -0.02,0.16 -0.06,0.31 -0.12,0.46 -0.06,0.15 -0.15,0.3 -0.26,0.44 -0.11,0.14 -0.27,0.26 -0.46,0.38 0.17,0.1 0.31,0.21 0.41,0.34 0.1,0.13 0.18,0.26 0.23,0.4 0.05,0.14 0.08,0.29 0.1,0.44 0.01,0.15 0.02,0.3 0.02,0.44l0 0.32zm6.05 -1.2c-0,0.36 -0.03,0.73 -0.08,1.1 -0.05,0.37 -0.15,0.72 -0.28,1.03 -0.14,0.32 -0.33,0.59 -0.58,0.82 -0.25,0.23 -0.57,0.39 -0.97,0.49l-0.12 -1.24c0.25,0 0.44,-0.19 0.58,-0.57 0.13,-0.38 0.19,-0.91 0.19,-1.6l0 -1.91c0,-0.31 -0.01,-0.59 -0.05,-0.83 -0.03,-0.24 -0.09,-0.45 -0.17,-0.62 -0.08,-0.17 -0.19,-0.3 -0.33,-0.39 -0.14,-0.09 -0.31,-0.13 -0.52,-0.13 -0.24,0 -0.43,0.05 -0.58,0.14 -0.15,0.09 -0.27,0.22 -0.35,0.39 -0.08,0.17 -0.14,0.38 -0.18,0.63 -0.03,0.25 -0.05,0.53 -0.05,0.84l0 1.87c0,0.34 0.01,0.64 0.03,0.91 0.02,0.27 0.05,0.5 0.09,0.68 0.04,0.19 0.1,0.33 0.18,0.43 0.07,0.1 0.17,0.15 0.28,0.15l-0.01 1.23c-0.28,-0.05 -0.52,-0.14 -0.72,-0.27 -0.2,-0.12 -0.37,-0.28 -0.5,-0.45 -0.13,-0.17 -0.24,-0.37 -0.32,-0.59 -0.08,-0.22 -0.14,-0.44 -0.18,-0.67 -0.04,-0.23 -0.07,-0.47 -0.08,-0.72 -0.01,-0.24 -0.02,-0.48 -0.02,-0.71l0 -1.86c0,-0.25 0.01,-0.5 0.04,-0.75 0.03,-0.25 0.07,-0.5 0.14,-0.74 0.07,-0.24 0.16,-0.46 0.27,-0.67 0.11,-0.21 0.26,-0.39 0.43,-0.55 0.18,-0.15 0.39,-0.28 0.64,-0.37 0.25,-0.09 0.53,-0.13 0.86,-0.13 0.5,0 0.91,0.09 1.22,0.26 0.31,0.17 0.56,0.4 0.73,0.69 0.17,0.29 0.29,0.63 0.35,1.01 0.06,0.38 0.09,0.78 0.09,1.2l-0.01 1.87zm6.66 0.76c0,0.38 -0.07,0.73 -0.21,1.05 -0.14,0.32 -0.33,0.6 -0.57,0.83 -0.24,0.23 -0.52,0.41 -0.85,0.54 -0.33,0.13 -0.68,0.2 -1.06,0.2 -0.39,0 -0.76,-0.07 -1.1,-0.22 -0.34,-0.15 -0.64,-0.35 -0.89,-0.62 -0.25,-0.26 -0.45,-0.58 -0.6,-0.96 -0.15,-0.37 -0.22,-0.78 -0.22,-1.24l0 -1.97c0,-0.18 0.01,-0.4 0.02,-0.66 0.01,-0.26 0.05,-0.54 0.11,-0.85 0.06,-0.31 0.15,-0.64 0.28,-0.99 0.12,-0.35 0.3,-0.71 0.53,-1.07l0.88 0.79c-0.12,0.21 -0.21,0.45 -0.28,0.7 -0.07,0.25 -0.12,0.5 -0.16,0.75 -0.04,0.25 -0.06,0.49 -0.08,0.72 -0.01,0.23 -0.02,0.43 -0.02,0.61l0 1.97c0,0.22 0.04,0.43 0.11,0.65 0.07,0.22 0.17,0.42 0.31,0.59 0.13,0.18 0.29,0.32 0.48,0.43 0.19,0.11 0.4,0.17 0.63,0.17 0.22,0 0.42,-0.04 0.6,-0.12 0.18,-0.08 0.32,-0.19 0.44,-0.32 0.12,-0.14 0.21,-0.29 0.27,-0.46 0.06,-0.17 0.09,-0.35 0.09,-0.54l0 -0.38c0,-0.16 -0.01,-0.3 -0.04,-0.43 -0.03,-0.13 -0.07,-0.24 -0.12,-0.33 -0.06,-0.09 -0.13,-0.17 -0.22,-0.22 -0.09,-0.05 -0.2,-0.08 -0.32,-0.08l-0.87 0 0 -1.18 0.87 0c0.12,0 0.23,-0.02 0.32,-0.07 0.09,-0.05 0.16,-0.11 0.22,-0.18 0.06,-0.07 0.1,-0.14 0.12,-0.22 0.03,-0.08 0.04,-0.14 0.04,-0.19 0,-0.06 -0.01,-0.11 -0.04,-0.15 -0.03,-0.05 -0.07,-0.1 -0.11,-0.15 -0.05,-0.05 -0.1,-0.09 -0.16,-0.14 -0.06,-0.04 -0.12,-0.09 -0.18,-0.13 -0.11,-0.08 -0.23,-0.17 -0.36,-0.28 -0.12,-0.11 -0.24,-0.23 -0.34,-0.39 -0.1,-0.15 -0.18,-0.33 -0.25,-0.54 -0.06,-0.21 -0.1,-0.46 -0.1,-0.74l1.16 0c0,0.16 0.02,0.29 0.05,0.4 0.04,0.11 0.09,0.21 0.15,0.29 0.06,0.08 0.14,0.16 0.22,0.22 0.08,0.06 0.16,0.12 0.25,0.18 0.12,0.08 0.24,0.17 0.36,0.26 0.12,0.09 0.22,0.18 0.32,0.3 0.09,0.11 0.17,0.23 0.23,0.37 0.06,0.14 0.09,0.3 0.09,0.48 0,0.08 -0,0.18 -0.01,0.29 -0.01,0.11 -0.03,0.22 -0.08,0.34 -0.05,0.12 -0.12,0.23 -0.22,0.35 -0.1,0.11 -0.24,0.22 -0.42,0.31 0.18,0.11 0.32,0.24 0.42,0.38 0.1,0.14 0.17,0.28 0.22,0.42 0.05,0.14 0.07,0.29 0.08,0.43 0.01,0.14 0.01,0.27 0.01,0.38l0 0.4zm5.92 -0.76c-0,0.36 -0.03,0.73 -0.08,1.1 -0.05,0.37 -0.15,0.72 -0.28,1.03 -0.14,0.32 -0.33,0.59 -0.58,0.82 -0.25,0.23 -0.57,0.39 -0.97,0.49l-0.12 -1.24c0.25,0 0.45,-0.19 0.58,-0.57 0.13,-0.38 0.19,-0.91 0.19,-1.6l0 -1.91c0,-0.31 -0.01,-0.59 -0.05,-0.83 -0.03,-0.24 -0.09,-0.45 -0.17,-0.62 -0.08,-0.17 -0.19,-0.3 -0.33,-0.39 -0.14,-0.09 -0.31,-0.13 -0.52,-0.13 -0.24,0 -0.43,0.05 -0.58,0.14 -0.15,0.09 -0.27,0.22 -0.35,0.39 -0.08,0.17 -0.14,0.38 -0.18,0.63 -0.03,0.25 -0.05,0.53 -0.05,0.84l0 1.87c0,0.34 0.01,0.64 0.03,0.91 0.02,0.27 0.05,0.5 0.09,0.68 0.04,0.19 0.1,0.33 0.18,0.43 0.07,0.1 0.17,0.15 0.28,0.15l-0.01 1.23c-0.28,-0.05 -0.52,-0.14 -0.72,-0.27 -0.2,-0.12 -0.37,-0.28 -0.5,-0.45 -0.13,-0.17 -0.24,-0.37 -0.32,-0.59 -0.08,-0.22 -0.14,-0.44 -0.18,-0.67 -0.04,-0.23 -0.07,-0.47 -0.08,-0.72 -0.01,-0.24 -0.02,-0.48 -0.02,-0.71l0 -1.86c0,-0.25 0.01,-0.5 0.04,-0.75 0.03,-0.25 0.07,-0.5 0.14,-0.74 0.07,-0.24 0.16,-0.46 0.27,-0.67 0.11,-0.21 0.26,-0.39 0.43,-0.55 0.18,-0.15 0.39,-0.28 0.64,-0.37 0.25,-0.09 0.53,-0.13 0.86,-0.13 0.5,0 0.91,0.09 1.22,0.26 0.31,0.17 0.56,0.4 0.73,0.69 0.17,0.29 0.29,0.63 0.35,1.01 0.06,0.38 0.09,0.78 0.09,1.2l-0.01 1.87zm9.01 0.63c0,0.17 -0.03,0.35 -0.09,0.55 -0.06,0.2 -0.15,0.4 -0.26,0.6 -0.11,0.21 -0.25,0.4 -0.41,0.6 -0.16,0.19 -0.34,0.36 -0.53,0.51 -0.2,0.15 -0.41,0.27 -0.64,0.36 -0.23,0.09 -0.47,0.13 -0.73,0.13l0 -1.19c0.19,0 0.37,-0.05 0.54,-0.16 0.17,-0.11 0.31,-0.24 0.44,-0.39 0.13,-0.15 0.22,-0.32 0.3,-0.5 0.07,-0.18 0.11,-0.35 0.11,-0.51l0 -0.78c0,-0.29 -0.03,-0.52 -0.1,-0.7 -0.07,-0.18 -0.16,-0.33 -0.26,-0.43 -0.1,-0.1 -0.21,-0.18 -0.33,-0.21 -0.11,-0.04 -0.22,-0.06 -0.31,-0.06 -0.11,0 -0.22,0.02 -0.34,0.06 -0.12,0.04 -0.23,0.11 -0.33,0.21 -0.1,0.1 -0.18,0.23 -0.25,0.39 -0.06,0.16 -0.1,0.37 -0.1,0.61l0 1.43 -1.28 0 0 -1.43c0,-0.24 -0.03,-0.45 -0.1,-0.61 -0.06,-0.16 -0.14,-0.3 -0.24,-0.39 -0.1,-0.1 -0.2,-0.17 -0.32,-0.21 -0.12,-0.04 -0.23,-0.06 -0.33,-0.06 -0.12,0 -0.25,0.02 -0.37,0.06 -0.12,0.04 -0.23,0.11 -0.32,0.21 -0.09,0.11 -0.17,0.25 -0.23,0.43 -0.06,0.18 -0.09,0.42 -0.09,0.7l0 0.81c0,0.15 0.03,0.32 0.1,0.49 0.06,0.18 0.16,0.34 0.28,0.5 0.12,0.15 0.27,0.28 0.44,0.39 0.17,0.1 0.36,0.16 0.58,0.16l0 1.18c-0.3,0 -0.57,-0.05 -0.81,-0.14 -0.25,-0.09 -0.47,-0.21 -0.66,-0.36 -0.2,-0.15 -0.37,-0.32 -0.52,-0.52 -0.15,-0.2 -0.28,-0.4 -0.38,-0.6 -0.1,-0.21 -0.17,-0.41 -0.22,-0.61 -0.05,-0.2 -0.07,-0.38 -0.07,-0.54l0 -0.75c0,-0.4 0.03,-0.8 0.1,-1.19 0.07,-0.4 0.19,-0.78 0.36,-1.14 0.17,-0.36 0.4,-0.7 0.69,-1.01 0.29,-0.31 0.65,-0.58 1.09,-0.81 0.44,-0.23 0.97,-0.41 1.58,-0.54 0.61,-0.13 1.32,-0.2 2.13,-0.2l0 1.19c-1,0 -1.83,0.11 -2.5,0.34 -0.67,0.22 -1.18,0.53 -1.55,0.92l0.35 -0.08c0.15,0 0.3,0.01 0.46,0.04 0.15,0.03 0.31,0.07 0.45,0.14 0.14,0.07 0.28,0.17 0.41,0.28 0.13,0.12 0.25,0.28 0.36,0.47 0.11,-0.19 0.24,-0.34 0.37,-0.46 0.14,-0.12 0.28,-0.21 0.42,-0.28 0.14,-0.07 0.29,-0.12 0.43,-0.14 0.14,-0.03 0.28,-0.04 0.41,-0.04 0.29,0 0.57,0.04 0.84,0.13 0.27,0.09 0.52,0.23 0.73,0.43 0.21,0.2 0.38,0.46 0.51,0.78 0.13,0.32 0.19,0.72 0.19,1.18l0 0.77zm5.76 0.7c0,0.36 -0.07,0.67 -0.2,0.93 -0.13,0.26 -0.31,0.47 -0.52,0.64 -0.22,0.17 -0.47,0.29 -0.76,0.36 -0.29,0.08 -0.59,0.12 -0.9,0.12 -0.34,0 -0.67,-0.05 -0.96,-0.16 -0.29,-0.11 -0.54,-0.26 -0.75,-0.45 -0.21,-0.19 -0.38,-0.42 -0.5,-0.68 -0.12,-0.26 -0.18,-0.55 -0.18,-0.86 0,-0.22 0.01,-0.42 0.03,-0.58 0.02,-0.16 0.05,-0.31 0.1,-0.45 0.05,-0.14 0.12,-0.26 0.2,-0.38 0.08,-0.12 0.19,-0.25 0.32,-0.38l0.95 0.38c-0.08,0.1 -0.14,0.2 -0.18,0.3 -0.04,0.1 -0.08,0.2 -0.1,0.31 -0.02,0.11 -0.04,0.23 -0.04,0.37 -0.01,0.13 -0.01,0.29 -0.01,0.46 0,0.31 0.09,0.55 0.27,0.72 0.18,0.17 0.46,0.25 0.84,0.25 0.34,0 0.61,-0.08 0.81,-0.24 0.2,-0.16 0.3,-0.38 0.3,-0.65l0 -4.36c0,-0.24 -0.08,-0.43 -0.24,-0.57 -0.16,-0.15 -0.39,-0.22 -0.67,-0.22 -0.29,0 -0.53,0.07 -0.71,0.21 -0.18,0.14 -0.27,0.34 -0.27,0.59 0,0.09 0,0.19 0.01,0.28 0.01,0.09 0.04,0.21 0.09,0.35l-1 0.36c-0.06,-0.09 -0.12,-0.17 -0.16,-0.23 -0.04,-0.07 -0.08,-0.14 -0.1,-0.21 -0.03,-0.07 -0.05,-0.15 -0.06,-0.23 -0.01,-0.08 -0.02,-0.19 -0.02,-0.31 0,-0.3 0.05,-0.57 0.15,-0.81 0.1,-0.24 0.25,-0.45 0.44,-0.63 0.19,-0.18 0.41,-0.31 0.68,-0.4 0.27,-0.1 0.56,-0.14 0.89,-0.14 0.32,0 0.62,0.04 0.89,0.13 0.27,0.08 0.51,0.21 0.71,0.38 0.2,0.17 0.36,0.37 0.48,0.62 0.11,0.25 0.17,0.53 0.17,0.86l0 4.39zm2.5 -0.43c0,0.17 0.02,0.33 0.06,0.49 0.04,0.16 0.11,0.3 0.2,0.42 0.09,0.12 0.2,0.21 0.34,0.29 0.14,0.07 0.31,0.11 0.5,0.11 0.2,0 0.37,-0.04 0.51,-0.12 0.14,-0.08 0.25,-0.18 0.34,-0.3 0.09,-0.12 0.15,-0.26 0.19,-0.4 0.04,-0.14 0.06,-0.28 0.06,-0.42l0 -1.04c0,-0.15 -0.02,-0.3 -0.07,-0.46 -0.05,-0.16 -0.12,-0.3 -0.21,-0.43 -0.09,-0.13 -0.2,-0.23 -0.34,-0.31 -0.14,-0.08 -0.3,-0.12 -0.49,-0.12 -0.2,0 -0.37,0.04 -0.51,0.11 -0.14,0.07 -0.25,0.17 -0.34,0.29 -0.09,0.12 -0.15,0.27 -0.19,0.43 -0.04,0.16 -0.06,0.34 -0.06,0.52l0 0.95zm0.66 -5.93c0,0.13 0.02,0.24 0.05,0.33 0.03,0.09 0.08,0.17 0.14,0.23 0.06,0.06 0.12,0.12 0.19,0.16 0.07,0.04 0.14,0.08 0.21,0.11 0.1,0.05 0.21,0.11 0.31,0.16 0.1,0.06 0.19,0.12 0.27,0.2 0.08,0.07 0.15,0.16 0.2,0.26 0.05,0.1 0.08,0.22 0.08,0.35 0,0.17 -0.01,0.32 -0.04,0.44 -0.02,0.12 -0.06,0.24 -0.12,0.37 0.25,0.1 0.48,0.24 0.67,0.42 0.19,0.17 0.35,0.37 0.48,0.58 0.13,0.21 0.22,0.43 0.29,0.66 0.06,0.23 0.1,0.45 0.1,0.65l0.01 1.14c0,0.16 -0.02,0.33 -0.07,0.51 -0.05,0.18 -0.11,0.35 -0.2,0.53 -0.09,0.18 -0.2,0.34 -0.34,0.5 -0.13,0.16 -0.29,0.3 -0.47,0.42 -0.18,0.12 -0.38,0.22 -0.59,0.29 -0.22,0.07 -0.46,0.11 -0.72,0.11 -0.39,0 -0.74,-0.07 -1.04,-0.22 -0.3,-0.14 -0.54,-0.33 -0.75,-0.55 -0.2,-0.23 -0.35,-0.48 -0.45,-0.76 -0.1,-0.28 -0.15,-0.56 -0.15,-0.83l0 -1.12c0,-0.25 0.03,-0.5 0.1,-0.76 0.07,-0.26 0.18,-0.49 0.34,-0.71 0.16,-0.22 0.36,-0.41 0.61,-0.57 0.25,-0.16 0.55,-0.28 0.91,-0.35 0.03,-0.09 0.06,-0.16 0.08,-0.22 0.02,-0.06 0.03,-0.12 0.04,-0.17 0.01,-0.05 0.02,-0.1 0.02,-0.15 0,-0.05 0,-0.1 0,-0.15 -0.02,-0.03 -0.06,-0.06 -0.13,-0.1 -0.07,-0.04 -0.16,-0.09 -0.26,-0.14 -0.12,-0.06 -0.24,-0.13 -0.37,-0.21 -0.12,-0.08 -0.24,-0.17 -0.34,-0.29 -0.1,-0.12 -0.19,-0.27 -0.25,-0.44 -0.07,-0.18 -0.1,-0.4 -0.1,-0.66l1.28 0zm8.75 5.03c-0,0.36 -0.03,0.73 -0.08,1.1 -0.05,0.37 -0.15,0.72 -0.28,1.03 -0.14,0.32 -0.33,0.59 -0.58,0.82 -0.25,0.23 -0.57,0.39 -0.97,0.49l-0.12 -1.24c0.25,0 0.44,-0.19 0.57,-0.57 0.13,-0.38 0.19,-0.91 0.19,-1.6l0 -1.91c0,-0.31 -0.02,-0.59 -0.05,-0.83 -0.03,-0.24 -0.09,-0.45 -0.17,-0.62 -0.08,-0.17 -0.19,-0.3 -0.33,-0.39 -0.14,-0.09 -0.31,-0.13 -0.52,-0.13 -0.24,0 -0.43,0.05 -0.58,0.14 -0.15,0.09 -0.27,0.22 -0.35,0.39 -0.08,0.17 -0.14,0.38 -0.18,0.63 -0.03,0.25 -0.05,0.53 -0.05,0.84l0 1.87c0,0.34 0.01,0.64 0.03,0.91 0.01,0.27 0.05,0.5 0.09,0.68 0.04,0.19 0.1,0.33 0.18,0.43 0.07,0.1 0.17,0.15 0.27,0.15l-0.01 1.23c-0.28,-0.05 -0.52,-0.14 -0.72,-0.27 -0.2,-0.12 -0.37,-0.28 -0.5,-0.45 -0.13,-0.17 -0.24,-0.37 -0.32,-0.59 -0.08,-0.22 -0.14,-0.44 -0.18,-0.67 -0.04,-0.23 -0.07,-0.47 -0.08,-0.72 -0.01,-0.24 -0.02,-0.48 -0.02,-0.71l0 -1.86c0,-0.25 0.01,-0.5 0.04,-0.75 0.03,-0.25 0.07,-0.5 0.14,-0.74 0.07,-0.24 0.16,-0.46 0.27,-0.67 0.11,-0.21 0.26,-0.39 0.44,-0.55 0.18,-0.15 0.39,-0.28 0.64,-0.37 0.25,-0.09 0.53,-0.13 0.86,-0.13 0.5,0 0.91,0.09 1.22,0.26 0.31,0.17 0.56,0.4 0.73,0.69 0.17,0.29 0.29,0.63 0.35,1.01 0.06,0.38 0.09,0.78 0.09,1.2l-0.01 1.87zm6.1 0.77c0,0.38 -0.06,0.72 -0.18,1.04 -0.12,0.32 -0.28,0.59 -0.49,0.82 -0.21,0.23 -0.46,0.41 -0.76,0.54 -0.29,0.13 -0.61,0.2 -0.96,0.2 -0.35,0 -0.67,-0.05 -0.96,-0.16 -0.29,-0.11 -0.54,-0.27 -0.75,-0.49 -0.21,-0.22 -0.37,-0.5 -0.49,-0.84 -0.12,-0.33 -0.18,-0.73 -0.18,-1.18l0 -5.74 1.27 0 0 5.74c0,0.27 0.03,0.5 0.08,0.69 0.06,0.19 0.13,0.34 0.23,0.46 0.1,0.12 0.21,0.2 0.35,0.26 0.14,0.05 0.28,0.08 0.44,0.08 0.19,0 0.34,-0.04 0.48,-0.11 0.14,-0.07 0.25,-0.17 0.35,-0.31 0.09,-0.13 0.16,-0.29 0.21,-0.47 0.05,-0.18 0.07,-0.39 0.07,-0.61l0 -0.3c0,-0.24 -0.04,-0.47 -0.12,-0.69 -0.08,-0.22 -0.2,-0.42 -0.35,-0.61 -0.08,-0.1 -0.15,-0.2 -0.22,-0.3 -0.07,-0.1 -0.14,-0.2 -0.19,-0.3 -0.05,-0.1 -0.1,-0.2 -0.13,-0.31 -0.04,-0.11 -0.05,-0.21 -0.05,-0.32 0,-0.09 0.01,-0.17 0.02,-0.26 0.01,-0.09 0.04,-0.18 0.07,-0.27 0.03,-0.09 0.07,-0.19 0.13,-0.3 0.05,-0.11 0.13,-0.22 0.21,-0.35l1.33 0.37c-0.03,0.04 -0.07,0.08 -0.1,0.12 -0.03,0.04 -0.07,0.08 -0.1,0.12 -0.03,0.04 -0.06,0.07 -0.08,0.1 -0.02,0.03 -0.04,0.05 -0.04,0.06 -0.06,0.09 -0.11,0.16 -0.15,0.22 -0.03,0.06 -0.05,0.13 -0.05,0.2 0,0.12 0.05,0.24 0.15,0.38 0.1,0.14 0.21,0.28 0.34,0.42l-0.01 0c0.19,0.22 0.34,0.46 0.46,0.72 0.12,0.26 0.17,0.56 0.17,0.91l0 0.47zm8.13 -0.77c-0,0.36 -0.03,0.73 -0.08,1.1 -0.05,0.37 -0.15,0.72 -0.28,1.03 -0.14,0.32 -0.33,0.59 -0.58,0.82 -0.25,0.23 -0.57,0.39 -0.97,0.49l-0.12 -1.24c0.25,0 0.44,-0.19 0.57,-0.57 0.13,-0.38 0.19,-0.91 0.19,-1.6l0 -1.91c0,-0.31 -0.02,-0.59 -0.05,-0.83 -0.03,-0.24 -0.09,-0.45 -0.17,-0.62 -0.08,-0.17 -0.19,-0.3 -0.33,-0.39 -0.14,-0.09 -0.31,-0.13 -0.52,-0.13 -0.24,0 -0.43,0.05 -0.58,0.14 -0.15,0.09 -0.27,0.22 -0.35,0.39 -0.08,0.17 -0.14,0.38 -0.18,0.63 -0.03,0.25 -0.05,0.53 -0.05,0.84l0 1.87c0,0.34 0.01,0.64 0.03,0.91 0.02,0.27 0.05,0.5 0.09,0.68 0.04,0.19 0.1,0.33 0.18,0.43 0.07,0.1 0.17,0.15 0.28,0.15l-0.01 1.23c-0.28,-0.05 -0.52,-0.14 -0.72,-0.27 -0.2,-0.12 -0.37,-0.28 -0.5,-0.45 -0.13,-0.17 -0.24,-0.37 -0.32,-0.59 -0.08,-0.22 -0.14,-0.44 -0.18,-0.67 -0.04,-0.23 -0.07,-0.47 -0.08,-0.72 -0.01,-0.24 -0.02,-0.48 -0.02,-0.71l0 -1.86c0,-0.25 0.01,-0.5 0.04,-0.75 0.03,-0.25 0.07,-0.5 0.14,-0.74 0.07,-0.24 0.16,-0.46 0.27,-0.67 0.11,-0.21 0.26,-0.39 0.44,-0.55 0.18,-0.15 0.39,-0.28 0.64,-0.37 0.25,-0.09 0.53,-0.13 0.86,-0.13 0.5,0 0.91,0.09 1.22,0.26 0.31,0.17 0.56,0.4 0.73,0.69 0.17,0.29 0.29,0.63 0.35,1.01 0.06,0.38 0.09,0.78 0.09,1.2l-0.01 1.87zm4.82 -0.24c0,-0.18 -0.02,-0.35 -0.07,-0.5 -0.05,-0.16 -0.12,-0.29 -0.21,-0.4 -0.09,-0.11 -0.21,-0.2 -0.34,-0.26 -0.14,-0.06 -0.3,-0.09 -0.48,-0.09 -0.1,0 -0.21,0.01 -0.34,0.02 -0.13,0.02 -0.25,0.06 -0.36,0.14 -0.12,0.08 -0.21,0.2 -0.29,0.38 -0.08,0.17 -0.12,0.41 -0.12,0.72l0 1.22c0,0.17 0.02,0.32 0.07,0.47 0.04,0.15 0.11,0.28 0.2,0.39 0.09,0.11 0.21,0.2 0.35,0.26 0.14,0.06 0.3,0.1 0.49,0.1 0.37,0 0.65,-0.11 0.83,-0.33 0.18,-0.22 0.28,-0.54 0.28,-0.95l0 -1.16zm1.28 1.24c0,0.36 -0.05,0.69 -0.15,0.99 -0.1,0.3 -0.26,0.55 -0.46,0.75 -0.2,0.21 -0.45,0.37 -0.75,0.48 -0.29,0.11 -0.63,0.17 -1.02,0.17 -0.35,0 -0.67,-0.06 -0.96,-0.17 -0.29,-0.11 -0.54,-0.27 -0.76,-0.48 -0.21,-0.21 -0.38,-0.46 -0.5,-0.75 -0.12,-0.29 -0.18,-0.63 -0.18,-1l0 -4.26c0,-0.29 0.04,-0.53 0.12,-0.74 0.08,-0.21 0.19,-0.38 0.32,-0.52 0.14,-0.14 0.3,-0.24 0.48,-0.3 0.18,-0.07 0.38,-0.1 0.59,-0.1 0.17,0 0.34,0.02 0.49,0.05 0.15,0.03 0.3,0.06 0.45,0.09l-0.01 0c0.13,0.03 0.25,0.05 0.37,0.08 0.12,0.02 0.23,0.03 0.33,0.03 0.18,0 0.38,-0.04 0.61,-0.13 0.22,-0.08 0.51,-0.21 0.86,-0.37l0 1.12c-0.15,0.09 -0.29,0.17 -0.43,0.24 -0.13,0.06 -0.26,0.12 -0.38,0.16 -0.12,0.04 -0.24,0.07 -0.36,0.09 -0.12,0.02 -0.24,0.03 -0.36,0.03 -0.15,0 -0.29,-0.01 -0.41,-0.03 -0.13,-0.02 -0.25,-0.05 -0.37,-0.08 -0.1,-0.02 -0.21,-0.04 -0.32,-0.06 -0.1,-0.02 -0.21,-0.03 -0.32,-0.03 -0.16,-0 -0.28,0.04 -0.35,0.14 -0.07,0.1 -0.11,0.22 -0.11,0.37l0 0.98c0.2,-0.16 0.4,-0.26 0.6,-0.32 0.2,-0.05 0.39,-0.08 0.57,-0.08 0.38,0 0.72,0.07 1.02,0.2 0.3,0.14 0.55,0.31 0.75,0.53 0.2,0.22 0.36,0.47 0.46,0.76 0.11,0.29 0.16,0.59 0.16,0.9l0 1.27zm5.92 -0.22c0,0.38 -0.06,0.72 -0.18,1.04 -0.12,0.32 -0.28,0.59 -0.49,0.82 -0.21,0.23 -0.46,0.41 -0.76,0.54 -0.29,0.13 -0.61,0.2 -0.96,0.2 -0.35,0 -0.67,-0.05 -0.96,-0.16 -0.29,-0.11 -0.54,-0.27 -0.75,-0.49 -0.21,-0.22 -0.37,-0.5 -0.49,-0.84 -0.12,-0.33 -0.18,-0.73 -0.18,-1.18l0 -5.74 1.27 0 0 5.74c0,0.27 0.03,0.5 0.08,0.69 0.06,0.19 0.13,0.34 0.23,0.46 0.1,0.12 0.21,0.2 0.35,0.26 0.14,0.05 0.28,0.08 0.44,0.08 0.18,0 0.34,-0.04 0.48,-0.11 0.14,-0.07 0.25,-0.17 0.35,-0.31 0.09,-0.13 0.16,-0.29 0.21,-0.47 0.05,-0.18 0.07,-0.39 0.07,-0.61l0 -0.3c0,-0.24 -0.04,-0.47 -0.12,-0.69 -0.08,-0.22 -0.2,-0.42 -0.35,-0.61 -0.08,-0.1 -0.15,-0.2 -0.22,-0.3 -0.07,-0.1 -0.14,-0.2 -0.19,-0.3 -0.06,-0.1 -0.1,-0.2 -0.13,-0.31 -0.04,-0.11 -0.05,-0.21 -0.05,-0.32 0,-0.09 0.01,-0.17 0.02,-0.26 0.01,-0.09 0.04,-0.18 0.07,-0.27 0.03,-0.09 0.08,-0.19 0.13,-0.3 0.05,-0.11 0.13,-0.22 0.21,-0.35l1.33 0.37c-0.03,0.04 -0.07,0.08 -0.1,0.12 -0.03,0.04 -0.07,0.08 -0.1,0.12 -0.03,0.04 -0.06,0.07 -0.08,0.1 -0.02,0.03 -0.04,0.05 -0.04,0.06 -0.06,0.09 -0.11,0.16 -0.15,0.22 -0.03,0.06 -0.05,0.13 -0.05,0.2 0,0.12 0.05,0.24 0.15,0.38 0.1,0.14 0.21,0.28 0.34,0.42l-0.01 0c0.19,0.22 0.34,0.46 0.46,0.72 0.12,0.26 0.17,0.56 0.17,0.91l0 0.47zm5.92 -1.93c0,-0.6 -0.12,-1.06 -0.35,-1.39 -0.23,-0.33 -0.56,-0.54 -0.97,-0.64 0.01,0.27 0.02,0.54 0.04,0.82 0.01,0.28 0.03,0.57 0.04,0.85 0.02,0.28 0.03,0.56 0.04,0.84 0.01,0.28 0.03,0.54 0.04,0.79l-1.36 0 0.17 -3.3c-0.19,0.05 -0.36,0.13 -0.52,0.24 -0.16,0.11 -0.3,0.24 -0.42,0.41 -0.12,0.17 -0.21,0.36 -0.27,0.59 -0.06,0.23 -0.1,0.49 -0.1,0.78l0 1.51c0,0.23 0.04,0.45 0.13,0.68 0.09,0.22 0.21,0.42 0.37,0.59 0.16,0.17 0.35,0.31 0.58,0.42 0.22,0.11 0.48,0.16 0.76,0.16 0.27,0 0.51,-0.05 0.73,-0.15 0.22,-0.1 0.41,-0.23 0.57,-0.4 0.16,-0.17 0.29,-0.37 0.38,-0.59 0.09,-0.22 0.14,-0.46 0.14,-0.71l0 -1.51zm1.28 1.51c0,0.29 -0.04,0.57 -0.12,0.83 -0.08,0.26 -0.2,0.51 -0.34,0.73 -0.15,0.22 -0.32,0.42 -0.51,0.61 -0.2,0.18 -0.41,0.34 -0.64,0.46 -0.23,0.13 -0.47,0.22 -0.72,0.29 -0.25,0.07 -0.5,0.1 -0.75,0.1 -0.25,0 -0.51,-0.04 -0.76,-0.1 -0.25,-0.07 -0.5,-0.16 -0.73,-0.29 -0.23,-0.12 -0.45,-0.28 -0.64,-0.46 -0.2,-0.18 -0.37,-0.38 -0.51,-0.61 -0.14,-0.22 -0.26,-0.47 -0.34,-0.73 -0.08,-0.26 -0.12,-0.54 -0.12,-0.84l0 -1.51c0,-0.41 0.07,-0.79 0.2,-1.14 0.13,-0.35 0.31,-0.66 0.54,-0.94 0.22,-0.28 0.49,-0.51 0.78,-0.69 0.3,-0.18 0.61,-0.32 0.93,-0.39 -0.07,-0.13 -0.14,-0.26 -0.21,-0.4 -0.07,-0.13 -0.12,-0.24 -0.16,-0.31l1.92 0 -0.29 0.69c0.32,0.08 0.64,0.21 0.94,0.39 0.3,0.18 0.57,0.41 0.8,0.69 0.23,0.27 0.41,0.59 0.55,0.94 0.14,0.35 0.21,0.74 0.21,1.16l0 1.51zm5.92 -0.35c-0,0.36 -0.03,0.73 -0.08,1.1 -0.05,0.37 -0.15,0.72 -0.28,1.03 -0.14,0.32 -0.33,0.59 -0.58,0.82 -0.25,0.23 -0.57,0.39 -0.97,0.49l-0.12 -1.24c0.25,0 0.44,-0.19 0.57,-0.57 0.13,-0.38 0.19,-0.91 0.19,-1.6l0 -1.91c0,-0.31 -0.01,-0.59 -0.05,-0.83 -0.03,-0.24 -0.09,-0.45 -0.17,-0.62 -0.08,-0.17 -0.19,-0.3 -0.33,-0.39 -0.14,-0.09 -0.31,-0.13 -0.52,-0.13 -0.24,0 -0.43,0.05 -0.58,0.14 -0.15,0.09 -0.27,0.22 -0.35,0.39 -0.08,0.17 -0.14,0.38 -0.18,0.63 -0.03,0.25 -0.05,0.53 -0.05,0.84l0 1.87c0,0.34 0.01,0.64 0.03,0.91 0.02,0.27 0.05,0.5 0.09,0.68 0.04,0.19 0.1,0.33 0.18,0.43 0.07,0.1 0.17,0.15 0.28,0.15l-0.01 1.23c-0.28,-0.05 -0.52,-0.14 -0.72,-0.27 -0.2,-0.12 -0.37,-0.28 -0.5,-0.45 -0.13,-0.17 -0.24,-0.37 -0.32,-0.59 -0.08,-0.22 -0.14,-0.44 -0.18,-0.67 -0.04,-0.23 -0.07,-0.47 -0.08,-0.72 -0.01,-0.24 -0.02,-0.48 -0.02,-0.71l0 -1.86c0,-0.25 0.01,-0.5 0.04,-0.75 0.03,-0.25 0.07,-0.5 0.14,-0.74 0.07,-0.24 0.16,-0.46 0.27,-0.67 0.11,-0.21 0.26,-0.39 0.44,-0.55 0.18,-0.15 0.39,-0.28 0.63,-0.37 0.25,-0.09 0.53,-0.13 0.86,-0.13 0.5,0 0.91,0.09 1.22,0.26 0.31,0.17 0.56,0.4 0.73,0.69 0.17,0.29 0.29,0.63 0.35,1.01 0.06,0.38 0.09,0.78 0.09,1.2l-0.01 1.87zm6.09 -1.16c0,-0.6 -0.12,-1.06 -0.35,-1.39 -0.23,-0.33 -0.56,-0.54 -0.97,-0.64 0.01,0.27 0.02,0.54 0.04,0.82 0.02,0.28 0.03,0.57 0.05,0.85 0.02,0.28 0.03,0.56 0.04,0.84 0.01,0.28 0.03,0.54 0.04,0.79l-1.36 0 0.17 -3.3c-0.19,0.05 -0.36,0.13 -0.52,0.24 -0.16,0.11 -0.3,0.24 -0.41,0.41 -0.12,0.17 -0.21,0.36 -0.27,0.59 -0.06,0.23 -0.1,0.49 -0.1,0.78l0 1.51c0,0.23 0.04,0.45 0.13,0.68 0.09,0.22 0.21,0.42 0.37,0.59 0.16,0.17 0.35,0.31 0.58,0.42 0.22,0.11 0.48,0.16 0.76,0.16 0.27,0 0.51,-0.05 0.73,-0.15 0.22,-0.1 0.41,-0.23 0.58,-0.4 0.16,-0.17 0.28,-0.37 0.37,-0.59 0.09,-0.22 0.14,-0.46 0.14,-0.71l0 -1.51zm1.28 1.51c0,0.29 -0.04,0.57 -0.12,0.83 -0.08,0.26 -0.2,0.51 -0.34,0.73 -0.15,0.22 -0.32,0.42 -0.51,0.61 -0.2,0.18 -0.41,0.34 -0.64,0.46 -0.23,0.13 -0.47,0.22 -0.72,0.29 -0.25,0.07 -0.5,0.1 -0.75,0.1 -0.25,0 -0.51,-0.04 -0.76,-0.1 -0.25,-0.07 -0.5,-0.16 -0.73,-0.29 -0.23,-0.12 -0.44,-0.28 -0.64,-0.46 -0.2,-0.18 -0.37,-0.38 -0.51,-0.61 -0.14,-0.22 -0.26,-0.47 -0.34,-0.73 -0.08,-0.26 -0.12,-0.54 -0.12,-0.84l0 -1.51c0,-0.41 0.07,-0.79 0.2,-1.14 0.13,-0.35 0.31,-0.66 0.54,-0.94 0.22,-0.28 0.49,-0.51 0.78,-0.69 0.3,-0.18 0.61,-0.32 0.93,-0.39 -0.07,-0.13 -0.14,-0.26 -0.21,-0.4 -0.07,-0.13 -0.12,-0.24 -0.16,-0.31l1.92 0 -0.29 0.69c0.32,0.08 0.64,0.21 0.94,0.39 0.3,0.18 0.57,0.41 0.79,0.69 0.23,0.27 0.42,0.59 0.55,0.94 0.14,0.35 0.21,0.74 0.21,1.16l0 1.51zm6.34 0.55c0,0.41 -0.05,0.77 -0.15,1.08 -0.1,0.31 -0.25,0.57 -0.44,0.78 -0.19,0.21 -0.43,0.36 -0.71,0.47 -0.28,0.1 -0.6,0.15 -0.96,0.15 -0.39,0 -0.73,-0.06 -1.04,-0.17 -0.31,-0.12 -0.57,-0.28 -0.78,-0.49 -0.21,-0.21 -0.38,-0.45 -0.49,-0.74 -0.12,-0.29 -0.17,-0.6 -0.17,-0.94l0 -0.48c0,-0.28 0.06,-0.52 0.17,-0.72 0.11,-0.21 0.27,-0.4 0.48,-0.57l0.99 0.45c-0.13,0.12 -0.22,0.26 -0.27,0.42 -0.05,0.16 -0.08,0.3 -0.08,0.43l0 0.48c0,0.17 0.03,0.33 0.08,0.47 0.05,0.14 0.13,0.27 0.23,0.37 0.1,0.1 0.23,0.18 0.38,0.24 0.15,0.06 0.32,0.09 0.52,0.09 0.2,0 0.36,-0.03 0.49,-0.1 0.13,-0.07 0.23,-0.16 0.3,-0.28 0.07,-0.12 0.12,-0.26 0.15,-0.42 0.03,-0.16 0.04,-0.34 0.04,-0.53l0 -4.5c0,-0.06 -0.05,-0.12 -0.16,-0.17 -0.1,-0.05 -0.25,-0.08 -0.42,-0.08 -0.14,0 -0.25,0.03 -0.33,0.08 -0.08,0.05 -0.12,0.11 -0.12,0.17l0 1.89 -1.12 0 0 -1.89c0,-0.09 -0.03,-0.16 -0.09,-0.2 -0.06,-0.04 -0.15,-0.06 -0.25,-0.06 -0.04,0 -0.08,0.02 -0.11,0.06 -0.04,0.04 -0.08,0.09 -0.12,0.14 -0.08,0.09 -0.16,0.17 -0.25,0.24 -0.09,0.08 -0.21,0.11 -0.34,0.11 -0.09,0 -0.18,-0.02 -0.27,-0.05 -0.09,-0.03 -0.18,-0.08 -0.26,-0.13 -0.08,-0.05 -0.17,-0.12 -0.24,-0.19 -0.08,-0.07 -0.14,-0.14 -0.21,-0.22l0 -1.46c0.08,0.08 0.17,0.17 0.27,0.26 0.1,0.09 0.2,0.18 0.3,0.26 0.1,0.08 0.18,0.14 0.26,0.2 0.08,0.05 0.13,0.08 0.17,0.08 -0,0 0.01,-0.01 0.03,-0.03 0.03,-0.02 0.06,-0.05 0.09,-0.08 0.09,-0.07 0.18,-0.14 0.28,-0.2 0.1,-0.06 0.22,-0.09 0.36,-0.09 0.22,0 0.42,0.05 0.58,0.14 0.16,0.09 0.31,0.22 0.43,0.4 0.13,-0.18 0.28,-0.31 0.46,-0.4 0.18,-0.09 0.36,-0.14 0.53,-0.14 0.21,0 0.43,0.03 0.64,0.1 0.21,0.07 0.41,0.16 0.58,0.28 0.17,0.12 0.31,0.26 0.42,0.43 0.11,0.17 0.16,0.35 0.16,0.56l0 4.54zm6.08 -2.07c0,-0.6 -0.12,-1.06 -0.35,-1.39 -0.23,-0.33 -0.56,-0.54 -0.97,-0.64 0.01,0.27 0.02,0.54 0.04,0.82 0.02,0.28 0.03,0.57 0.05,0.85 0.02,0.28 0.03,0.56 0.04,0.84 0.01,0.28 0.03,0.54 0.04,0.79l-1.36 0 0.17 -3.3c-0.19,0.05 -0.36,0.13 -0.52,0.24 -0.16,0.11 -0.3,0.24 -0.41,0.41 -0.12,0.17 -0.21,0.36 -0.27,0.59 -0.06,0.23 -0.1,0.49 -0.1,0.78l0 1.51c0,0.23 0.04,0.45 0.13,0.68 0.09,0.22 0.21,0.42 0.37,0.59 0.16,0.17 0.35,0.31 0.58,0.42 0.22,0.11 0.48,0.16 0.76,0.16 0.27,0 0.51,-0.05 0.73,-0.15 0.22,-0.1 0.41,-0.23 0.57,-0.4 0.16,-0.17 0.29,-0.37 0.38,-0.59 0.09,-0.22 0.14,-0.46 0.14,-0.71l0 -1.51zm1.28 1.51c0,0.29 -0.04,0.57 -0.12,0.83 -0.08,0.26 -0.2,0.51 -0.34,0.73 -0.15,0.22 -0.32,0.42 -0.51,0.61 -0.2,0.18 -0.41,0.34 -0.64,0.46 -0.23,0.13 -0.47,0.22 -0.72,0.29 -0.25,0.07 -0.5,0.1 -0.75,0.1 -0.25,0 -0.51,-0.04 -0.76,-0.1 -0.25,-0.07 -0.5,-0.16 -0.73,-0.29 -0.23,-0.12 -0.45,-0.28 -0.64,-0.46 -0.2,-0.18 -0.37,-0.38 -0.51,-0.61 -0.14,-0.22 -0.26,-0.47 -0.34,-0.73 -0.08,-0.26 -0.12,-0.54 -0.12,-0.84l0 -1.51c0,-0.41 0.07,-0.79 0.2,-1.14 0.13,-0.35 0.31,-0.66 0.54,-0.94 0.22,-0.28 0.49,-0.51 0.78,-0.69 0.3,-0.18 0.61,-0.32 0.93,-0.39 -0.07,-0.13 -0.14,-0.26 -0.21,-0.4 -0.07,-0.13 -0.12,-0.24 -0.16,-0.31l1.92 0 -0.29 0.69c0.32,0.08 0.64,0.21 0.94,0.39 0.3,0.18 0.57,0.41 0.79,0.69 0.23,0.27 0.41,0.59 0.55,0.94 0.14,0.35 0.21,0.74 0.21,1.16l0 1.51zm5.92 -0.35c-0,0.36 -0.03,0.73 -0.08,1.1 -0.05,0.37 -0.15,0.72 -0.28,1.03 -0.14,0.32 -0.33,0.59 -0.58,0.82 -0.25,0.23 -0.57,0.39 -0.97,0.49l-0.12 -1.24c0.25,0 0.44,-0.19 0.57,-0.57 0.13,-0.38 0.19,-0.91 0.19,-1.6l0 -1.91c0,-0.31 -0.01,-0.59 -0.05,-0.83 -0.03,-0.24 -0.09,-0.45 -0.17,-0.62 -0.08,-0.17 -0.19,-0.3 -0.33,-0.39 -0.14,-0.09 -0.31,-0.13 -0.52,-0.13 -0.24,0 -0.43,0.05 -0.58,0.14 -0.15,0.09 -0.27,0.22 -0.35,0.39 -0.09,0.17 -0.14,0.38 -0.18,0.63 -0.03,0.25 -0.05,0.53 -0.05,0.84l0 1.87c0,0.34 0.01,0.64 0.03,0.91 0.02,0.27 0.04,0.5 0.09,0.68 0.04,0.19 0.1,0.33 0.18,0.43 0.07,0.1 0.17,0.15 0.28,0.15l-0.01 1.23c-0.28,-0.05 -0.52,-0.14 -0.72,-0.27 -0.2,-0.12 -0.37,-0.28 -0.5,-0.45 -0.13,-0.17 -0.24,-0.37 -0.32,-0.59 -0.08,-0.22 -0.14,-0.44 -0.18,-0.67 -0.04,-0.23 -0.07,-0.47 -0.08,-0.72 -0.01,-0.24 -0.02,-0.48 -0.02,-0.71l0 -1.86c0,-0.25 0.01,-0.5 0.04,-0.75 0.03,-0.25 0.07,-0.5 0.14,-0.74 0.07,-0.24 0.16,-0.46 0.27,-0.67 0.11,-0.21 0.26,-0.39 0.44,-0.55 0.18,-0.15 0.39,-0.28 0.63,-0.37 0.25,-0.09 0.53,-0.13 0.86,-0.13 0.5,0 0.91,0.09 1.22,0.26 0.31,0.17 0.56,0.4 0.73,0.69 0.17,0.29 0.29,0.63 0.35,1.01 0.06,0.38 0.09,0.78 0.09,1.2l-0.01 1.87z"/>
 </g>
</svg>
