<?xml version="1.0" encoding="UTF-8"?>
<!DOCTYPE svg PUBLIC "-//W3C//DTD SVG 1.1//EN" "http://www.w3.org/Graphics/SVG/1.1/DTD/svg11.dtd">
<!-- Creator: CorelDRAW -->
<svg xmlns="http://www.w3.org/2000/svg" xml:space="preserve" width="3.93701in" height="3.93701in" version="1.1" style="shape-rendering:geometricPrecision; text-rendering:geometricPrecision; image-rendering:optimizeQuality; fill-rule:evenodd; clip-rule:evenodd"
viewBox="0 0 101.51 101.51"
 xmlns:xlink="http://www.w3.org/1999/xlink"
 xmlns:xodm="http://www.corel.com/coreldraw/odm/2003">
 <defs>
  <style type="text/css">
   <![CDATA[
    .fil0 {fill:#004BA6}
   ]]>
  </style>
 </defs>
 <g id="Layer_x0020_1">
  <metadata id="CorelCorpID_0Corel-Layer"/>
  <path class="fil0" d="M50.76 52.23c-5.28,0 -9.57,-4.28 -9.57,-9.57 0,-5.28 4.28,-9.57 9.57,-9.57 5.28,0 9.57,4.28 9.57,9.57 0,5.28 -4.28,9.57 -9.57,9.57zm-24.68 -9.57c0,-13.63 11.05,-24.68 24.68,-24.68 13.63,0 24.68,11.05 24.68,24.68 0,8.17 -4.14,14.42 -8.63,20.92 -4.38,6.34 -10.17,13.64 -16.04,19.91 -5.87,-6.27 -11.67,-13.57 -16.04,-19.91 -4.49,-6.5 -8.63,-12.75 -8.63,-20.92zm24.68 58.85c-28.03,0 -50.76,-22.72 -50.76,-50.76 0,-28.03 22.72,-50.76 50.76,-50.76 28.03,0 50.76,22.72 50.76,50.76 0,28.03 -22.72,50.76 -50.76,50.76z"/>
 </g>
</svg>
