<?xml version="1.0" encoding="UTF-8"?>
<!DOCTYPE svg PUBLIC "-//W3C//DTD SVG 1.1//EN" "http://www.w3.org/Graphics/SVG/1.1/DTD/svg11.dtd">
<!-- Creator: CorelDRAW -->
<svg xmlns="http://www.w3.org/2000/svg" xml:space="preserve" width="12.5405in" height="2.68924in" version="1.1" style="shape-rendering:geometricPrecision; text-rendering:geometricPrecision; image-rendering:optimizeQuality; fill-rule:evenodd; clip-rule:evenodd"
viewBox="0 0 948.91 203.49"
 xmlns:xlink="http://www.w3.org/1999/xlink"
 xmlns:xodm="http://www.corel.com/coreldraw/odm/2003">
 <defs>
  <style type="text/css">
   <![CDATA[
    .fil2 {fill:#004BA6}
    .fil1 {fill:#9A0000}
    .fil0 {fill:#4D4D4D;fill-rule:nonzero}
   ]]>
  </style>
 </defs>
 <g id="Layer_x0020_1">
  <metadata id="CorelCorpID_0Corel-Layer"/>
  <path class="fil0" d="M486.05 35.26l-13.66 14.04c-0.08,0.1 -0.17,0.19 -0.26,0.28 -1.74,1.74 -4.57,1.74 -6.32,0l0.01 -0.01c-3.35,-3.26 -7.02,-6.21 -10.95,-8.79 -3.93,-2.58 -8.1,-4.77 -12.45,-6.54 -4.36,-1.78 -8.85,-3.11 -13.42,-4 -4.6,-0.89 -9.3,-1.34 -14.06,-1.34 -9.72,0 -19.17,1.9 -27.9,5.52 -8.71,3.61 -16.74,8.94 -23.61,15.81 -6.87,6.87 -12.21,14.9 -15.82,23.61 -3.61,8.72 -5.52,18.18 -5.52,27.9 0,9.72 1.9,19.17 5.52,27.9 3.61,8.71 8.94,16.74 15.82,23.61 6.87,6.87 14.9,12.21 23.61,15.81 8.72,3.61 18.18,5.52 27.9,5.52 4.59,0 9.12,-0.41 13.51,-1.22 4.38,-0.81 8.7,-2.03 12.88,-3.65 3.26,-1.27 6.4,-2.75 9.4,-4.44 2.99,-1.69 5.89,-3.61 8.66,-5.75l0 -52.43c0,-2.47 2,-4.47 4.47,-4.47l19.97 0c2.47,0 4.47,2 4.47,4.47l0 63.4 -0.02 0c-0,1.2 -0.49,2.4 -1.45,3.28l-3.28 3c-4.69,4.29 -9.72,8.11 -15.02,11.41 -5.3,3.3 -10.93,6.11 -16.81,8.4 -5.88,2.28 -11.93,4.01 -18.07,5.16 -6.19,1.16 -12.46,1.75 -18.71,1.75 -13.51,0 -26.7,-2.67 -38.93,-7.73 -12.24,-5.07 -23.46,-12.52 -33.02,-22.07 -9.55,-9.55 -17,-20.78 -22.07,-33.02 -5.06,-12.22 -7.73,-25.42 -7.73,-38.93 0,-13.51 2.67,-26.7 7.73,-38.93 5.07,-12.24 12.52,-23.46 22.07,-33.02 9.55,-9.55 20.78,-17 33.02,-22.07 12.23,-5.06 25.42,-7.73 38.93,-7.73 6.56,0 13.11,0.63 19.55,1.89 6.41,1.25 12.69,3.12 18.77,5.59 6.09,2.48 11.9,5.54 17.37,9.13 5.47,3.59 10.61,7.73 15.34,12.34 1.76,1.72 1.8,4.54 0.09,6.3zm447.71 118.7l13.89 14.27c1.72,1.76 1.68,4.59 -0.09,6.3 -4.72,4.61 -9.86,8.75 -15.34,12.34 -5.47,3.59 -11.29,6.65 -17.37,9.13 -6.08,2.47 -12.36,4.34 -18.77,5.59 -6.44,1.26 -12.99,1.89 -19.55,1.89 -13.51,0 -26.7,-2.67 -38.93,-7.73 -12.24,-5.07 -23.46,-12.52 -33.02,-22.07 -9.55,-9.55 -17,-20.78 -22.07,-33.02 -5.06,-12.22 -7.73,-25.42 -7.73,-38.93 0,-13.51 2.67,-26.7 7.73,-38.93 5.07,-12.24 12.52,-23.46 22.07,-33.02 9.55,-9.55 20.78,-17 33.02,-22.07 12.22,-5.06 25.42,-7.73 38.93,-7.73 6.56,0 13.11,0.63 19.55,1.89 6.41,1.25 12.69,3.12 18.77,5.59 6.09,2.48 11.91,5.54 17.37,9.13 5.47,3.59 10.61,7.73 15.34,12.34 1.76,1.72 1.8,4.54 0.09,6.3l-13.89 14.27c-1.72,1.76 -4.54,1.8 -6.3,0.09 -3.36,-3.28 -7.05,-6.24 -11,-8.83 -3.93,-2.58 -8.1,-4.77 -12.45,-6.55 -4.36,-1.78 -8.85,-3.11 -13.42,-4 -4.6,-0.89 -9.31,-1.34 -14.06,-1.34 -9.72,0 -19.17,1.9 -27.9,5.52 -8.71,3.61 -16.74,8.94 -23.61,15.81 -6.87,6.87 -12.21,14.9 -15.81,23.61 -3.61,8.72 -5.52,18.18 -5.52,27.9 0,9.72 1.9,19.17 5.52,27.9 3.61,8.71 8.94,16.74 15.81,23.61 6.87,6.87 14.9,12.21 23.61,15.81 8.72,3.61 18.18,5.52 27.9,5.52 4.76,0 9.46,-0.45 14.06,-1.34 4.56,-0.89 9.06,-2.22 13.42,-4 4.35,-1.77 8.53,-3.97 12.46,-6.54 3.95,-2.59 7.64,-5.55 10.99,-8.83 1.76,-1.72 4.59,-1.68 6.3,0.09zm-330.83 -129.49l0 -19.97c0,-2.47 2,-4.47 4.47,-4.47l84.42 0c0.18,-0.02 0.35,-0.03 0.53,-0.03 0.48,0 -0.07,0.01 1.04,0.03l0.75 0.01 0.29 -0.01 0 0.01 0.56 0.02c8.77,0.33 17.27,2.3 25.12,5.73 7.89,3.45 15.11,8.35 21.3,14.53 6.51,6.51 11.59,14.17 15.05,22.52 3.46,8.34 5.28,17.34 5.28,26.54 0,9.2 -1.82,18.2 -5.28,26.54 -3.46,8.36 -8.54,16.01 -15.05,22.52 -6.18,6.18 -13.41,11.08 -21.3,14.53 -7.85,3.43 -16.34,5.39 -25.09,5.73 -0.18,0.02 -0.35,0.03 -0.53,0.03l-0.03 0 0 -0.01 -1.04 0.02c-1.11,0.02 -0.65,0.03 -1.07,0.03l0 -0.02c-0.13,0 -0.25,-0.01 -0.38,-0.02l-55.94 0 0 60.27c0,2.47 -2,4.47 -4.47,4.47l-19.97 0c-2.47,0 -4.47,-2 -4.47,-4.47l0 -84.71c0,-2.47 2,-4.47 4.47,-4.47l78.95 0 0 0.01c0.16,0 0.33,0.01 0.5,0.03l1.31 0c5.41,0 10.67,-1.06 15.52,-3.06 4.83,-2 9.29,-4.97 13.11,-8.79 3.83,-3.83 6.79,-8.29 8.79,-13.11 2.01,-4.84 3.06,-10.1 3.06,-15.52 0,-5.41 -1.06,-10.67 -3.06,-15.52 -2,-4.83 -4.97,-9.29 -8.79,-13.11 -3.83,-3.83 -8.28,-6.79 -13.11,-8.79 -4.84,-2.01 -10.1,-3.06 -15.52,-3.06l-1.28 0c-0.18,0.02 -0.35,0.03 -0.53,0.03l-83.14 0c-2.47,0 -4.47,-2 -4.47,-4.47zm-65.21 -24.47l19.97 0c2.47,0 4.47,2 4.47,4.47l0 194.55c0,2.47 -2,4.47 -4.47,4.47l-19.97 0c-2.47,0 -4.47,-2 -4.47,-4.47l0 -194.55c0,-2.47 2,-4.47 4.47,-4.47z"/>
  <path class="fil1" d="M101.39 21.68l112.03 0 0 174.36c0,4.1 3.35,7.45 7.45,7.45l42.92 0c4.1,0 7.45,-3.35 7.45,-7.45l0 -188.59c0,-4.1 -3.35,-7.45 -7.45,-7.45 -54.13,0 -108.26,0 -162.4,0 -4.1,0 -7.45,3.35 -7.45,7.45l0 6.79c0,4.1 3.35,7.45 7.45,7.45z"/>
  <path class="fil2" d="M169.84 181.81l-112.03 0 0 -174.36c0,-4.1 -3.35,-7.45 -7.45,-7.45l-42.92 0c-4.1,0 -7.45,3.35 -7.45,7.45l0 188.59c0,4.1 3.35,7.45 7.45,7.45 54.13,0 108.26,0 162.4,0 4.1,0 7.45,-3.35 7.45,-7.45l0 -6.79c0,-4.1 -3.35,-7.45 -7.45,-7.45z"/>
 </g>
</svg>
