<?xml version="1.0" encoding="UTF-8"?>
<!DOCTYPE svg PUBLIC "-//W3C//DTD SVG 1.1//EN" "http://www.w3.org/Graphics/SVG/1.1/DTD/svg11.dtd">
<!-- Creator: CorelDRAW -->
<svg xmlns="http://www.w3.org/2000/svg" xml:space="preserve" width="12.6232in" height="3.68948in" version="1.1" style="shape-rendering:geometricPrecision; text-rendering:geometricPrecision; image-rendering:optimizeQuality; fill-rule:evenodd; clip-rule:evenodd"
viewBox="0 0 2266.6 662.48"
 xmlns:xlink="http://www.w3.org/1999/xlink"
 xmlns:xodm="http://www.corel.com/coreldraw/odm/2003">
 <defs>
  <style type="text/css">
   <![CDATA[
    .fil1 {fill:lime}
    .fil0 {fill:#4D4D4D}
   ]]>
  </style>
 </defs>
 <g id="Layer_x0020_1">
  <metadata id="CorelCorpID_0Corel-Layer"/>
  <path class="fil0" d="M2090.88 579.75c68.62,0 130.75,-27.82 175.72,-72.79l-58.5 -58.5c-30,30 -71.44,48.56 -117.22,48.56 -91.56,0 -165.78,-74.22 -165.78,-165.78 0,-91.56 74.22,-165.78 165.78,-165.78 45.78,0 87.22,18.56 117.22,48.56l58.5 -58.5c-44.97,-44.97 -107.1,-72.79 -175.72,-72.79 -137.25,0 -248.51,111.26 -248.51,248.51 0,137.25 111.26,248.51 248.51,248.51zm-458.46 -496.94l0.15 -0.08 4.27 0c1.74,0 3.49,0.03 5.13,0.08l8.25 -0 0 0.44c40.8,3.16 78.99,20.72 108.05,49.78 32.3,32.3 50.3,75.76 50.3,121.43 0,45.68 -18,89.14 -50.3,121.44 -29.07,29.07 -67.25,46.62 -108.05,49.78l0 0.44 -8.09 -0c-1.69,0.05 -3.49,0.08 -5.29,0.08l-4.27 0 -0.16 -0.08 -122.15 0 0 153.62 -82.73 0 0 -236.35 206.52 0 0.47 0.08 2.32 0c23.7,0 46.18,-9.31 62.94,-26.06 16.76,-16.76 26.06,-39.25 26.06,-62.94 0,-23.7 -9.31,-46.18 -26.06,-62.94 -16.76,-16.76 -39.24,-26.06 -62.94,-26.06l-2.35 0 -0.44 0.08 -216.46 0 0 -82.73 214.83 0zm-287.62 -0.08l0 497.02 -82.73 0 0 -497.02 82.73 0zm-341.18 497.02c68.62,0 130.75,-27.82 175.72,-72.79l0 -163.57 -82.73 0 0 125.1c-26.52,18 -58.52,28.52 -92.99,28.52 -91.56,0 -165.78,-74.22 -165.78,-165.78 0,-91.56 74.22,-165.78 165.78,-165.78 45.78,0 87.22,18.56 117.22,48.56l58.5 -58.5c-44.97,-44.97 -107.1,-72.79 -175.72,-72.79 -137.25,0 -248.51,111.26 -248.51,248.51 0,137.25 111.26,248.51 248.51,248.51zm-920.88 -497.01l0 414.28 414.28 0 0 82.73 -497.02 0 0 -497.02 82.73 0zm497.02 497.01l0 -414.28 -414.28 0 0 -82.73 497.02 0 0 497.02 -82.73 -0z"/>
  <path class="fil1" d="M165.46 497.02l0 -414.28 414.28 0 0 -82.73 -497.02 0 0 497.02 82.73 0zm331.55 -331.55l0 414.28 -414.28 0 0 82.73 497.02 0 0 -497.02 -82.73 0z"/>
 </g>
</svg>
