<svg width="58" height="18" viewBox="0 0 58 18" fill="none" xmlns="http://www.w3.org/2000/svg">
<g clip-path="url(#clip0_24_2)">
<path d="M15.2303 9.05485V15.2007L14.9301 15.4693C14.1243 16.2118 13.1764 16.7964 12.1337 17.2072C11.1225 17.6021 10.0482 17.8075 8.91066 17.8075C6.44601 17.8075 4.21834 16.8122 2.60684 15.2007C0.995339 13.5892 0 11.3615 0 8.89686C0 6.43221 0.995339 4.20455 2.60684 2.59305C4.21834 0.981545 6.44601 -0.0137939 8.91066 -0.0137939C10.0956 -0.0137939 11.2331 0.223192 12.2601 0.633967C13.3344 1.07634 14.3139 1.7083 15.1197 2.51405L13.84 3.82537C13.1922 3.19341 12.418 2.67204 11.5649 2.32446C10.7433 1.99268 9.8428 1.8031 8.89486 1.8031C6.93578 1.8031 5.16629 2.59305 3.88656 3.87277C2.60684 5.15249 1.81689 6.92198 1.81689 8.88106C1.81689 10.8401 2.60684 12.6096 3.88656 13.8894C5.16629 15.1691 6.93578 15.959 8.89486 15.959C9.8112 15.959 10.6644 15.7852 11.4543 15.4851C12.1495 15.2165 12.7972 14.8373 13.366 14.3633V9.02326H15.1987L15.2303 9.05485ZM57.4295 15.2797C56.608 16.0854 55.6442 16.7174 54.5699 17.1598C53.5271 17.5863 52.4054 17.8233 51.2205 17.8233C48.7558 17.8233 46.5282 16.828 44.9167 15.2165C43.3052 13.605 42.3098 11.3773 42.3098 8.91266C42.3098 6.44801 43.3052 4.22035 44.9167 2.60885C46.5282 0.997344 48.7558 0.00200509 51.2205 0.00200509C52.4054 0.00200509 53.5429 0.238991 54.5699 0.649766C55.6442 1.09214 56.6238 1.7241 57.4295 2.52985L56.1498 3.84117C55.502 3.20921 54.7279 2.68784 53.8747 2.34026C53.0532 2.00848 52.1526 1.81889 51.2047 1.81889C49.2456 1.81889 47.4761 2.60885 46.1964 3.88857C44.9167 5.16829 44.1267 6.93778 44.1267 8.89686C44.1267 10.8559 44.9167 12.6254 46.1964 13.9052C47.4761 15.1849 49.2456 15.9748 51.2047 15.9748C52.1526 15.9748 53.0532 15.7852 53.8747 15.4535C54.7279 15.1059 55.502 14.6003 56.1498 13.9526L57.4295 15.2639V15.2797ZM26.5424 -0.0137939H34.1575H34.3155C35.9586 -0.0137939 37.4437 0.649766 38.5181 1.7241C39.5924 2.79843 40.2559 4.28354 40.2559 5.92664C40.2559 7.56974 39.5924 9.05485 38.5181 10.1292C37.4437 11.2035 35.9586 11.8671 34.3155 11.8671H34.1575H28.7543V17.7917H26.9216V10.0344H34.1575H34.1733H34.3155C35.453 10.0344 36.48 9.57622 37.2225 8.83367C37.9651 8.09111 38.4233 7.06418 38.4233 5.92664C38.4233 4.78911 37.9651 3.76218 37.2225 3.01962C36.48 2.27707 35.453 1.81889 34.3155 1.81889H34.1733H34.1575H26.5424V-0.0137939ZM21.7079 -0.0137939V17.8075H19.8752V-0.0137939H21.7079Z" fill="white"/>
</g>
<defs>
<clipPath id="clip0_24_2">
<rect width="57.4295" height="17.8254" fill="white"/>
</clipPath>
</defs>
</svg>
