<?xml version="1.0" encoding="UTF-8"?>
<!DOCTYPE svg PUBLIC "-//W3C//DTD SVG 1.1//EN" "http://www.w3.org/Graphics/SVG/1.1/DTD/svg11.dtd">
<!-- Creator: CorelDRAW -->
<svg xmlns="http://www.w3.org/2000/svg" xml:space="preserve" width="12.5651in" height="2.68924in" version="1.1" style="shape-rendering:geometricPrecision; text-rendering:geometricPrecision; image-rendering:optimizeQuality; fill-rule:evenodd; clip-rule:evenodd"
viewBox="0 0 952.63 203.89"
 xmlns:xlink="http://www.w3.org/1999/xlink"
 xmlns:xodm="http://www.corel.com/coreldraw/odm/2003">
 <defs>
  <style type="text/css">
   <![CDATA[
    .fil2 {fill:#004BA6}
    .fil0 {fill:#4D4D4D}
    .fil1 {fill:#9A0000}
   ]]>
  </style>
 </defs>
 <g id="Layer_x0020_1">
  <metadata id="CorelCorpID_0Corel-Layer"/>
  <path class="fil0" d="M460.28 159.81l0 -60.75 28.96 0 0 73.74 -4.74 4.33c-9.31,8.52 -20.14,15.27 -31.9,19.84 -11.76,4.57 -24.24,6.91 -36.86,6.91 -27.12,0 -52.91,-10.68 -72.08,-29.86 -19.18,-19.18 -29.86,-44.96 -29.86,-72.08 0,-27.12 10.68,-52.91 29.86,-72.08 19.18,-19.18 44.96,-29.86 72.08,-29.86 13.18,0 26.2,2.53 38.4,7.5 12.21,4.97 23.35,12.31 32.78,21.51l3.2 3.12 -20.16 20.72 -3.21 -3.13c-6.75,-6.6 -14.75,-11.85 -23.49,-15.41 -8.75,-3.56 -18.08,-5.35 -27.52,-5.35 -19.42,0 -37.87,7.64 -51.61,21.37 -13.73,13.73 -21.38,32.18 -21.38,51.61 0,19.42 7.64,37.87 21.38,51.61 13.73,13.73 32.18,21.37 51.61,21.37 9.04,0 18,-1.62 26.43,-4.89 6.49,-2.52 12.6,-5.97 18.11,-10.22zm489.15 15.06c-9.43,9.21 -20.57,16.54 -32.78,21.51 -12.21,4.97 -25.23,7.5 -38.41,7.5 -27.12,0 -52.91,-10.68 -72.08,-29.86 -19.18,-19.18 -29.86,-44.96 -29.86,-72.08 0,-27.12 10.68,-52.91 29.86,-72.08 19.18,-19.18 44.96,-29.86 72.08,-29.86 13.18,0 26.2,2.53 38.41,7.5 12.21,4.97 23.35,12.31 32.78,21.51l3.2 3.12 -20.16 20.72 -3.21 -3.13c-6.75,-6.6 -14.74,-11.84 -23.49,-15.41 -8.75,-3.56 -18.08,-5.35 -27.53,-5.35 -19.42,0 -37.87,7.64 -51.61,21.37 -13.73,13.73 -21.38,32.18 -21.38,51.61 0,19.42 7.64,37.87 21.38,51.61 13.73,13.73 32.18,21.37 51.61,21.37 9.44,0 18.78,-1.79 27.53,-5.35 8.74,-3.56 16.74,-8.8 23.49,-15.4l3.21 -3.13 20.16 20.72 -3.2 3.12zm-256.87 -174.85l0.06 -0.03 1.08 0c0.71,0 1.41,0.01 2.12,0.03l0.55 0 0 0.02c17.51,0.66 34.05,7.87 46.5,20.31 13.08,13.08 20.36,30.66 20.36,49.16 0,18.5 -7.29,36.09 -20.36,49.16 -12.45,12.45 -28.98,19.65 -46.5,20.31l0 0.02 -0.48 0c-0.73,0.02 -1.46,0.03 -2.19,0.03l-1.08 0 -0.07 -0.03 -55.28 0 0 64.86 -28.96 0 0 -93.83 83.96 0 0.2 0.03 1.23 0c10.8,0 21.05,-4.24 28.69,-11.88 7.63,-7.64 11.88,-17.89 11.88,-28.69 0,-10.8 -4.24,-21.05 -11.88,-28.69 -7.63,-7.63 -17.89,-11.88 -28.69,-11.88l-1.25 0 -0.19 0.03 -88.16 0 0 -28.96 88.45 0zm-132.32 -0.03l0 203.89 -28.96 0 0 -203.89 28.96 0z"/>
  <polygon class="fil1" points="231.85,203.89 231.85,39.91 79.82,39.91 79.82,0 271.76,0 271.76,203.89 "/>
  <polygon class="fil2" points="39.91,0 39.91,163.98 191.95,163.98 191.95,203.89 -0,203.89 -0,0 "/>
 </g>
</svg>
