<?xml version="1.0" encoding="UTF-8"?>
<!DOCTYPE svg PUBLIC "-//W3C//DTD SVG 1.1//EN" "http://www.w3.org/Graphics/SVG/1.1/DTD/svg11.dtd">
<!-- Creator: CorelDRAW -->
<svg xmlns="http://www.w3.org/2000/svg" xml:space="preserve" width="12.6232in" height="3.68948in" version="1.1" style="shape-rendering:geometricPrecision; text-rendering:geometricPrecision; image-rendering:optimizeQuality; fill-rule:evenodd; clip-rule:evenodd"
viewBox="0 0 2480.38 724.96"
 xmlns:xlink="http://www.w3.org/1999/xlink"
 xmlns:xodm="http://www.corel.com/coreldraw/odm/2003">
 <defs>
  <style type="text/css">
   <![CDATA[
    .fil0 {fill:#4D4D4D}
    .fil1 {fill:#CCCCCC}
   ]]>
  </style>
 </defs>
 <g id="Layer_x0020_1">
  <metadata id="CorelCorpID_0Corel-Layer"/>
  <path class="fil0" d="M1098.28 634.43c75.1,0 143.08,-30.44 192.3,-79.65l0 -178.99 -90.53 0 0 136.9c-29.02,19.7 -64.04,31.21 -101.76,31.21 -100.19,0 -181.41,-81.22 -181.41,-181.41 0,-100.19 81.22,-181.41 181.41,-181.41 50.1,0 95.45,20.31 128.28,53.13l64.02 -64.02c-49.21,-49.21 -117.2,-79.65 -192.3,-79.65 -150.19,0 -271.95,121.75 -271.95,271.95 0,150.19 121.75,271.95 271.95,271.95z"/>
  <path class="fil0" d="M2288.09 634.43c75.1,0 143.08,-30.44 192.3,-79.65l-64.02 -64.02c-32.83,32.83 -78.18,53.13 -128.28,53.13 -100.19,0 -181.41,-81.22 -181.41,-181.41 0,-100.19 81.22,-181.41 181.41,-181.41 50.1,0 95.45,20.31 128.28,53.13l64.02 -64.02c-49.21,-49.21 -117.2,-79.65 -192.3,-79.65 -150.19,0 -271.95,121.75 -271.95,271.95 0,150.19 121.75,271.95 271.95,271.95z"/>
  <polygon class="fil0" points="1471.64,90.53 1471.64,634.43 1381.11,634.43 1381.11,90.53 "/>
  <path class="fil0" d="M1786.39 90.62l0.16 -0.08 4.68 0c1.91,0 3.82,0.03 5.61,0.08l9.03 -0 0 0.48c44.65,3.46 86.44,22.67 118.25,54.48 35.35,35.35 55.04,82.9 55.04,132.89 0,49.99 -19.7,97.54 -55.04,132.89 -31.81,31.81 -73.6,51.02 -118.25,54.48l0 0.48 -8.85 -0c-1.85,0.06 -3.82,0.09 -5.79,0.09l-4.68 0 -0.17 -0.09 -133.67 0 0 168.11 -90.53 0 0 -258.65 225.99 0 0.52 0.09 2.54 0c25.93,0 50.54,-10.19 68.88,-28.52 18.34,-18.34 28.52,-42.95 28.52,-68.88 0,-25.93 -10.19,-50.54 -28.52,-68.88 -18.34,-18.34 -42.94,-28.52 -68.88,-28.52l-2.57 0 -0.49 0.08 -236.87 0 0 -90.53 235.09 0z"/>
  <polygon class="fil0" points="634.43,634.43 634.43,181.07 181.07,181.07 181.07,90.53 724.96,90.53 724.96,634.43 "/>
  <polygon class="fil0" points="90.53,90.53 90.53,543.89 543.89,543.89 543.89,634.43 -0,634.43 -0,90.53 "/>
  <path class="fil1" d="M181.07 543.89l0 -453.36 453.36 0 0 -90.53 -543.89 0 0 543.89 90.53 0zm362.83 -362.83l0 453.36 -453.36 0 0 90.53 543.89 0 0 -543.89 -90.53 0z"/>
 </g>
</svg>
