<?xml version="1.0" encoding="UTF-8"?>
<!DOCTYPE svg PUBLIC "-//W3C//DTD SVG 1.1//EN" "http://www.w3.org/Graphics/SVG/1.1/DTD/svg11.dtd">
<!-- Creator: CorelDRAW -->
<svg xmlns="http://www.w3.org/2000/svg" xml:space="preserve" width="3.93701in" height="3.93701in" version="1.1" style="shape-rendering:geometricPrecision; text-rendering:geometricPrecision; image-rendering:optimizeQuality; fill-rule:evenodd; clip-rule:evenodd"
viewBox="0 0 107.26 107.26"
 xmlns:xlink="http://www.w3.org/1999/xlink"
 xmlns:xodm="http://www.corel.com/coreldraw/odm/2003">
 <defs>
  <style type="text/css">
   <![CDATA[
    .fil0 {fill:#004BA6}
   ]]>
  </style>
 </defs>
 <g id="Layer_x0020_1">
  <metadata id="CorelCorpID_0Corel-Layer"/>
  <path class="fil0" d="M53.63 107.26c-29.62,0 -53.63,-24.01 -53.63,-53.63 0,-29.62 24.01,-53.63 53.63,-53.63 29.62,0 53.63,24.01 53.63,53.63 0,29.62 -24.01,53.63 -53.63,53.63zm0 -17.61c-9.95,0 -18.95,-4.03 -25.47,-10.55 -6.52,-6.52 -10.55,-15.52 -10.55,-25.47 0,-9.95 4.03,-18.95 10.55,-25.47 6.52,-6.52 15.52,-10.55 25.47,-10.55 9.95,0 18.95,4.03 25.47,10.55 6.52,6.52 10.55,15.52 10.55,25.47 0,9.95 -4.03,18.95 -10.55,25.47 -6.52,6.52 -15.52,10.55 -25.47,10.55zm-21.19 -14.83c3,3 6.63,5.36 10.68,6.88 -0.61,-1.11 -1.19,-2.32 -1.71,-3.62 -1.28,-3.17 -2.32,-6.94 -3.03,-11.1l-11.58 0c1.45,2.91 3.37,5.56 5.64,7.84zm-8.78 -21.19c0,2.52 0.31,4.96 0.9,7.3l13.04 0c-0.21,-2.36 -0.32,-4.8 -0.32,-7.3 0,-2.44 0.1,-4.82 0.3,-7.12l-13.07 0c-0.56,2.28 -0.85,4.66 -0.85,7.12zm8.78 -21.19c-2.33,2.33 -4.27,5.03 -5.73,8.02l11.64 0c0.71,-4.24 1.76,-8.06 3.06,-11.28 0.52,-1.3 1.1,-2.51 1.71,-3.62 -4.05,1.52 -7.68,3.88 -10.68,6.88zm42.38 0c-3,-3 -6.63,-5.36 -10.68,-6.88 0.61,1.11 1.19,2.32 1.71,3.62 1.3,3.22 2.35,7.05 3.06,11.28l11.64 0c-1.46,-2.99 -3.41,-5.69 -5.73,-8.02zm8.78 21.19c0,-2.45 -0.29,-4.84 -0.85,-7.12l-13.07 0c0.2,2.3 0.3,4.68 0.3,7.12 0,2.5 -0.11,4.94 -0.32,7.3l13.04 0c0.58,-2.34 0.9,-4.78 0.9,-7.3zm-8.78 21.19c2.28,-2.28 4.19,-4.92 5.64,-7.84l-11.58 0c-0.71,4.16 -1.75,7.93 -3.03,11.1 -0.52,1.3 -1.1,2.51 -1.71,3.62 4.05,-1.52 7.68,-3.88 10.68,-6.88zm-27.81 1.02c1.94,4.79 4.29,7.76 6.62,7.76 2.32,0 4.68,-2.97 6.62,-7.76 1.03,-2.54 1.87,-5.53 2.5,-8.85l-18.23 0c0.62,3.32 1.47,6.31 2.5,8.85zm-3.68 -22.21c0,2.52 0.12,4.96 0.34,7.3l19.91 0c0.22,-2.34 0.34,-4.78 0.34,-7.3 0,-2.45 -0.11,-4.83 -0.32,-7.12l-19.95 0c-0.21,2.28 -0.32,4.66 -0.32,7.12zm3.68 -22.21c-1.04,2.59 -1.9,5.64 -2.53,9.04l18.29 0c-0.63,-3.39 -1.49,-6.45 -2.53,-9.04 -1.94,-4.79 -4.29,-7.76 -6.62,-7.76 -2.32,0 -4.68,2.97 -6.62,7.76z"/>
 </g>
</svg>
